<svg xmlns:xlink="http://www.w3.org/1999/xlink" width="187" height="34" class="mx-auto" viewBox="0 0 187 34" fill="none" xmlns="http://www.w3.org/2000/svg" data-v-1afa2a7a=""><path d="M3.84 33.04C2.56 32.6667 1.66667 32.2933 1.16 31.92C0.68 31.5467 0.44 31.08 0.44 30.52C0.44 30.0933 0.56 29.4933 0.8 28.72C1.04 27.9467 1.38667 27.04 1.84 26C2.32 24.9333 2.88 23.76 3.52 22.48C4.18667 21.2 4.93333 19.8267 5.76 18.36C5.06667 18.3333 4.44 18.32 3.88 18.32C3.34667 18.2933 2.90667 18.28 2.56 18.28C2.72 17.88 3.17333 17.5333 3.92 17.24C4.66667 16.9467 5.65333 16.6933 6.88 16.48C7.92 14.7467 9.02667 13.0933 10.2 11.52C11.4 9.94667 12.6 8.50667 13.8 7.2C15 5.86667 16.2 4.70667 17.4 3.72C18.6 2.70667 19.7467 1.90667 20.84 1.32C20.8667 1.13333 20.88 0.973332 20.88 0.839999C20.9067 0.706666 20.92 0.613332 20.92 0.559998C21.2933 0.559998 21.7867 0.653331 22.4 0.839999C23.04 1.02666 23.6533 1.25333 24.24 1.52C24.8533 1.78667 25.3867 2.06667 25.84 2.36C26.32 2.62666 26.5867 2.85333 26.64 3.04C25.76 4.58666 24.8933 6.90667 24.04 10C23.1867 13.0667 22.48 16.7467 21.92 21.04C21.7867 22.1067 21.6667 23.32 21.56 24.68C21.48 26.04 21.44 27.56 21.44 29.24C21.44 29.8267 21.44 30.4267 21.44 31.04C21.44 31.6533 21.4667 32.2933 21.52 32.96C21.4667 32.9867 21.4133 33 21.36 33C21.3067 33 21.2 33 21.04 33C20.6667 33 20.2267 32.9333 19.72 32.8C19.24 32.6933 18.76 32.5467 18.28 32.36C17.8267 32.2 17.4267 32.0133 17.08 31.8C16.76 31.5867 16.56 31.4 16.48 31.24C16.4533 30.8933 16.44 30.5467 16.44 30.2C16.44 29.88 16.44 29.5333 16.44 29.16C16.44 27.5067 16.4933 25.8267 16.6 24.12C16.7333 22.4133 16.9467 20.6533 17.24 18.84C16.8667 18.8133 16.3733 18.7867 15.76 18.76C15.1467 18.7067 14.4533 18.6667 13.68 18.64C12.9333 18.6133 12.12 18.5867 11.24 18.56C10.3867 18.5067 9.54667 18.4667 8.72 18.44C8.08 19.64 7.48 20.84 6.92 22.04C6.36 23.2133 5.88 24.4 5.48 25.6C5.02667 26.88 4.65333 28.16 4.36 29.44C4.09333 30.72 3.92 31.92 3.84 33.04ZM19.28 9C19.3867 8.62667 19.5067 8.12 19.64 7.48C19.8 6.81333 19.9467 6.12 20.08 5.4C19.4133 5.64 18.6667 6.08 17.84 6.72C17.04 7.36 16.2 8.16 15.32 9.12C14.4667 10.0533 13.5867 11.12 12.68 12.32C11.8 13.4933 10.9467 14.7467 10.12 16.08C12.36 15.8933 14.9067 15.7733 17.76 15.72C17.9733 14.6 18.2 13.4933 18.44 12.4C18.7067 11.28 18.9867 10.1467 19.28 9ZM25.4903 29.2C25.6236 28.4267 25.8503 27.4133 26.1703 26.16C26.517 24.88 26.917 23.5333 27.3703 22.12C27.8236 20.68 28.3036 19.24 28.8103 17.8C29.317 16.36 29.8103 15.0667 30.2903 13.92C30.637 13.0933 30.9436 12.4533 31.2103 12C31.477 11.52 31.7703 11.12 32.0903 10.8C32.4636 10.8533 32.8503 10.9467 33.2503 11.08C33.6503 11.2133 34.037 11.3733 34.4103 11.56C34.7836 11.7467 35.117 11.9467 35.4103 12.16C35.7036 12.3467 35.9303 12.5333 36.0903 12.72C35.3703 13.5733 34.7303 14.5467 34.1703 15.64C33.637 16.7333 33.0903 18.1333 32.5303 19.84C33.9703 18.56 35.237 17.3333 36.3303 16.16C37.4503 14.9867 38.4903 13.68 39.4503 12.24C39.6103 12.1067 39.8903 12.04 40.2903 12.04C40.6636 12.04 41.0236 12.1067 41.3703 12.24C41.717 12.3467 41.957 12.5067 42.0903 12.72C41.6103 14 41.3703 15.2667 41.3703 16.52C41.3703 17.6933 41.5436 18.5733 41.8903 19.16C41.8636 19.32 41.677 19.6267 41.3303 20.08C41.0103 20.5333 40.6503 20.96 40.2503 21.36C39.5303 20.9867 38.8903 20.48 38.3303 19.84C37.7703 19.1733 37.357 18.4533 37.0903 17.68C35.837 18.56 34.7703 19.4267 33.8903 20.28C33.0103 21.1067 32.2503 22.04 31.6103 23.08C30.997 24.0933 30.4636 25.2667 30.0103 26.6C29.5836 27.9333 29.1703 29.52 28.7703 31.36C28.5303 31.3333 28.237 31.24 27.8903 31.08C27.5703 30.9467 27.237 30.7733 26.8903 30.56C26.5703 30.3467 26.277 30.12 26.0103 29.88C25.7436 29.64 25.5703 29.4133 25.4903 29.2ZM56.3831 13.84C56.6498 13.84 56.9565 13.8933 57.3031 14C57.6765 14.08 58.0098 14.2 58.3031 14.36C58.5965 14.4933 58.8365 14.64 59.0231 14.8C59.2365 14.96 59.3431 15.1067 59.3431 15.24C58.8098 16.36 58.3165 17.4933 57.8631 18.64C57.4098 19.76 57.0231 20.84 56.7031 21.88C56.3831 22.92 56.1298 23.8933 55.9431 24.8C55.7831 25.7067 55.7031 26.4933 55.7031 27.16C55.7031 27.9067 55.7831 28.5333 55.9431 29.04C56.1031 29.52 56.3698 29.8667 56.7431 30.08C56.4231 30.2933 56.0098 30.4667 55.5031 30.6C54.9965 30.7333 54.5431 30.8 54.1431 30.8C52.7031 30.8 51.9831 29.8133 51.9831 27.84C51.9831 26.32 52.4898 24.24 53.5031 21.6C52.9698 22.8267 52.3565 23.9867 51.6631 25.08C50.9698 26.1467 50.2631 27.0933 49.5431 27.92C48.8231 28.7467 48.0898 29.4267 47.3431 29.96C46.6231 30.4667 45.9565 30.7733 45.3431 30.88C44.3565 30.8267 43.5565 30.36 42.9431 29.48C42.3298 28.5733 42.0231 27.4267 42.0231 26.04C42.0231 24.5467 42.3431 22.9733 42.9831 21.32C43.6231 19.6667 44.4365 18.1333 45.4231 16.72C46.4365 15.3067 47.5298 14.1333 48.7031 13.2C49.8765 12.24 51.0098 11.7333 52.1031 11.68C52.3698 11.76 52.6631 11.92 52.9831 12.16C53.3298 12.4 53.6498 12.68 53.9431 13C54.2631 13.32 54.5298 13.6533 54.7431 14C54.9565 14.32 55.0765 14.6 55.1031 14.84C54.0365 15 52.9298 15.52 51.7831 16.4C50.6631 17.28 49.6365 18.3467 48.7031 19.6C47.7965 20.8267 47.0498 22.1467 46.4631 23.56C45.8765 24.9733 45.5831 26.2933 45.5831 27.52C45.5831 28.0267 45.7698 28.3467 46.1431 28.48C46.9165 28.32 47.8098 27.6667 48.8231 26.52C49.8365 25.3467 51.0631 23.5467 52.5031 21.12C52.7698 20.64 53.0631 20.1067 53.3831 19.52C53.7298 18.9333 54.0765 18.32 54.4231 17.68C54.7698 17.04 55.1031 16.4 55.4231 15.76C55.7698 15.0933 56.0898 14.4533 56.3831 13.84ZM67.8522 10.6C68.5455 10.8133 69.1989 11.2933 69.8122 12.04C70.4255 12.76 70.8789 13.56 71.1722 14.44C70.8789 15.16 70.4255 16.0267 69.8122 17.04C69.1989 18.0533 68.5855 19.0933 67.9722 20.16C67.3589 21.2 66.7989 22.2 66.2922 23.16C65.8122 24.0933 65.5322 24.8667 65.4522 25.48C65.8789 25.0267 66.3455 24.5067 66.8522 23.92C67.3855 23.3067 67.8922 22.7067 68.3722 22.12C68.8789 21.5067 69.3455 20.96 69.7722 20.48C70.1989 19.9733 70.5322 19.6 70.7722 19.36C71.2789 18.8267 71.8789 18.2133 72.5722 17.52C73.2655 16.8 73.9855 16.1333 74.7322 15.52C75.5055 14.88 76.2789 14.3467 77.0522 13.92C77.8255 13.4667 78.5322 13.24 79.1722 13.24C79.8655 13.24 80.4389 13.48 80.8922 13.96C81.3722 14.4133 81.7455 14.8933 82.0122 15.4C82.0122 15.4533 81.9055 15.5333 81.6922 15.64C81.5055 15.72 81.2255 15.9733 80.8522 16.4C80.4789 16.88 80.0522 17.5467 79.5722 18.4C79.1189 19.2267 78.6655 20.1333 78.2122 21.12C77.7855 22.08 77.4255 23.0667 77.1322 24.08C76.8389 25.0933 76.6922 26.0133 76.6922 26.84C76.6922 27.5067 76.7722 27.9333 76.9322 28.12C77.1189 28.3067 77.3722 28.4 77.6922 28.4C77.9855 28.4 78.2922 28.3333 78.6122 28.2C78.9322 28.0667 79.1855 28 79.3722 28C79.4789 28.0533 79.5589 28.1733 79.6122 28.36C79.6922 28.52 79.7322 28.6667 79.7322 28.8C79.5189 28.9867 79.2655 29.1733 78.9722 29.36C78.6789 29.5467 78.3722 29.72 78.0522 29.88C77.7322 30.04 77.4122 30.1733 77.0922 30.28C76.7989 30.3867 76.5322 30.44 76.2922 30.44C75.5189 30.44 74.8789 30.32 74.3722 30.08C73.8922 29.8667 73.5055 29.5733 73.2122 29.2C72.9455 28.8267 72.7589 28.3867 72.6522 27.88C72.5455 27.3467 72.4922 26.7867 72.4922 26.2C72.4922 25.88 72.5189 25.52 72.5722 25.12C72.6255 24.72 72.7322 24.2533 72.8922 23.72C73.0522 23.16 73.2789 22.5067 73.5722 21.76C73.8655 20.9867 74.2389 20.0667 74.6922 19C74.6389 19 74.2789 19.1867 73.6122 19.56C72.9455 19.9333 72.2255 20.5067 71.4522 21.28C70.1989 22.48 69.0655 23.6667 68.0522 24.84C67.0655 26.0133 66.0522 27.32 65.0122 28.76C64.4255 29.5867 63.9055 30.28 63.4522 30.84C63.0255 31.4267 62.6522 31.8133 62.3322 32C61.7722 31.68 61.3589 31.2267 61.0922 30.64C60.8255 30.08 60.6255 29.4933 60.4922 28.88C60.4922 28.3733 60.5589 27.7333 60.6922 26.96C60.8522 26.1867 61.0522 25.3333 61.2922 24.4C61.5589 23.44 61.8789 22.44 62.2522 21.4C62.6255 20.36 63.0389 19.32 63.4922 18.28C64.5055 15.9333 65.4255 14.0933 66.2522 12.76C67.1055 11.4267 67.6389 10.7067 67.8522 10.6ZM81.5338 29.44C81.5338 29.0133 81.9071 28.3333 82.6538 27.4C83.4004 26.44 84.3871 25.36 85.6138 24.16C86.8671 22.9333 88.2938 21.6533 89.8938 20.32C91.5204 18.96 93.2004 17.6533 94.9338 16.4C93.8138 16.16 92.9204 15.9867 92.2538 15.88C91.6138 15.7733 91.0938 15.72 90.6938 15.72C89.9204 15.72 89.2271 15.8267 88.6138 16.04C88.0004 16.2533 87.4004 16.6 86.8138 17.08C85.5871 16.0133 84.9737 14.7867 84.9737 13.4C84.9737 12.9733 84.9871 12.72 85.0138 12.64C85.4671 12.1867 86.0004 11.84 86.6138 11.6C87.2538 11.36 87.9204 11.24 88.6138 11.24C89.3604 11.24 90.1204 11.36 90.8938 11.6C91.6671 11.84 92.4271 12.1067 93.1738 12.4C93.9204 12.6667 94.6138 12.92 95.2538 13.16C95.9204 13.4 96.5071 13.52 97.0138 13.52C97.3071 13.52 97.6271 13.48 97.9738 13.4C98.3471 13.32 98.6538 13.2133 98.8938 13.08C99.1338 13.2667 99.3471 13.64 99.5338 14.2C99.7471 14.76 99.8538 15.3067 99.8538 15.84C99.0271 16.16 98.0271 16.72 96.8538 17.52C95.7071 18.32 94.5338 19.24 93.3338 20.28C92.1338 21.32 90.9604 22.4267 89.8138 23.6C88.6938 24.7733 87.7604 25.88 87.0138 26.92C87.5738 27.16 88.3338 27.28 89.2938 27.28C89.9071 27.28 90.5338 27.2267 91.1738 27.12C91.8138 27.0133 92.4271 26.8667 93.0138 26.68C93.6271 26.4933 94.1871 26.28 94.6938 26.04C95.2004 25.7733 95.6271 25.4933 95.9738 25.2C97.2271 26 97.8538 27.1733 97.8538 28.72C97.8538 28.9333 97.8404 29.1067 97.8138 29.24C97.8138 29.3733 97.8004 29.5333 97.7738 29.72C96.5471 30.4933 95.2138 30.88 93.7738 30.88C93.0538 30.88 92.3338 30.8 91.6138 30.64C90.8938 30.5067 90.1871 30.36 89.4938 30.2C88.8271 30.04 88.1871 29.8933 87.5738 29.76C86.9871 29.6 86.4404 29.52 85.9338 29.52C84.6538 29.52 83.6138 30.12 82.8138 31.32C82.4671 31.1867 82.1738 30.9467 81.9338 30.6C81.7204 30.2533 81.5871 29.8667 81.5338 29.44ZM95.1338 9.8C94.4138 9.61333 93.8671 9.44 93.4938 9.28C93.1471 9.12 92.8271 8.90666 92.5338 8.64C92.3738 7.12 92.0671 5.78667 91.6138 4.64C91.1604 3.49333 90.5471 2.44 89.7738 1.48C89.9871 1.42666 90.1338 1.4 90.2138 1.4C90.2938 1.4 90.3738 1.4 90.4538 1.4C91.9738 1.4 93.4538 3.02667 94.8938 6.28C95.7204 5.24 96.4404 4.41333 97.0538 3.8C97.6671 3.18667 98.2671 2.73333 98.8538 2.44C99.1204 2.49333 99.4404 2.70667 99.8138 3.08C100.214 3.42667 100.614 3.86667 101.014 4.4C100 4.82667 99.0404 5.45333 98.1338 6.28C97.2271 7.10666 96.2271 8.28 95.1338 9.8ZM124.805 17.72C124.378 17.7467 123.858 18.0267 123.245 18.56C122.631 19.0667 121.965 19.7333 121.245 20.56C120.551 21.36 119.818 22.2533 119.045 23.24C118.298 24.2267 117.565 25.2133 116.845 26.2C116.151 27.16 115.498 28.0667 114.885 28.92C114.271 29.7733 113.751 30.4533 113.325 30.96C112.738 30.72 112.231 30.3733 111.805 29.92C111.378 29.44 111.071 28.8533 110.885 28.16C111.018 27.3333 111.205 26.48 111.445 25.6C111.685 24.6933 111.991 23.76 112.365 22.8C112.765 21.84 113.245 20.84 113.805 19.8C114.391 18.7333 115.098 17.6133 115.925 16.44C115.525 16.4667 114.978 16.76 114.285 17.32C113.591 17.8533 112.845 18.56 112.045 19.44C111.245 20.2933 110.418 21.2667 109.565 22.36C108.711 23.4267 107.911 24.48 107.165 25.52C106.178 26.9067 105.351 28.12 104.685 29.16C104.045 30.2 103.578 30.8133 103.285 31C102.591 30.4933 102.111 29.9467 101.845 29.36C101.578 28.7733 101.378 28.12 101.245 27.4C101.271 26.76 101.365 25.96 101.525 25C101.711 24.04 101.965 23.0533 102.285 22.04C102.898 20.0933 103.685 18.16 104.645 16.24C105.631 14.32 106.578 12.56 107.485 10.96C108.231 11.12 108.898 11.3733 109.485 11.72C110.098 12.0667 110.738 12.5733 111.405 13.24C111.138 14.0667 110.725 14.9467 110.165 15.88C109.605 16.7867 109.018 17.7467 108.405 18.76C107.791 19.7733 107.231 20.8133 106.725 21.88C106.218 22.9467 105.885 24.0267 105.725 25.12C106.471 24.0533 107.351 22.8267 108.365 21.44C109.405 20.0533 110.458 18.7467 111.525 17.52C112.618 16.2933 113.698 15.2533 114.765 14.4C115.831 13.5467 116.791 13.12 117.645 13.12C117.965 13.12 118.311 13.1733 118.685 13.28C119.058 13.3867 119.405 13.52 119.725 13.68C120.045 13.84 120.311 14 120.525 14.16C120.738 14.2933 120.858 14.4 120.885 14.48C120.751 15.0133 120.431 15.7467 119.925 16.68C119.445 17.5867 118.925 18.5467 118.365 19.56C117.805 20.5733 117.285 21.56 116.805 22.52C116.325 23.4533 116.045 24.2 115.965 24.76C117.271 22.9733 118.498 21.36 119.645 19.92C120.791 18.4533 121.871 17.2 122.885 16.16C123.898 15.12 124.831 14.32 125.685 13.76C126.565 13.2 127.391 12.92 128.165 12.92C128.698 12.92 129.191 13.0667 129.645 13.36C130.125 13.6267 130.458 14.0267 130.645 14.56C130.405 15.36 130.005 16.32 129.445 17.44C128.911 18.56 128.365 19.7467 127.805 21C127.245 22.2267 126.738 23.44 126.285 24.64C125.858 25.84 125.645 26.92 125.645 27.88C125.645 28.44 125.725 28.8133 125.885 29C126.045 29.16 126.271 29.24 126.565 29.24C126.885 29.24 127.178 29.1867 127.445 29.08C127.738 28.9467 127.951 28.88 128.085 28.88C128.245 28.9867 128.338 29.12 128.365 29.28C128.391 29.44 128.405 29.5867 128.405 29.72C127.871 30.1467 127.325 30.4933 126.765 30.76C126.205 31.0533 125.578 31.2 124.885 31.2C124.245 31.2 123.711 31.0933 123.285 30.88C122.885 30.6667 122.551 30.3733 122.285 30C122.018 29.6267 121.831 29.2 121.725 28.72C121.618 28.24 121.565 27.72 121.565 27.16C121.565 26.2533 121.685 25.36 121.925 24.48C122.165 23.5733 122.445 22.72 122.765 21.92C123.111 21.0933 123.471 20.3333 123.845 19.64C124.218 18.92 124.538 18.28 124.805 17.72ZM146.071 13.84C146.337 13.84 146.644 13.8933 146.991 14C147.364 14.08 147.697 14.2 147.991 14.36C148.284 14.4933 148.524 14.64 148.711 14.8C148.924 14.96 149.031 15.1067 149.031 15.24C148.497 16.36 148.004 17.4933 147.551 18.64C147.097 19.76 146.711 20.84 146.391 21.88C146.071 22.92 145.817 23.8933 145.631 24.8C145.471 25.7067 145.391 26.4933 145.391 27.16C145.391 27.9067 145.471 28.5333 145.631 29.04C145.791 29.52 146.057 29.8667 146.431 30.08C146.111 30.2933 145.697 30.4667 145.191 30.6C144.684 30.7333 144.231 30.8 143.831 30.8C142.391 30.8 141.671 29.8133 141.671 27.84C141.671 26.32 142.177 24.24 143.191 21.6C142.657 22.8267 142.044 23.9867 141.351 25.08C140.657 26.1467 139.951 27.0933 139.231 27.92C138.511 28.7467 137.777 29.4267 137.031 29.96C136.311 30.4667 135.644 30.7733 135.031 30.88C134.044 30.8267 133.244 30.36 132.631 29.48C132.017 28.5733 131.711 27.4267 131.711 26.04C131.711 24.5467 132.031 22.9733 132.671 21.32C133.311 19.6667 134.124 18.1333 135.111 16.72C136.124 15.3067 137.217 14.1333 138.391 13.2C139.564 12.24 140.697 11.7333 141.791 11.68C142.057 11.76 142.351 11.92 142.671 12.16C143.017 12.4 143.337 12.68 143.631 13C143.951 13.32 144.217 13.6533 144.431 14C144.644 14.32 144.764 14.6 144.791 14.84C143.724 15 142.617 15.52 141.471 16.4C140.351 17.28 139.324 18.3467 138.391 19.6C137.484 20.8267 136.737 22.1467 136.151 23.56C135.564 24.9733 135.271 26.2933 135.271 27.52C135.271 28.0267 135.457 28.3467 135.831 28.48C136.604 28.32 137.497 27.6667 138.511 26.52C139.524 25.3467 140.751 23.5467 142.191 21.12C142.457 20.64 142.751 20.1067 143.071 19.52C143.417 18.9333 143.764 18.32 144.111 17.68C144.457 17.04 144.791 16.4 145.111 15.76C145.457 15.0933 145.777 14.4533 146.071 13.84ZM157.54 10.6C158.233 10.8133 158.886 11.2933 159.5 12.04C160.113 12.76 160.566 13.56 160.86 14.44C160.566 15.16 160.113 16.0267 159.5 17.04C158.886 18.0533 158.273 19.0933 157.66 20.16C157.046 21.2 156.486 22.2 155.98 23.16C155.5 24.0933 155.22 24.8667 155.14 25.48C155.566 25.0267 156.033 24.5067 156.54 23.92C157.073 23.3067 157.58 22.7067 158.06 22.12C158.566 21.5067 159.033 20.96 159.46 20.48C159.886 19.9733 160.22 19.6 160.46 19.36C160.966 18.8267 161.566 18.2133 162.26 17.52C162.953 16.8 163.673 16.1333 164.42 15.52C165.193 14.88 165.966 14.3467 166.74 13.92C167.513 13.4667 168.22 13.24 168.86 13.24C169.553 13.24 170.126 13.48 170.58 13.96C171.06 14.4133 171.433 14.8933 171.7 15.4C171.7 15.4533 171.593 15.5333 171.38 15.64C171.193 15.72 170.913 15.9733 170.54 16.4C170.166 16.88 169.74 17.5467 169.26 18.4C168.806 19.2267 168.353 20.1333 167.9 21.12C167.473 22.08 167.113 23.0667 166.82 24.08C166.526 25.0933 166.38 26.0133 166.38 26.84C166.38 27.5067 166.46 27.9333 166.62 28.12C166.806 28.3067 167.06 28.4 167.38 28.4C167.673 28.4 167.98 28.3333 168.3 28.2C168.62 28.0667 168.873 28 169.06 28C169.166 28.0533 169.246 28.1733 169.3 28.36C169.38 28.52 169.42 28.6667 169.42 28.8C169.206 28.9867 168.953 29.1733 168.66 29.36C168.366 29.5467 168.06 29.72 167.74 29.88C167.42 30.04 167.1 30.1733 166.78 30.28C166.486 30.3867 166.22 30.44 165.98 30.44C165.206 30.44 164.566 30.32 164.06 30.08C163.58 29.8667 163.193 29.5733 162.9 29.2C162.633 28.8267 162.446 28.3867 162.34 27.88C162.233 27.3467 162.18 26.7867 162.18 26.2C162.18 25.88 162.206 25.52 162.26 25.12C162.313 24.72 162.42 24.2533 162.58 23.72C162.74 23.16 162.966 22.5067 163.26 21.76C163.553 20.9867 163.926 20.0667 164.38 19C164.326 19 163.966 19.1867 163.3 19.56C162.633 19.9333 161.913 20.5067 161.14 21.28C159.886 22.48 158.753 23.6667 157.74 24.84C156.753 26.0133 155.74 27.32 154.7 28.76C154.113 29.5867 153.593 30.28 153.14 30.84C152.713 31.4267 152.34 31.8133 152.02 32C151.46 31.68 151.046 31.2267 150.78 30.64C150.513 30.08 150.313 29.4933 150.18 28.88C150.18 28.3733 150.246 27.7333 150.38 26.96C150.54 26.1867 150.74 25.3333 150.98 24.4C151.246 23.44 151.566 22.44 151.94 21.4C152.313 20.36 152.726 19.32 153.18 18.28C154.193 15.9333 155.113 14.0933 155.94 12.76C156.793 11.4267 157.326 10.7067 157.54 10.6ZM172.701 27.32C172.701 27.08 172.715 26.7867 172.741 26.44C172.795 26.0667 172.875 25.5867 172.981 25C173.088 24.3867 173.221 23.6533 173.381 22.8C173.568 21.9467 173.795 20.92 174.061 19.72C174.115 19.4533 174.235 19.0267 174.421 18.44C174.608 17.8533 174.848 17.24 175.141 16.6C175.461 15.9333 175.835 15.2933 176.261 14.68C176.715 14.0667 177.248 13.6133 177.861 13.32C178.315 13.4267 178.915 13.7067 179.661 14.16C180.408 14.5867 181.048 15.1867 181.581 15.96C180.968 16.6533 180.448 17.3467 180.021 18.04C179.621 18.7333 179.248 19.4533 178.901 20.2C178.581 20.9467 178.275 21.72 177.981 22.52C177.715 23.32 177.408 24.16 177.061 25.04C176.768 25.7867 176.501 26.56 176.261 27.36C176.021 28.1333 175.888 28.8133 175.861 29.4C175.861 29.88 175.848 30.2133 175.821 30.4C175.821 30.6133 175.755 30.72 175.621 30.72C175.515 30.72 175.301 30.6533 174.981 30.52C174.661 30.3867 174.328 30.1867 173.981 29.92C173.661 29.6267 173.368 29.2667 173.101 28.84C172.835 28.4133 172.701 27.9067 172.701 27.32ZM180.341 9.96C180.341 9.8 180.381 9.56 180.461 9.24C180.328 9.10666 180.208 8.90666 180.101 8.64C180.021 8.37333 179.981 8.13333 179.981 7.92C179.981 7.68 180.008 7.36 180.061 6.96C180.141 6.53333 180.235 6.08 180.341 5.6C180.448 5.12 180.581 4.62667 180.741 4.12C180.901 3.58666 181.061 3.10666 181.221 2.68C181.541 2.68 181.928 2.77333 182.381 2.96C182.861 3.12 183.341 3.34667 183.821 3.64C184.301 3.90666 184.741 4.21333 185.141 4.56C185.541 4.88 185.848 5.18667 186.061 5.48C185.768 5.77333 185.381 6.18666 184.901 6.72C184.421 7.22667 183.955 7.77333 183.501 8.36C183.048 8.92 182.635 9.45333 182.261 9.96C181.888 10.4667 181.648 10.8267 181.541 11.04C181.221 10.9867 180.941 10.8533 180.701 10.64C180.461 10.4 180.341 10.1733 180.341 9.96Z" fill="#6FDCF6" data-v-1afa2a7a=""></path></svg>