<svg xmlns:xlink="http://www.w3.org/1999/xlink" width="222" height="49" class="mx-auto" viewBox="0 0 222 49" fill="none" xmlns="http://www.w3.org/2000/svg" data-v-1afa2a7a=""><path d="M0.68 26.16C0.68 24.2933 0.893334 22.4667 1.32 20.68C1.77333 18.8667 2.4 17.16 3.2 15.56C4 13.9333 4.94667 12.4533 6.04 11.12C7.16 9.76 8.37333 8.58667 9.68 7.6C11.0133 6.61333 12.4267 5.85333 13.92 5.32C15.4133 4.76 16.9467 4.48 18.52 4.48C20.36 4.48 21.7867 4.86667 22.8 5.64C23.84 6.41333 24.36 7.49333 24.36 8.88C24.36 9.41333 24.28 9.96 24.12 10.52C23.9867 11.08 23.7733 11.64 23.48 12.2C23.2133 12.7333 22.8933 13.2533 22.52 13.76C22.1467 14.2667 21.7333 14.7067 21.28 15.08C20.5867 14.9733 19.9867 14.6667 19.48 14.16C18.9733 13.6267 18.6533 13.0133 18.52 12.32C19.4533 11.5467 20.1867 10.7467 20.72 9.92C21.28 9.06667 21.56 8.29333 21.56 7.6C21.56 6.42666 20.8267 5.84 19.36 5.84C18.7467 5.84 18.1067 5.97333 17.44 6.24C16.8 6.48 16.1467 6.82666 15.48 7.28C14.8133 7.73333 14.16 8.28 13.52 8.92C12.9067 9.56 12.3333 10.2667 11.8 11.04C8.09333 16.3733 6.24 21.8267 6.24 27.4C6.24 29.3733 6.54667 30.96 7.16 32.16C7.77333 33.36 8.58667 34.0667 9.6 34.28C10.7467 34.0133 12.2 33.28 13.96 32.08C15.72 30.88 17.64 29.32 19.72 27.4C19.9867 27.6667 20.1467 27.9467 20.2 28.24C19.4267 29.2533 18.6267 30.2267 17.8 31.16C16.9733 32.0933 16.1467 32.9467 15.32 33.72C14.52 34.4933 13.72 35.1733 12.92 35.76C12.1467 36.3467 11.4267 36.8 10.76 37.12C7.45333 37.0667 4.94667 36.12 3.24 34.28C1.53333 32.44 0.68 29.7333 0.68 26.16ZM24.5566 19.84C24.5566 19.36 24.5832 18.9067 24.6366 18.48C24.7166 18.0533 24.8632 17.6933 25.0766 17.4C25.2899 17.08 25.5832 16.84 25.9566 16.68C26.3299 16.4933 26.8232 16.4 27.4366 16.4C27.8099 16.4 28.2232 16.44 28.6766 16.52C29.1566 16.6 29.5032 16.7467 29.7166 16.96C29.6099 17.4133 29.5166 17.8133 29.4366 18.16C29.3832 18.5067 29.3299 18.8933 29.2766 19.32C29.2499 19.72 29.2232 20.2133 29.1966 20.8C29.1699 21.36 29.1432 22.0933 29.1166 23C29.0632 24.8133 28.9699 26.44 28.8366 27.88C28.7299 29.2933 28.4632 30.7067 28.0366 32.12C28.0366 32.2267 28.0766 32.28 28.1566 32.28C28.5566 31.9867 29.0099 31.56 29.5166 31C30.0232 30.44 30.5566 29.8133 31.1166 29.12C31.6766 28.4 32.2366 27.64 32.7966 26.84C33.3566 26.04 33.8766 25.2533 34.3566 24.48C34.9966 23.36 35.7032 21.96 36.4766 20.28C37.2499 18.6 37.8899 16.8 38.3966 14.88C38.5566 14.88 38.7566 14.92 38.9966 15C39.2632 15.0533 39.5166 15.1333 39.7566 15.24C40.0232 15.32 40.2499 15.4133 40.4366 15.52C40.6499 15.6267 40.7966 15.72 40.8766 15.8C40.8232 16.9467 40.5432 18.12 40.0366 19.32C39.5566 20.52 38.9699 21.68 38.2766 22.8C37.5832 23.92 36.8499 24.9733 36.0766 25.96C35.3032 26.9467 34.5966 27.8 33.9566 28.52C32.6766 30.0133 31.3832 31.3467 30.0766 32.52C28.7966 33.6933 27.2632 34.8267 25.4766 35.92C24.7832 35.6533 24.2366 35.2933 23.8366 34.84C23.4366 34.4133 23.2366 33.96 23.2366 33.48C23.2366 33.16 23.3032 32.8 23.4366 32.4C23.5966 31.9733 23.7699 31.44 23.9566 30.8C24.1432 30.1333 24.3032 29.3067 24.4366 28.32C24.5966 27.3333 24.6766 26.08 24.6766 24.56C24.6766 23.68 24.6499 22.8 24.5966 21.92C24.5699 21.0133 24.5566 20.32 24.5566 19.84ZM41.1663 26.52C42.1529 22.5733 43.1129 19.6933 44.0463 17.88C45.0063 16.04 46.0063 15.12 47.0463 15.12C47.7929 15.12 48.6863 15.48 49.7263 16.2C48.8729 17.72 48.2063 18.9867 47.7263 20C47.2729 20.9867 46.9396 21.8933 46.7263 22.72C46.2729 24.32 45.7929 25.9867 45.2863 27.72C44.7796 29.4267 44.2729 31.0667 43.7663 32.64C43.2863 34.2133 42.8329 35.6267 42.4063 36.88C42.0063 38.16 41.6863 39.1333 41.4463 39.8C40.8596 41.3733 40.2729 42.7067 39.6863 43.8C39.1263 44.8933 38.5396 45.7867 37.9263 46.48C37.3129 47.1733 36.6729 47.68 36.0062 48C35.3129 48.32 34.5662 48.48 33.7663 48.48C33.1796 48.48 32.6062 48.4133 32.0462 48.28C31.4596 48.1733 30.9129 48.0133 30.4062 47.8C29.8996 47.6133 29.4462 47.3733 29.0462 47.08C28.6462 46.7867 28.3262 46.48 28.0862 46.16C28.1129 45.9733 28.2062 45.7867 28.3662 45.6C28.4996 45.44 28.6329 45.3467 28.7662 45.32C29.2196 45.8 29.6996 46.1467 30.2062 46.36C30.6862 46.5733 31.2729 46.68 31.9662 46.68C32.8196 46.68 33.5796 46.4267 34.2462 45.92C34.8862 45.4133 35.5396 44.4267 36.2062 42.96C36.8729 41.52 37.5929 39.48 38.3663 36.84C39.1396 34.2267 40.0729 30.7867 41.1663 26.52ZM47.6863 11.96C47.6863 11.8267 47.7263 11.6 47.8063 11.28C47.4863 10.96 47.3263 10.5067 47.3263 9.92C47.3263 9.68 47.3529 9.34667 47.4063 8.92C47.4863 8.49333 47.5796 8.04 47.6863 7.56C47.8196 7.05333 47.9529 6.54667 48.0863 6.04C48.2463 5.53333 48.4063 5.09333 48.5663 4.72C48.8863 4.72 49.2729 4.81333 49.7263 5C50.2063 5.16 50.6863 5.38667 51.1663 5.68C51.6463 5.94667 52.0863 6.25333 52.4863 6.6C52.8863 6.92 53.1929 7.22666 53.4063 7.52C53.0863 7.81333 52.6863 8.22667 52.2063 8.76C51.7263 9.29333 51.2596 9.85333 50.8063 10.44C50.3529 11 49.9396 11.5333 49.5663 12.04C49.1929 12.52 48.9663 12.8667 48.8863 13.08C48.5663 13.0267 48.2863 12.8933 48.0463 12.68C47.8063 12.44 47.6863 12.2 47.6863 11.96ZM64.0594 17.44C63.9527 19.0933 63.6594 20.52 63.1794 21.72C62.6994 22.8933 62.006 23.9333 61.0994 24.84C60.2194 25.72 59.1394 26.52 57.8594 27.24C56.5794 27.96 55.086 28.6533 53.3794 29.32C53.3794 29.48 53.366 29.6533 53.3394 29.84C53.3394 30 53.3394 30.1733 53.3394 30.36C53.3394 30.7067 53.366 31.0667 53.4194 31.44C53.4727 31.8133 53.566 32.16 53.6994 32.48C53.8327 32.8 54.0194 33.0667 54.2594 33.28C54.4994 33.4667 54.806 33.56 55.1794 33.56C55.8994 33.56 56.606 33.4 57.2994 33.08C57.9927 32.76 58.646 32.3733 59.2594 31.92C59.8994 31.44 60.486 30.9333 61.0194 30.4C61.5794 29.84 62.0727 29.3333 62.4994 28.88C62.766 29.12 62.9927 29.3467 63.1794 29.56C61.9794 31.16 60.6594 32.4933 59.2194 33.56C57.806 34.6 56.4594 35.2667 55.1794 35.56C53.3394 35.3467 51.8994 34.68 50.8594 33.56C49.846 32.4133 49.3394 31.04 49.3394 29.44C49.3394 28.3467 49.486 27.24 49.7794 26.12C50.0994 24.9733 50.526 23.88 51.0594 22.84C51.6194 21.7733 52.2594 20.7733 52.9794 19.84C53.726 18.9067 54.5127 18.0933 55.3394 17.4C56.1927 16.7067 57.0594 16.16 57.9394 15.76C58.846 15.36 59.7394 15.16 60.6194 15.16C61.846 15.32 62.9927 16.08 64.0594 17.44ZM61.2994 18.76C60.5794 18.8667 59.8327 19.16 59.0594 19.64C58.286 20.12 57.5527 20.76 56.8594 21.56C56.1927 22.36 55.5794 23.2933 55.0194 24.36C54.4594 25.4267 54.0194 26.5733 53.6994 27.8C55.8327 26.7333 57.606 25.4267 59.0194 23.88C60.4327 22.3067 61.1927 20.6 61.2994 18.76ZM67.9978 18.68C67.8645 18.52 67.7445 18.1867 67.6378 17.68C67.5311 17.1467 67.4778 16.6933 67.4778 16.32C68.1711 16.3733 68.8378 16.4267 69.4778 16.48C70.1178 16.5067 70.7045 16.5333 71.2378 16.56C71.6378 15.76 72.0645 14.9733 72.5178 14.2C72.9978 13.4 73.4511 12.68 73.8778 12.04C74.3311 11.3733 74.7445 10.8133 75.1178 10.36C75.5178 9.90667 75.8245 9.61333 76.0378 9.48C76.3045 9.48 76.6378 9.53333 77.0378 9.64C77.4645 9.72 77.8911 9.84 78.3178 10C78.7445 10.1333 79.1311 10.28 79.4778 10.44C79.8245 10.6 80.0645 10.76 80.1978 10.92C79.3978 11.9333 78.7045 12.88 78.1178 13.76C77.5578 14.6133 76.9445 15.6 76.2778 16.72C76.8111 16.72 77.3445 16.7067 77.8778 16.68C78.4378 16.6533 78.9978 16.6133 79.5578 16.56C79.6911 16.6933 79.7978 16.8667 79.8778 17.08C79.9578 17.2667 79.9978 17.4667 79.9978 17.68C78.6911 18.16 77.1045 18.4267 75.2378 18.48C74.5711 19.76 73.9711 21.04 73.4378 22.32C72.9311 23.5733 72.4911 24.7867 72.1178 25.96C71.7711 27.1333 71.4911 28.24 71.2778 29.28C71.0911 30.32 70.9978 31.2533 70.9978 32.08C70.9978 33.2533 71.4378 33.9067 72.3178 34.04C73.1178 33.9333 73.8778 33.7333 74.5978 33.44C75.3178 33.1467 75.9578 32.7733 76.5178 32.32C76.6778 32.56 76.7711 32.76 76.7978 32.92C76.6378 33.16 76.3578 33.44 75.9578 33.76C75.5845 34.08 75.1711 34.3867 74.7178 34.68C74.2645 35 73.8245 35.2667 73.3978 35.48C72.9711 35.6933 72.6511 35.8133 72.4378 35.84C71.7711 35.8133 71.1045 35.6667 70.4378 35.4C69.7711 35.1333 69.1578 34.8 68.5978 34.4C68.0645 34 67.6245 33.56 67.2778 33.08C66.9311 32.5733 66.7578 32.08 66.7578 31.6C66.7578 30.96 66.8378 30.16 66.9978 29.2C67.1845 28.2133 67.4378 27.1467 67.7578 26C68.0778 24.8533 68.4511 23.6533 68.8778 22.4C69.3045 21.1467 69.7711 19.9067 70.2778 18.68H67.9978ZM86.1803 14.6C86.8736 14.8133 87.527 15.2933 88.1403 16.04C88.7536 16.76 89.207 17.56 89.5003 18.44C89.207 19.16 88.7536 20.0267 88.1403 21.04C87.527 22.0533 86.9136 23.0933 86.3003 24.16C85.687 25.2 85.127 26.2 84.6203 27.16C84.1403 28.0933 83.8603 28.8667 83.7803 29.48C84.207 29.0267 84.6736 28.5067 85.1803 27.92C85.7136 27.3067 86.2203 26.7067 86.7003 26.12C87.207 25.5067 87.6736 24.96 88.1003 24.48C88.527 23.9733 88.8603 23.6 89.1003 23.36C89.607 22.8267 90.207 22.2133 90.9003 21.52C91.5936 20.8 92.3136 20.1333 93.0603 19.52C93.8336 18.88 94.607 18.3467 95.3803 17.92C96.1536 17.4667 96.8603 17.24 97.5003 17.24C98.1936 17.24 98.767 17.48 99.2203 17.96C99.7003 18.4133 100.074 18.8933 100.34 19.4C100.34 19.4533 100.234 19.5333 100.02 19.64C99.8336 19.72 99.5536 19.9733 99.1803 20.4C98.807 20.88 98.3803 21.5467 97.9003 22.4C97.447 23.2267 96.9936 24.1333 96.5403 25.12C96.1136 26.08 95.7536 27.0667 95.4603 28.08C95.167 29.0933 95.0203 30.0133 95.0203 30.84C95.0203 31.5067 95.1003 31.9333 95.2603 32.12C95.447 32.3067 95.7003 32.4 96.0203 32.4C96.3136 32.4 96.6203 32.3333 96.9403 32.2C97.2603 32.0667 97.5136 32 97.7003 32C97.807 32.0533 97.887 32.1733 97.9403 32.36C98.0203 32.52 98.0603 32.6667 98.0603 32.8C97.847 32.9867 97.5936 33.1733 97.3003 33.36C97.007 33.5467 96.7003 33.72 96.3803 33.88C96.0603 34.04 95.7403 34.1733 95.4203 34.28C95.127 34.3867 94.8603 34.44 94.6203 34.44C93.847 34.44 93.207 34.32 92.7003 34.08C92.2203 33.8667 91.8336 33.5733 91.5403 33.2C91.2736 32.8267 91.087 32.3867 90.9803 31.88C90.8736 31.3467 90.8203 30.7867 90.8203 30.2C90.8203 29.88 90.847 29.52 90.9003 29.12C90.9536 28.72 91.0603 28.2533 91.2203 27.72C91.3803 27.16 91.607 26.5067 91.9003 25.76C92.1936 24.9867 92.567 24.0667 93.0203 23C92.967 23 92.607 23.1867 91.9403 23.56C91.2736 23.9333 90.5536 24.5067 89.7803 25.28C88.527 26.48 87.3936 27.6667 86.3803 28.84C85.3936 30.0133 84.3803 31.32 83.3403 32.76C82.7536 33.5867 82.2336 34.28 81.7803 34.84C81.3536 35.4267 80.9803 35.8133 80.6603 36C80.1003 35.68 79.687 35.2267 79.4203 34.64C79.1536 34.08 78.9536 33.4933 78.8203 32.88C78.8203 32.3733 78.887 31.7333 79.0203 30.96C79.1803 30.1867 79.3803 29.3333 79.6203 28.4C79.887 27.44 80.207 26.44 80.5803 25.4C80.9536 24.36 81.367 23.32 81.8203 22.28C82.8336 19.9333 83.7536 18.0933 84.5803 16.76C85.4336 15.4267 85.967 14.7067 86.1803 14.6ZM101.342 31.32C101.342 31.08 101.355 30.7867 101.382 30.44C101.435 30.0667 101.515 29.5867 101.622 29C101.729 28.3867 101.862 27.6533 102.022 26.8C102.209 25.9467 102.435 24.92 102.702 23.72C102.755 23.4533 102.875 23.0267 103.062 22.44C103.249 21.8533 103.489 21.24 103.782 20.6C104.102 19.9333 104.475 19.2933 104.902 18.68C105.355 18.0667 105.889 17.6133 106.502 17.32C106.955 17.4267 107.555 17.7067 108.302 18.16C109.049 18.5867 109.689 19.1867 110.222 19.96C109.609 20.6533 109.089 21.3467 108.662 22.04C108.262 22.7333 107.889 23.4533 107.542 24.2C107.222 24.9467 106.915 25.72 106.622 26.52C106.355 27.32 106.049 28.16 105.702 29.04C105.409 29.7867 105.142 30.56 104.902 31.36C104.662 32.1333 104.529 32.8133 104.502 33.4C104.502 33.88 104.489 34.2133 104.462 34.4C104.462 34.6133 104.395 34.72 104.262 34.72C104.155 34.72 103.942 34.6533 103.622 34.52C103.302 34.3867 102.969 34.1867 102.622 33.92C102.302 33.6267 102.009 33.2667 101.742 32.84C101.475 32.4133 101.342 31.9067 101.342 31.32ZM108.982 13.96C108.982 13.8 109.022 13.56 109.102 13.24C108.969 13.1067 108.849 12.9067 108.742 12.64C108.662 12.3733 108.622 12.1333 108.622 11.92C108.622 11.68 108.649 11.36 108.702 10.96C108.782 10.5333 108.875 10.08 108.982 9.6C109.089 9.12 109.222 8.62667 109.382 8.12C109.542 7.58666 109.702 7.10666 109.862 6.68C110.182 6.68 110.569 6.77333 111.022 6.96C111.502 7.12 111.982 7.34667 112.462 7.64C112.942 7.90666 113.382 8.21333 113.782 8.56C114.182 8.88 114.489 9.18667 114.702 9.48C114.409 9.77333 114.022 10.1867 113.542 10.72C113.062 11.2267 112.595 11.7733 112.142 12.36C111.689 12.92 111.275 13.4533 110.902 13.96C110.529 14.4667 110.289 14.8267 110.182 15.04C109.862 14.9867 109.582 14.8533 109.342 14.64C109.102 14.4 108.982 14.1733 108.982 13.96ZM129.006 15.32C129.54 15.32 130.153 15.48 130.846 15.8C131.54 16.12 132.153 16.5333 132.686 17.04C132.553 15.9733 132.38 14.9733 132.166 14.04C131.98 13.08 131.686 12.0933 131.286 11.08C130.913 10.0667 130.406 8.96 129.766 7.76C129.126 6.56 128.326 5.18666 127.366 3.64C127.446 3.4 127.62 3.12 127.886 2.8C128.18 2.48 128.5 2.18666 128.846 1.92C129.22 1.62667 129.593 1.37333 129.966 1.16C130.366 0.946665 130.74 0.813331 131.086 0.759999C131.833 1.58667 132.54 2.62667 133.206 3.88C133.873 5.10667 134.46 6.44 134.966 7.88C135.473 9.29333 135.86 10.76 136.126 12.28C136.42 13.8 136.566 15.2533 136.566 16.64C136.566 18.0267 136.406 19.4533 136.086 20.92C135.793 22.3867 135.366 23.8267 134.806 25.24C134.273 26.6267 133.646 27.9467 132.926 29.2C132.206 30.4533 131.42 31.5733 130.566 32.56C129.74 33.5467 128.873 34.3467 127.966 34.96C127.06 35.6 126.153 36 125.246 36.16C123.406 35.9467 121.993 35.3467 121.006 34.36C120.046 33.4 119.566 32.0667 119.566 30.36C119.566 29.4533 119.7 28.4667 119.966 27.4C120.26 26.3333 120.633 25.28 121.086 24.24C121.566 23.1733 122.113 22.1467 122.726 21.16C123.366 20.1467 124.033 19.24 124.726 18.44C125.446 17.64 126.166 16.96 126.886 16.4C127.606 15.84 128.313 15.48 129.006 15.32ZM124.926 34.56C125.86 34.24 126.793 33.5333 127.726 32.44C128.66 31.3467 129.5 30.0667 130.246 28.6C130.993 27.1067 131.593 25.52 132.046 23.84C132.526 22.1333 132.766 20.4933 132.766 18.92C132.766 18.4667 132.766 18.1867 132.766 18.08C132.766 17.9733 132.753 17.8667 132.726 17.76C132.086 18.0267 131.406 18.48 130.686 19.12C129.966 19.76 129.246 20.5067 128.526 21.36C127.806 22.1867 127.126 23.0933 126.486 24.08C125.846 25.0667 125.273 26.0533 124.766 27.04C124.26 28.0267 123.86 28.9733 123.566 29.88C123.273 30.7867 123.126 31.5867 123.126 32.28C123.126 33.6133 123.726 34.3733 124.926 34.56ZM142.311 35.4C140.791 35.24 139.578 34.5733 138.671 33.4C137.764 32.2267 137.311 30.7333 137.311 28.92C137.311 27.8533 137.471 26.7467 137.791 25.6C138.111 24.4533 138.564 23.3467 139.151 22.28C139.738 21.1867 140.431 20.16 141.231 19.2C142.031 18.24 142.898 17.4133 143.831 16.72C145.298 15.6267 146.671 15.08 147.951 15.08C148.804 15.5333 149.644 16.48 150.471 17.92C150.604 17.92 150.724 17.92 150.831 17.92C150.938 17.8933 151.058 17.88 151.191 17.88C152.604 17.88 153.311 19.1333 153.311 21.64C153.311 23.32 153.031 24.92 152.471 26.44C151.938 27.9333 151.178 29.2933 150.191 30.52C149.231 31.7467 148.071 32.7867 146.711 33.64C145.378 34.4667 143.911 35.0533 142.311 35.4ZM144.351 22.8C143.898 23.4133 143.471 24.08 143.071 24.8C142.671 25.52 142.324 26.2533 142.031 27C141.738 27.72 141.511 28.4267 141.351 29.12C141.191 29.7867 141.111 30.3867 141.111 30.92C141.111 31.56 141.218 32.1733 141.431 32.76C141.644 33.3467 141.884 33.68 142.151 33.76C143.351 33.4933 144.444 33 145.431 32.28C146.444 31.5333 147.311 30.6133 148.031 29.52C148.778 28.4267 149.351 27.1867 149.751 25.8C150.178 24.4133 150.391 22.9333 150.391 21.36C150.391 20.6667 150.351 20.12 150.271 19.72C150.191 19.32 150.058 18.9733 149.871 18.68C148.698 19.0267 147.644 19.5867 146.711 20.36C145.804 21.1333 145.018 21.9467 144.351 22.8ZM163.967 15.32C164.501 15.32 165.114 15.48 165.807 15.8C166.501 16.12 167.114 16.5333 167.647 17.04C167.514 15.9733 167.341 14.9733 167.127 14.04C166.941 13.08 166.647 12.0933 166.247 11.08C165.874 10.0667 165.367 8.96 164.727 7.76C164.087 6.56 163.287 5.18666 162.327 3.64C162.407 3.4 162.581 3.12 162.847 2.8C163.141 2.48 163.461 2.18666 163.807 1.92C164.181 1.62667 164.554 1.37333 164.927 1.16C165.327 0.946665 165.701 0.813331 166.047 0.759999C166.794 1.58667 167.501 2.62667 168.167 3.88C168.834 5.10667 169.421 6.44 169.927 7.88C170.434 9.29333 170.821 10.76 171.087 12.28C171.381 13.8 171.527 15.2533 171.527 16.64C171.527 18.0267 171.367 19.4533 171.047 20.92C170.754 22.3867 170.327 23.8267 169.767 25.24C169.234 26.6267 168.607 27.9467 167.887 29.2C167.167 30.4533 166.381 31.5733 165.527 32.56C164.701 33.5467 163.834 34.3467 162.927 34.96C162.021 35.6 161.114 36 160.207 36.16C158.367 35.9467 156.954 35.3467 155.967 34.36C155.007 33.4 154.527 32.0667 154.527 30.36C154.527 29.4533 154.661 28.4667 154.927 27.4C155.221 26.3333 155.594 25.28 156.047 24.24C156.527 23.1733 157.074 22.1467 157.687 21.16C158.327 20.1467 158.994 19.24 159.687 18.44C160.407 17.64 161.127 16.96 161.847 16.4C162.567 15.84 163.274 15.48 163.967 15.32ZM159.887 34.56C160.821 34.24 161.754 33.5333 162.687 32.44C163.621 31.3467 164.461 30.0667 165.207 28.6C165.954 27.1067 166.554 25.52 167.007 23.84C167.487 22.1333 167.727 20.4933 167.727 18.92C167.727 18.4667 167.727 18.1867 167.727 18.08C167.727 17.9733 167.714 17.8667 167.687 17.76C167.047 18.0267 166.367 18.48 165.647 19.12C164.927 19.76 164.207 20.5067 163.487 21.36C162.767 22.1867 162.087 23.0933 161.447 24.08C160.807 25.0667 160.234 26.0533 159.727 27.04C159.221 28.0267 158.821 28.9733 158.527 29.88C158.234 30.7867 158.087 31.5867 158.087 32.28C158.087 33.6133 158.687 34.3733 159.887 34.56ZM186.352 17.84C186.619 17.84 186.925 17.8933 187.272 18C187.645 18.08 187.979 18.2 188.272 18.36C188.565 18.4933 188.805 18.64 188.992 18.8C189.205 18.96 189.312 19.1067 189.312 19.24C188.779 20.36 188.285 21.4933 187.832 22.64C187.379 23.76 186.992 24.84 186.672 25.88C186.352 26.92 186.099 27.8933 185.912 28.8C185.752 29.7067 185.672 30.4933 185.672 31.16C185.672 31.9067 185.752 32.5333 185.912 33.04C186.072 33.52 186.339 33.8667 186.712 34.08C186.392 34.2933 185.979 34.4667 185.472 34.6C184.965 34.7333 184.512 34.8 184.112 34.8C182.672 34.8 181.952 33.8133 181.952 31.84C181.952 30.32 182.459 28.24 183.472 25.6C182.939 26.8267 182.325 27.9867 181.632 29.08C180.939 30.1467 180.232 31.0933 179.512 31.92C178.792 32.7467 178.059 33.4267 177.312 33.96C176.592 34.4667 175.925 34.7733 175.312 34.88C174.325 34.8267 173.525 34.36 172.912 33.48C172.299 32.5733 171.992 31.4267 171.992 30.04C171.992 28.5467 172.312 26.9733 172.952 25.32C173.592 23.6667 174.405 22.1333 175.392 20.72C176.405 19.3067 177.499 18.1333 178.672 17.2C179.845 16.24 180.979 15.7333 182.072 15.68C182.339 15.76 182.632 15.92 182.952 16.16C183.299 16.4 183.619 16.68 183.912 17C184.232 17.32 184.499 17.6533 184.712 18C184.925 18.32 185.045 18.6 185.072 18.84C184.005 19 182.899 19.52 181.752 20.4C180.632 21.28 179.605 22.3467 178.672 23.6C177.765 24.8267 177.019 26.1467 176.432 27.56C175.845 28.9733 175.552 30.2933 175.552 31.52C175.552 32.0267 175.739 32.3467 176.112 32.48C176.885 32.32 177.779 31.6667 178.792 30.52C179.805 29.3467 181.032 27.5467 182.472 25.12C182.739 24.64 183.032 24.1067 183.352 23.52C183.699 22.9333 184.045 22.32 184.392 21.68C184.739 21.04 185.072 20.4 185.392 19.76C185.739 19.0933 186.059 18.4533 186.352 17.84ZM191.268 26.96C191.268 25.44 191.575 23.9733 192.188 22.56C192.828 21.12 193.655 19.8533 194.668 18.76C195.708 17.64 196.882 16.7467 198.188 16.08C199.522 15.3867 200.895 15.04 202.308 15.04C203.695 15.04 204.762 15.3867 205.508 16.08C206.255 16.7733 206.628 17.76 206.628 19.04C206.628 19.6533 206.535 20.2533 206.348 20.84C206.188 21.4 205.962 21.9067 205.668 22.36C205.402 22.8133 205.082 23.1867 204.708 23.48C204.335 23.7467 203.962 23.88 203.588 23.88C203.268 23.88 202.935 23.7867 202.588 23.6C202.268 23.3867 202.002 23.12 201.788 22.8C203.575 21.1733 204.468 19.6933 204.468 18.36C204.468 17.5867 204.162 17.2 203.548 17.2C203.015 17.2 202.348 17.4533 201.548 17.96C200.748 18.4667 199.975 19.1333 199.228 19.96C198.082 21.24 197.202 22.6667 196.588 24.24C196.002 25.7867 195.708 27.4133 195.708 29.12C195.708 31.28 196.188 32.5733 197.148 33C197.548 32.9467 198.015 32.8267 198.548 32.64C199.082 32.4533 199.655 32.2133 200.268 31.92C200.882 31.6 201.508 31.24 202.148 30.84C202.815 30.44 203.455 30.0133 204.068 29.56C204.175 29.64 204.268 29.76 204.348 29.92C204.428 30.08 204.468 30.2267 204.468 30.36C204.015 30.92 203.495 31.4667 202.908 32C202.322 32.5333 201.708 33.0267 201.068 33.48C200.428 33.9067 199.802 34.2667 199.188 34.56C198.602 34.88 198.082 35.08 197.628 35.16C196.748 35.08 195.922 34.8 195.148 34.32C194.375 33.8667 193.695 33.2667 193.108 32.52C192.548 31.7733 192.095 30.92 191.748 29.96C191.428 29 191.268 28 191.268 26.96ZM207.865 31.32C207.865 31.08 207.879 30.7867 207.905 30.44C207.959 30.0667 208.039 29.5867 208.145 29C208.252 28.3867 208.385 27.6533 208.545 26.8C208.732 25.9467 208.959 24.92 209.225 23.72C209.279 23.4533 209.399 23.0267 209.585 22.44C209.772 21.8533 210.012 21.24 210.305 20.6C210.625 19.9333 210.999 19.2933 211.425 18.68C211.879 18.0667 212.412 17.6133 213.025 17.32C213.479 17.4267 214.079 17.7067 214.825 18.16C215.572 18.5867 216.212 19.1867 216.745 19.96C216.132 20.6533 215.612 21.3467 215.185 22.04C214.785 22.7333 214.412 23.4533 214.065 24.2C213.745 24.9467 213.439 25.72 213.145 26.52C212.879 27.32 212.572 28.16 212.225 29.04C211.932 29.7867 211.665 30.56 211.425 31.36C211.185 32.1333 211.052 32.8133 211.025 33.4C211.025 33.88 211.012 34.2133 210.985 34.4C210.985 34.6133 210.919 34.72 210.785 34.72C210.679 34.72 210.465 34.6533 210.145 34.52C209.825 34.3867 209.492 34.1867 209.145 33.92C208.825 33.6267 208.532 33.2667 208.265 32.84C207.999 32.4133 207.865 31.9067 207.865 31.32ZM215.505 13.96C215.505 13.8 215.545 13.56 215.625 13.24C215.492 13.1067 215.372 12.9067 215.265 12.64C215.185 12.3733 215.145 12.1333 215.145 11.92C215.145 11.68 215.172 11.36 215.225 10.96C215.305 10.5333 215.399 10.08 215.505 9.6C215.612 9.12 215.745 8.62667 215.905 8.12C216.065 7.58666 216.225 7.10666 216.385 6.68C216.705 6.68 217.092 6.77333 217.545 6.96C218.025 7.12 218.505 7.34667 218.985 7.64C219.465 7.90666 219.905 8.21333 220.305 8.56C220.705 8.88 221.012 9.18667 221.225 9.48C220.932 9.77333 220.545 10.1867 220.065 10.72C219.585 11.2267 219.119 11.7733 218.665 12.36C218.212 12.92 217.799 13.4533 217.425 13.96C217.052 14.4667 216.812 14.8267 216.705 15.04C216.385 14.9867 216.105 14.8533 215.865 14.64C215.625 14.4 215.505 14.1733 215.505 13.96Z" fill="#6FDCF6" data-v-1afa2a7a=""></path></svg>