<svg width="134" height="49" viewBox="0 0 134 49" fill="none" xmlns="http://www.w3.org/2000/svg">
<path d="M0.720001 31.92C1.12 31.04 1.6 29.9067 2.16 28.52C2.72 27.1333 3.30667 25.64 3.92 24.04C4.53333 22.4133 5.16 20.76 5.8 19.08C6.44 17.3733 7.04 15.76 7.6 14.24C8.16 12.72 8.64 11.36 9.04 10.16C9.46667 8.96 9.77333 8.04 9.96 7.4C8.28 8.09333 6.84 9.14666 5.64 10.56C4.44 11.9733 3.53333 13.7467 2.92 15.88C2.30667 15.6667 1.74667 15.2933 1.24 14.76C0.733333 14.2 0.4 13.5067 0.24 12.68C0.506667 11.4533 1 10.3333 1.72 9.32C2.46667 8.30667 3.4 7.44 4.52 6.72C5.64 6 6.93333 5.45333 8.4 5.08C9.86667 4.68 11.44 4.48 13.12 4.48C15.2533 4.48 17.2133 4.8 19 5.44C20.7867 6.05333 22.32 6.92 23.6 8.04C24.88 9.16 25.88 10.5067 26.6 12.08C27.32 13.6533 27.68 15.4 27.68 17.32C27.68 19.9333 27.2 22.4267 26.24 24.8C25.28 27.1733 23.9733 29.2667 22.32 31.08C20.6933 32.8933 18.8 34.3333 16.64 35.4C14.48 36.4933 12.2133 37.04 9.84 37.04C7.65333 37.04 5.77333 36.6 4.2 35.72C2.65333 34.8667 1.49333 33.6 0.720001 31.92ZM14.84 6.48C13.5067 6.48 12.24 6.66667 11.04 7.04C12.2133 7.46666 13.1867 7.92 13.96 8.4C14.7333 8.85333 15.2667 9.21333 15.56 9.48C15.3467 9.77333 15.0267 10.2933 14.6 11.04C14.2 11.7867 13.72 12.6933 13.16 13.76C12.6267 14.8267 12.0533 16 11.44 17.28C10.8267 18.5333 10.2267 19.8267 9.64 21.16C8.12 24.5467 7.01333 27.2133 6.32 29.16C5.65333 31.1067 5.32 32.4533 5.32 33.2C5.69333 33.3333 6.14667 33.4267 6.68 33.48C7.21333 33.5333 7.78667 33.56 8.4 33.56C10.56 33.56 12.6 33.0667 14.52 32.08C16.4667 31.0667 18.16 29.72 19.6 28.04C21.0667 26.36 22.2133 24.4133 23.04 22.2C23.8933 19.96 24.32 17.6133 24.32 15.16C24.32 12.4133 23.4667 10.28 21.76 8.76C20.0533 7.24 17.7467 6.48 14.84 6.48ZM43.3328 17.44C43.2261 19.0933 42.9328 20.52 42.4528 21.72C41.9728 22.8933 41.2795 23.9333 40.3728 24.84C39.4928 25.72 38.4128 26.52 37.1328 27.24C35.8528 27.96 34.3595 28.6533 32.6528 29.32C32.6528 29.48 32.6395 29.6533 32.6128 29.84C32.6128 30 32.6128 30.1733 32.6128 30.36C32.6128 30.7067 32.6395 31.0667 32.6928 31.44C32.7461 31.8133 32.8395 32.16 32.9728 32.48C33.1061 32.8 33.2928 33.0667 33.5328 33.28C33.7728 33.4667 34.0795 33.56 34.4528 33.56C35.1728 33.56 35.8795 33.4 36.5728 33.08C37.2661 32.76 37.9195 32.3733 38.5328 31.92C39.1728 31.44 39.7595 30.9333 40.2928 30.4C40.8528 29.84 41.3461 29.3333 41.7728 28.88C42.0395 29.12 42.2661 29.3467 42.4528 29.56C41.2528 31.16 39.9328 32.4933 38.4928 33.56C37.0795 34.6 35.7328 35.2667 34.4528 35.56C32.6128 35.3467 31.1728 34.68 30.1328 33.56C29.1195 32.4133 28.6128 31.04 28.6128 29.44C28.6128 28.3467 28.7595 27.24 29.0528 26.12C29.3728 24.9733 29.7995 23.88 30.3328 22.84C30.8928 21.7733 31.5328 20.7733 32.2528 19.84C32.9995 18.9067 33.7861 18.0933 34.6128 17.4C35.4661 16.7067 36.3328 16.16 37.2128 15.76C38.1195 15.36 39.0128 15.16 39.8928 15.16C41.1195 15.32 42.2661 16.08 43.3328 17.44ZM40.5728 18.76C39.8528 18.8667 39.1061 19.16 38.3328 19.64C37.5595 20.12 36.8261 20.76 36.1328 21.56C35.4661 22.36 34.8528 23.2933 34.2928 24.36C33.7328 25.4267 33.2928 26.5733 32.9728 27.8C35.1061 26.7333 36.8795 25.4267 38.2928 23.88C39.7061 22.3067 40.4661 20.6 40.5728 18.76ZM45.1447 31.44C45.1447 30.2667 45.4247 28.6267 45.9847 26.52C46.5447 24.3867 47.3314 21.9067 48.3447 19.08C49.998 14.5733 51.5447 10.8267 52.9847 7.84C54.4514 4.82667 55.878 2.48 57.2647 0.799998C57.5847 0.853331 57.9714 0.986664 58.4247 1.2C58.9047 1.41333 59.3714 1.65333 59.8247 1.92C60.278 2.16 60.678 2.41333 61.0247 2.68C61.398 2.94666 61.638 3.16 61.7447 3.32C59.6647 5.77333 57.838 8.41333 56.2647 11.24C54.6914 14.0667 53.2514 17.3067 51.9447 20.96C50.8247 24.1067 49.9714 26.9467 49.3847 29.48C48.798 31.9867 48.5047 34.08 48.5047 35.76C48.5047 36.2133 48.5047 36.4933 48.5047 36.6C48.5047 36.7067 48.518 36.8133 48.5447 36.92C48.1714 36.8667 47.8514 36.7733 47.5847 36.64C47.318 36.5067 47.1447 36.3467 47.0647 36.16C47.0114 36.0267 46.8647 35.8267 46.6247 35.56C46.3847 35.32 46.1714 35.1333 45.9847 35C45.7447 34.84 45.5447 34.4267 45.3847 33.76C45.2247 33.0667 45.1447 32.2933 45.1447 31.44ZM54.6778 31.32C54.6778 31.08 54.6911 30.7867 54.7178 30.44C54.7711 30.0667 54.8511 29.5867 54.9578 29C55.0645 28.3867 55.1978 27.6533 55.3578 26.8C55.5445 25.9467 55.7711 24.92 56.0378 23.72C56.0911 23.4533 56.2111 23.0267 56.3978 22.44C56.5845 21.8533 56.8245 21.24 57.1178 20.6C57.4378 19.9333 57.8111 19.2933 58.2378 18.68C58.6911 18.0667 59.2245 17.6133 59.8378 17.32C60.2911 17.4267 60.8911 17.7067 61.6378 18.16C62.3845 18.5867 63.0245 19.1867 63.5578 19.96C62.9445 20.6533 62.4245 21.3467 61.9978 22.04C61.5978 22.7333 61.2245 23.4533 60.8778 24.2C60.5578 24.9467 60.2511 25.72 59.9578 26.52C59.6911 27.32 59.3845 28.16 59.0378 29.04C58.7445 29.7867 58.4778 30.56 58.2378 31.36C57.9978 32.1333 57.8645 32.8133 57.8378 33.4C57.8378 33.88 57.8245 34.2133 57.7978 34.4C57.7978 34.6133 57.7311 34.72 57.5978 34.72C57.4911 34.72 57.2778 34.6533 56.9578 34.52C56.6378 34.3867 56.3045 34.1867 55.9578 33.92C55.6378 33.6267 55.3445 33.2667 55.0778 32.84C54.8111 32.4133 54.6778 31.9067 54.6778 31.32ZM62.3178 13.96C62.3178 13.8 62.3578 13.56 62.4378 13.24C62.3045 13.1067 62.1845 12.9067 62.0778 12.64C61.9978 12.3733 61.9578 12.1333 61.9578 11.92C61.9578 11.68 61.9845 11.36 62.0378 10.96C62.1178 10.5333 62.2111 10.08 62.3178 9.6C62.4245 9.12 62.5578 8.62667 62.7178 8.12C62.8778 7.58666 63.0378 7.10666 63.1978 6.68C63.5178 6.68 63.9045 6.77333 64.3578 6.96C64.8378 7.12 65.3178 7.34667 65.7978 7.64C66.2778 7.90666 66.7178 8.21333 67.1178 8.56C67.5178 8.88 67.8245 9.18667 68.0378 9.48C67.7445 9.77333 67.3578 10.1867 66.8778 10.72C66.3978 11.2267 65.9311 11.7733 65.4778 12.36C65.0245 12.92 64.6111 13.4533 64.2378 13.96C63.8645 14.4667 63.6245 14.8267 63.5178 15.04C63.1978 14.9867 62.9178 14.8533 62.6778 14.64C62.4378 14.4 62.3178 14.1733 62.3178 13.96ZM66.2909 19.84C66.2909 19.36 66.3176 18.9067 66.3709 18.48C66.4509 18.0533 66.5976 17.6933 66.8109 17.4C67.0243 17.08 67.3176 16.84 67.6909 16.68C68.0643 16.4933 68.5576 16.4 69.1709 16.4C69.5443 16.4 69.9576 16.44 70.4109 16.52C70.8909 16.6 71.2376 16.7467 71.4509 16.96C71.3443 17.4133 71.2509 17.8133 71.1709 18.16C71.1176 18.5067 71.0643 18.8933 71.0109 19.32C70.9843 19.72 70.9576 20.2133 70.9309 20.8C70.9043 21.36 70.8776 22.0933 70.8509 23C70.7976 24.8133 70.7043 26.44 70.5709 27.88C70.4643 29.2933 70.1976 30.7067 69.7709 32.12C69.7709 32.2267 69.8109 32.28 69.8909 32.28C70.2909 31.9867 70.7443 31.56 71.2509 31C71.7576 30.44 72.2909 29.8133 72.8509 29.12C73.4109 28.4 73.9709 27.64 74.5309 26.84C75.0909 26.04 75.6109 25.2533 76.0909 24.48C76.7309 23.36 77.4376 21.96 78.2109 20.28C78.9843 18.6 79.6243 16.8 80.1309 14.88C80.2909 14.88 80.4909 14.92 80.7309 15C80.9976 15.0533 81.2509 15.1333 81.4909 15.24C81.7576 15.32 81.9843 15.4133 82.1709 15.52C82.3843 15.6267 82.5309 15.72 82.6109 15.8C82.5576 16.9467 82.2776 18.12 81.7709 19.32C81.2909 20.52 80.7043 21.68 80.0109 22.8C79.3176 23.92 78.5843 24.9733 77.8109 25.96C77.0376 26.9467 76.3309 27.8 75.6909 28.52C74.4109 30.0133 73.1176 31.3467 71.8109 32.52C70.5309 33.6933 68.9976 34.8267 67.2109 35.92C66.5176 35.6533 65.9709 35.2933 65.5709 34.84C65.1709 34.4133 64.9709 33.96 64.9709 33.48C64.9709 33.16 65.0376 32.8 65.1709 32.4C65.3309 31.9733 65.5043 31.44 65.6909 30.8C65.8776 30.1333 66.0376 29.3067 66.1709 28.32C66.3309 27.3333 66.4109 26.08 66.4109 24.56C66.4109 23.68 66.3843 22.8 66.3309 21.92C66.3043 21.0133 66.2909 20.32 66.2909 19.84ZM96.3406 17.44C96.234 19.0933 95.9406 20.52 95.4606 21.72C94.9806 22.8933 94.2873 23.9333 93.3806 24.84C92.5006 25.72 91.4206 26.52 90.1406 27.24C88.8606 27.96 87.3673 28.6533 85.6606 29.32C85.6606 29.48 85.6473 29.6533 85.6206 29.84C85.6206 30 85.6206 30.1733 85.6206 30.36C85.6206 30.7067 85.6473 31.0667 85.7006 31.44C85.754 31.8133 85.8473 32.16 85.9806 32.48C86.114 32.8 86.3006 33.0667 86.5406 33.28C86.7806 33.4667 87.0873 33.56 87.4606 33.56C88.1806 33.56 88.8873 33.4 89.5806 33.08C90.274 32.76 90.9273 32.3733 91.5406 31.92C92.1806 31.44 92.7673 30.9333 93.3006 30.4C93.8606 29.84 94.354 29.3333 94.7806 28.88C95.0473 29.12 95.274 29.3467 95.4606 29.56C94.2606 31.16 92.9406 32.4933 91.5006 33.56C90.0873 34.6 88.7406 35.2667 87.4606 35.56C85.6206 35.3467 84.1806 34.68 83.1406 33.56C82.1273 32.4133 81.6206 31.04 81.6206 29.44C81.6206 28.3467 81.7673 27.24 82.0606 26.12C82.3806 24.9733 82.8073 23.88 83.3406 22.84C83.9006 21.7733 84.5406 20.7733 85.2606 19.84C86.0073 18.9067 86.794 18.0933 87.6206 17.4C88.474 16.7067 89.3406 16.16 90.2206 15.76C91.1273 15.36 92.0206 15.16 92.9006 15.16C94.1273 15.32 95.274 16.08 96.3406 17.44ZM93.5806 18.76C92.8606 18.8667 92.114 19.16 91.3406 19.64C90.5673 20.12 89.834 20.76 89.1406 21.56C88.474 22.36 87.8606 23.2933 87.3006 24.36C86.7406 25.4267 86.3006 26.5733 85.9806 27.8C88.114 26.7333 89.8873 25.4267 91.3006 23.88C92.714 22.3067 93.474 20.6 93.5806 18.76ZM97.2325 33.2C97.3658 32.4267 97.5925 31.4133 97.9125 30.16C98.2592 28.88 98.6592 27.5333 99.1125 26.12C99.5658 24.68 100.046 23.24 100.553 21.8C101.059 20.36 101.553 19.0667 102.033 17.92C102.379 17.0933 102.686 16.4533 102.953 16C103.219 15.52 103.513 15.12 103.833 14.8C104.206 14.8533 104.593 14.9467 104.993 15.08C105.393 15.2133 105.779 15.3733 106.153 15.56C106.526 15.7467 106.859 15.9467 107.153 16.16C107.446 16.3467 107.673 16.5333 107.833 16.72C107.113 17.5733 106.473 18.5467 105.913 19.64C105.379 20.7333 104.833 22.1333 104.273 23.84C105.713 22.56 106.979 21.3333 108.073 20.16C109.193 18.9867 110.233 17.68 111.193 16.24C111.353 16.1067 111.633 16.04 112.033 16.04C112.406 16.04 112.766 16.1067 113.113 16.24C113.459 16.3467 113.699 16.5067 113.833 16.72C113.353 18 113.113 19.2667 113.113 20.52C113.113 21.6933 113.286 22.5733 113.633 23.16C113.606 23.32 113.419 23.6267 113.073 24.08C112.753 24.5333 112.393 24.96 111.993 25.36C111.273 24.9867 110.633 24.48 110.073 23.84C109.513 23.1733 109.099 22.4533 108.833 21.68C107.579 22.56 106.513 23.4267 105.633 24.28C104.753 25.1067 103.993 26.04 103.353 27.08C102.739 28.0933 102.206 29.2667 101.753 30.6C101.326 31.9333 100.913 33.52 100.513 35.36C100.273 35.3333 99.9792 35.24 99.6325 35.08C99.3125 34.9467 98.9792 34.7733 98.6325 34.56C98.3125 34.3467 98.0192 34.12 97.7525 33.88C97.4858 33.64 97.3125 33.4133 97.2325 33.2ZM129.365 27.8C128.752 29.7467 128.139 31.52 127.525 33.12C126.912 34.72 126.259 36.1867 125.565 37.52C124.872 38.88 124.125 40.12 123.325 41.24C122.525 42.3867 121.645 43.4667 120.685 44.48C119.459 45.76 118.192 46.7333 116.885 47.4C115.579 48.0933 114.272 48.44 112.965 48.44C112.299 48.44 111.632 48.36 110.965 48.2C110.325 48.0667 109.725 47.8667 109.165 47.6C108.579 47.36 108.072 47.0667 107.645 46.72C107.192 46.4 106.872 46.0533 106.685 45.68C106.685 45.36 106.872 45.08 107.245 44.84C107.565 45.1333 107.832 45.36 108.045 45.52C108.259 45.68 108.472 45.8133 108.685 45.92C108.872 46.0267 109.085 46.0933 109.325 46.12C109.539 46.1467 109.792 46.16 110.085 46.16C111.605 46.16 113.085 45.7067 114.525 44.8C115.992 43.92 117.365 42.6533 118.645 41C119.952 39.3733 121.139 37.3867 122.205 35.04C123.272 32.72 124.179 30.12 124.925 27.24C124.579 27.7733 124.152 28.4267 123.645 29.2C123.139 29.9733 122.579 30.7467 121.965 31.52C121.352 32.2667 120.712 32.9467 120.045 33.56C119.405 34.1733 118.779 34.5867 118.165 34.8C117.739 34.7733 117.285 34.68 116.805 34.52C116.352 34.3867 115.912 34.1867 115.485 33.92C115.085 33.6533 114.725 33.3333 114.405 32.96C114.085 32.5867 113.872 32.16 113.765 31.68C113.765 30.9067 113.792 30.2933 113.845 29.84C113.899 29.36 113.992 28.84 114.125 28.28C114.365 27.2667 114.712 26.12 115.165 24.84C115.645 23.56 116.192 22.3067 116.805 21.08C117.445 19.8267 118.139 18.6667 118.885 17.6C119.659 16.5067 120.459 15.6533 121.285 15.04C121.499 15.04 121.765 15.0667 122.085 15.12C122.405 15.1467 122.739 15.2133 123.085 15.32C123.432 15.4267 123.765 15.56 124.085 15.72C124.405 15.8533 124.685 16.04 124.925 16.28C124.632 16.5467 123.992 17.44 123.005 18.96C122.019 20.48 120.925 22.6667 119.725 25.52C119.592 25.8133 119.432 26.24 119.245 26.8C119.059 27.36 118.872 27.9467 118.685 28.56C118.525 29.1733 118.379 29.7733 118.245 30.36C118.112 30.9467 118.045 31.4133 118.045 31.76C118.045 31.9733 118.072 32.1333 118.125 32.24C118.205 32.3467 118.272 32.4267 118.325 32.48C118.805 32.4 119.445 32.0133 120.245 31.32C121.045 30.6 121.952 29.4933 122.965 28C123.605 27.04 124.192 26.0933 124.725 25.16C125.259 24.2 125.779 23.24 126.285 22.28C126.819 21.32 127.365 20.3333 127.925 19.32C128.485 18.3067 129.085 17.2667 129.725 16.2C130.072 16.2 130.445 16.24 130.845 16.32C131.245 16.4 131.632 16.5067 132.005 16.64C132.379 16.7467 132.699 16.88 132.965 17.04C133.259 17.1733 133.472 17.32 133.605 17.48C132.779 19.24 132.005 20.96 131.285 22.64C130.565 24.32 129.925 26.04 129.365 27.8Z" fill="#6FDCF6"/>
</svg>
