<svg xmlns:xlink="http://www.w3.org/1999/xlink" width="168" height="49" class="mx-auto" viewBox="0 0 168 49" fill="none" xmlns="http://www.w3.org/2000/svg" data-v-1afa2a7a=""><path d="M0.720001 31.92C1.12 31.04 1.6 29.9067 2.16 28.52C2.72 27.1333 3.30667 25.64 3.92 24.04C4.53333 22.4133 5.16 20.76 5.8 19.08C6.44 17.3733 7.04 15.76 7.6 14.24C8.16 12.72 8.64 11.36 9.04 10.16C9.46667 8.96 9.77333 8.04 9.96 7.4C8.28 8.09333 6.84 9.14666 5.64 10.56C4.44 11.9733 3.53333 13.7467 2.92 15.88C2.30667 15.6667 1.74667 15.2933 1.24 14.76C0.733333 14.2 0.4 13.5067 0.24 12.68C0.506667 11.4533 1 10.3333 1.72 9.32C2.46667 8.30667 3.4 7.44 4.52 6.72C5.64 6 6.93333 5.45333 8.4 5.08C9.86667 4.68 11.44 4.48 13.12 4.48C15.2533 4.48 17.2133 4.8 19 5.44C20.7867 6.05333 22.32 6.92 23.6 8.04C24.88 9.16 25.88 10.5067 26.6 12.08C27.32 13.6533 27.68 15.4 27.68 17.32C27.68 19.9333 27.2 22.4267 26.24 24.8C25.28 27.1733 23.9733 29.2667 22.32 31.08C20.6933 32.8933 18.8 34.3333 16.64 35.4C14.48 36.4933 12.2133 37.04 9.84 37.04C7.65333 37.04 5.77333 36.6 4.2 35.72C2.65333 34.8667 1.49333 33.6 0.720001 31.92ZM14.84 6.48C13.5067 6.48 12.24 6.66667 11.04 7.04C12.2133 7.46666 13.1867 7.92 13.96 8.4C14.7333 8.85333 15.2667 9.21333 15.56 9.48C15.3467 9.77333 15.0267 10.2933 14.6 11.04C14.2 11.7867 13.72 12.6933 13.16 13.76C12.6267 14.8267 12.0533 16 11.44 17.28C10.8267 18.5333 10.2267 19.8267 9.64 21.16C8.12 24.5467 7.01333 27.2133 6.32 29.16C5.65333 31.1067 5.32 32.4533 5.32 33.2C5.69333 33.3333 6.14667 33.4267 6.68 33.48C7.21333 33.5333 7.78667 33.56 8.4 33.56C10.56 33.56 12.6 33.0667 14.52 32.08C16.4667 31.0667 18.16 29.72 19.6 28.04C21.0667 26.36 22.2133 24.4133 23.04 22.2C23.8933 19.96 24.32 17.6133 24.32 15.16C24.32 12.4133 23.4667 10.28 21.76 8.76C20.0533 7.24 17.7467 6.48 14.84 6.48ZM33.5375 35.4C32.0175 35.24 30.8042 34.5733 29.8975 33.4C28.9908 32.2267 28.5375 30.7333 28.5375 28.92C28.5375 27.8533 28.6975 26.7467 29.0175 25.6C29.3375 24.4533 29.7908 23.3467 30.3775 22.28C30.9642 21.1867 31.6575 20.16 32.4575 19.2C33.2575 18.24 34.1242 17.4133 35.0575 16.72C36.5242 15.6267 37.8975 15.08 39.1775 15.08C40.0308 15.5333 40.8708 16.48 41.6975 17.92C41.8308 17.92 41.9508 17.92 42.0575 17.92C42.1642 17.8933 42.2842 17.88 42.4175 17.88C43.8308 17.88 44.5375 19.1333 44.5375 21.64C44.5375 23.32 44.2575 24.92 43.6975 26.44C43.1642 27.9333 42.4042 29.2933 41.4175 30.52C40.4575 31.7467 39.2975 32.7867 37.9375 33.64C36.6042 34.4667 35.1375 35.0533 33.5375 35.4ZM35.5775 22.8C35.1242 23.4133 34.6975 24.08 34.2975 24.8C33.8975 25.52 33.5508 26.2533 33.2575 27C32.9642 27.72 32.7375 28.4267 32.5775 29.12C32.4175 29.7867 32.3375 30.3867 32.3375 30.92C32.3375 31.56 32.4442 32.1733 32.6575 32.76C32.8708 33.3467 33.1108 33.68 33.3775 33.76C34.5775 33.4933 35.6708 33 36.6575 32.28C37.6708 31.5333 38.5375 30.6133 39.2575 29.52C40.0042 28.4267 40.5775 27.1867 40.9775 25.8C41.4042 24.4133 41.6175 22.9333 41.6175 21.36C41.6175 20.6667 41.5775 20.12 41.4975 19.72C41.4175 19.32 41.2842 18.9733 41.0975 18.68C39.9242 19.0267 38.8708 19.5867 37.9375 20.36C37.0308 21.1333 36.2442 21.9467 35.5775 22.8ZM38.3937 45.92C38.3937 45.76 38.4471 45.6133 38.5537 45.48C38.6604 45.3467 38.7804 45.2133 38.9137 45.08C39.2337 45.3733 39.5137 45.6 39.7537 45.76C39.9671 45.92 40.1804 46.0533 40.3937 46.16C40.5804 46.2667 40.7804 46.3333 40.9937 46.36C41.2071 46.3867 41.4604 46.4 41.7537 46.4C43.1404 46.4 44.4604 46.0267 45.7138 45.28C46.9671 44.56 48.1404 43.5067 49.2338 42.12C50.3538 40.7333 51.3671 39.04 52.2738 37.04C53.1804 35.04 53.9804 32.7733 54.6738 30.24C54.3538 30.56 53.9538 30.92 53.4738 31.32C53.0204 31.6933 52.5404 32.0533 52.0338 32.4C51.5271 32.7467 51.0204 33.0667 50.5138 33.36C50.0338 33.6533 49.6204 33.8667 49.2738 34C48.8204 33.92 48.3938 33.7333 47.9938 33.44C47.6204 33.12 47.2871 32.7333 46.9938 32.28C46.7004 31.8267 46.4738 31.32 46.3138 30.76C46.1538 30.1733 46.0738 29.56 46.0738 28.92C46.0738 27.88 46.2604 26.8133 46.6338 25.72C47.0338 24.6267 47.5538 23.56 48.1938 22.52C48.8338 21.4533 49.5804 20.4533 50.4338 19.52C51.3138 18.5867 52.2338 17.7733 53.1938 17.08C54.1804 16.3867 55.1671 15.84 56.1538 15.44C57.1671 15.0133 58.1538 14.8 59.1138 14.8C60.0471 14.8 60.7404 15 61.1938 15.4C61.6738 15.7733 62.0204 16.4267 62.2338 17.36C61.9404 17.2 61.5671 17.12 61.1138 17.12C60.4738 17.12 59.7271 17.3733 58.8738 17.88C58.0471 18.3867 57.1938 19.0533 56.3138 19.88C55.4604 20.68 54.6071 21.6133 53.7538 22.68C52.9004 23.72 52.1404 24.7867 51.4738 25.88C50.8338 26.9733 50.3004 28.04 49.8738 29.08C49.4738 30.12 49.2738 31.0533 49.2738 31.88C49.2738 32.0667 49.2871 32.1867 49.3138 32.24C49.3404 32.2667 49.3804 32.28 49.4338 32.28C49.6738 32.28 49.9938 32.1467 50.3938 31.88C50.8204 31.6133 51.2871 31.28 51.7938 30.88C52.3271 30.4533 52.8738 29.9733 53.4338 29.44C53.9938 28.88 54.5271 28.32 55.0338 27.76C56.1804 26.48 57.2204 25.0533 58.1538 23.48C59.1138 21.88 59.8738 20.3333 60.4338 18.84C61.1538 18.8933 61.7938 19.0133 62.3538 19.2C62.9138 19.3867 63.3004 19.5867 63.5138 19.8C62.6071 21.88 61.8738 23.6267 61.3138 25.04C60.7804 26.4533 60.3138 27.7067 59.9138 28.8C59.1938 30.72 58.5138 32.4667 57.8738 34.04C57.2604 35.64 56.6204 37.1067 55.9538 38.44C55.3138 39.8 54.6071 41.0533 53.8338 42.2C53.0871 43.3733 52.2338 44.4933 51.2738 45.56C50.8204 46.0667 50.3004 46.5067 49.7138 46.88C49.1538 47.28 48.5671 47.6133 47.9538 47.88C47.3671 48.1467 46.7804 48.3467 46.1938 48.48C45.6338 48.6133 45.1138 48.68 44.6338 48.68C43.9938 48.68 43.3404 48.6 42.6738 48.44C42.0071 48.3067 41.3937 48.1067 40.8337 47.84C40.2471 47.6 39.7404 47.3067 39.3137 46.96C38.8871 46.64 38.5804 46.2933 38.3937 45.92ZM78.2816 17.84C78.5482 17.84 78.8549 17.8933 79.2016 18C79.5749 18.08 79.9082 18.2 80.2016 18.36C80.4949 18.4933 80.7349 18.64 80.9216 18.8C81.1349 18.96 81.2416 19.1067 81.2416 19.24C80.7082 20.36 80.2149 21.4933 79.7616 22.64C79.3082 23.76 78.9216 24.84 78.6016 25.88C78.2816 26.92 78.0282 27.8933 77.8416 28.8C77.6816 29.7067 77.6016 30.4933 77.6016 31.16C77.6016 31.9067 77.6816 32.5333 77.8416 33.04C78.0016 33.52 78.2682 33.8667 78.6416 34.08C78.3216 34.2933 77.9082 34.4667 77.4016 34.6C76.8949 34.7333 76.4416 34.8 76.0416 34.8C74.6016 34.8 73.8816 33.8133 73.8816 31.84C73.8816 30.32 74.3882 28.24 75.4016 25.6C74.8682 26.8267 74.2549 27.9867 73.5616 29.08C72.8682 30.1467 72.1616 31.0933 71.4416 31.92C70.7216 32.7467 69.9882 33.4267 69.2416 33.96C68.5216 34.4667 67.8549 34.7733 67.2416 34.88C66.2549 34.8267 65.4549 34.36 64.8416 33.48C64.2282 32.5733 63.9216 31.4267 63.9216 30.04C63.9216 28.5467 64.2416 26.9733 64.8816 25.32C65.5216 23.6667 66.3349 22.1333 67.3216 20.72C68.3349 19.3067 69.4282 18.1333 70.6016 17.2C71.7749 16.24 72.9082 15.7333 74.0016 15.68C74.2682 15.76 74.5616 15.92 74.8816 16.16C75.2282 16.4 75.5482 16.68 75.8416 17C76.1616 17.32 76.4282 17.6533 76.6416 18C76.8549 18.32 76.9749 18.6 77.0016 18.84C75.9349 19 74.8282 19.52 73.6816 20.4C72.5616 21.28 71.5349 22.3467 70.6016 23.6C69.6949 24.8267 68.9482 26.1467 68.3616 27.56C67.7749 28.9733 67.4816 30.2933 67.4816 31.52C67.4816 32.0267 67.6682 32.3467 68.0416 32.48C68.8149 32.32 69.7082 31.6667 70.7216 30.52C71.7349 29.3467 72.9616 27.5467 74.4016 25.12C74.6682 24.64 74.9616 24.1067 75.2816 23.52C75.6282 22.9333 75.9749 22.32 76.3216 21.68C76.6682 21.04 77.0016 20.4 77.3216 19.76C77.6682 19.0933 77.9882 18.4533 78.2816 17.84ZM88.5144 7C89.7144 7.08 90.9544 7.12 92.2344 7.12C91.6744 6.08 90.9944 4.92 90.1944 3.64C90.2744 3.4 90.4477 3.12 90.7144 2.8C91.0077 2.48 91.3277 2.18666 91.6744 1.92C92.0477 1.62667 92.421 1.37333 92.7944 1.16C93.1944 0.946665 93.5677 0.813331 93.9144 0.759999C94.581 1.50667 95.2077 2.41333 95.7944 3.48C96.4077 4.52 96.9544 5.66667 97.4344 6.92C98.1544 6.84 98.8477 6.76 99.5144 6.68C100.208 6.57333 100.874 6.45333 101.514 6.32C101.728 6.66667 101.914 7.2 102.074 7.92C102.261 8.61333 102.354 9.24 102.354 9.8C101.714 9.88 101.074 9.94666 100.434 10C99.7944 10.0267 99.141 10.0667 98.4744 10.12C98.7677 11.24 98.9944 12.36 99.1544 13.48C99.3144 14.5733 99.3944 15.6267 99.3944 16.64C99.3944 18.0267 99.2344 19.4533 98.9144 20.92C98.621 22.3867 98.1944 23.8267 97.6344 25.24C97.101 26.6267 96.4744 27.9467 95.7544 29.2C95.0344 30.4533 94.2477 31.5733 93.3944 32.56C92.5677 33.5467 91.701 34.3467 90.7944 34.96C89.8877 35.6 88.981 36 88.0744 36.16C86.2344 35.9467 84.821 35.3467 83.8344 34.36C82.8744 33.4 82.3944 32.0667 82.3944 30.36C82.3944 29.4533 82.5277 28.4667 82.7944 27.4C83.0877 26.3333 83.461 25.28 83.9144 24.24C84.3944 23.1733 84.941 22.1467 85.5544 21.16C86.1944 20.1467 86.861 19.24 87.5544 18.44C88.2744 17.64 88.9944 16.96 89.7144 16.4C90.4344 15.84 91.141 15.48 91.8344 15.32C92.3677 15.32 92.981 15.48 93.6744 15.8C94.3677 16.12 94.981 16.5333 95.5144 17.04C95.381 15.8133 95.181 14.6667 94.9144 13.6C94.6744 12.5333 94.2877 11.3867 93.7544 10.16C91.621 10.08 89.8477 9.90667 88.4344 9.64C88.461 9.37333 88.4744 9.05333 88.4744 8.68C88.501 8.30667 88.5144 7.74667 88.5144 7ZM87.7544 34.56C88.6877 34.24 89.621 33.5333 90.5544 32.44C91.4877 31.3467 92.3277 30.0667 93.0744 28.6C93.821 27.1067 94.421 25.52 94.8744 23.84C95.3544 22.1333 95.5944 20.4933 95.5944 18.92C95.5944 18.4667 95.5944 18.1867 95.5944 18.08C95.5944 17.9733 95.581 17.8667 95.5544 17.76C94.9144 18.0267 94.2344 18.48 93.5144 19.12C92.7944 19.76 92.0744 20.5067 91.3544 21.36C90.6344 22.1867 89.9544 23.0933 89.3144 24.08C88.6744 25.0667 88.101 26.0533 87.5944 27.04C87.0877 28.0267 86.6877 28.9733 86.3944 29.88C86.101 30.7867 85.9544 31.5867 85.9544 32.28C85.9544 33.6133 86.5544 34.3733 87.7544 34.56ZM114.219 17.84C114.486 17.84 114.792 17.8933 115.139 18C115.512 18.08 115.846 18.2 116.139 18.36C116.432 18.4933 116.672 18.64 116.859 18.8C117.072 18.96 117.179 19.1067 117.179 19.24C116.646 20.36 116.152 21.4933 115.699 22.64C115.246 23.76 114.859 24.84 114.539 25.88C114.219 26.92 113.966 27.8933 113.779 28.8C113.619 29.7067 113.539 30.4933 113.539 31.16C113.539 31.9067 113.619 32.5333 113.779 33.04C113.939 33.52 114.206 33.8667 114.579 34.08C114.259 34.2933 113.846 34.4667 113.339 34.6C112.832 34.7333 112.379 34.8 111.979 34.8C110.539 34.8 109.819 33.8133 109.819 31.84C109.819 30.32 110.326 28.24 111.339 25.6C110.806 26.8267 110.192 27.9867 109.499 29.08C108.806 30.1467 108.099 31.0933 107.379 31.92C106.659 32.7467 105.926 33.4267 105.179 33.96C104.459 34.4667 103.792 34.7733 103.179 34.88C102.192 34.8267 101.392 34.36 100.779 33.48C100.166 32.5733 99.8591 31.4267 99.8591 30.04C99.8591 28.5467 100.179 26.9733 100.819 25.32C101.459 23.6667 102.272 22.1333 103.259 20.72C104.272 19.3067 105.366 18.1333 106.539 17.2C107.712 16.24 108.846 15.7333 109.939 15.68C110.206 15.76 110.499 15.92 110.819 16.16C111.166 16.4 111.486 16.68 111.779 17C112.099 17.32 112.366 17.6533 112.579 18C112.792 18.32 112.912 18.6 112.939 18.84C111.872 19 110.766 19.52 109.619 20.4C108.499 21.28 107.472 22.3467 106.539 23.6C105.632 24.8267 104.886 26.1467 104.299 27.56C103.712 28.9733 103.419 30.2933 103.419 31.52C103.419 32.0267 103.606 32.3467 103.979 32.48C104.752 32.32 105.646 31.6667 106.659 30.52C107.672 29.3467 108.899 27.5467 110.339 25.12C110.606 24.64 110.899 24.1067 111.219 23.52C111.566 22.9333 111.912 22.32 112.259 21.68C112.606 21.04 112.939 20.4 113.259 19.76C113.606 19.0933 113.926 18.4533 114.219 17.84ZM125.688 14.6C126.381 14.8133 127.035 15.2933 127.648 16.04C128.261 16.76 128.715 17.56 129.008 18.44C128.715 19.16 128.261 20.0267 127.648 21.04C127.035 22.0533 126.421 23.0933 125.808 24.16C125.195 25.2 124.635 26.2 124.128 27.16C123.648 28.0933 123.368 28.8667 123.288 29.48C123.715 29.0267 124.181 28.5067 124.688 27.92C125.221 27.3067 125.728 26.7067 126.208 26.12C126.715 25.5067 127.181 24.96 127.608 24.48C128.035 23.9733 128.368 23.6 128.608 23.36C129.115 22.8267 129.715 22.2133 130.408 21.52C131.101 20.8 131.821 20.1333 132.568 19.52C133.341 18.88 134.115 18.3467 134.888 17.92C135.661 17.4667 136.368 17.24 137.008 17.24C137.701 17.24 138.275 17.48 138.728 17.96C139.208 18.4133 139.581 18.8933 139.848 19.4C139.848 19.4533 139.741 19.5333 139.528 19.64C139.341 19.72 139.061 19.9733 138.688 20.4C138.315 20.88 137.888 21.5467 137.408 22.4C136.955 23.2267 136.501 24.1333 136.048 25.12C135.621 26.08 135.261 27.0667 134.968 28.08C134.675 29.0933 134.528 30.0133 134.528 30.84C134.528 31.5067 134.608 31.9333 134.768 32.12C134.955 32.3067 135.208 32.4 135.528 32.4C135.821 32.4 136.128 32.3333 136.448 32.2C136.768 32.0667 137.021 32 137.208 32C137.315 32.0533 137.395 32.1733 137.448 32.36C137.528 32.52 137.568 32.6667 137.568 32.8C137.355 32.9867 137.101 33.1733 136.808 33.36C136.515 33.5467 136.208 33.72 135.888 33.88C135.568 34.04 135.248 34.1733 134.928 34.28C134.635 34.3867 134.368 34.44 134.128 34.44C133.355 34.44 132.715 34.32 132.208 34.08C131.728 33.8667 131.341 33.5733 131.048 33.2C130.781 32.8267 130.595 32.3867 130.488 31.88C130.381 31.3467 130.328 30.7867 130.328 30.2C130.328 29.88 130.355 29.52 130.408 29.12C130.461 28.72 130.568 28.2533 130.728 27.72C130.888 27.16 131.115 26.5067 131.408 25.76C131.701 24.9867 132.075 24.0667 132.528 23C132.475 23 132.115 23.1867 131.448 23.56C130.781 23.9333 130.061 24.5067 129.288 25.28C128.035 26.48 126.901 27.6667 125.888 28.84C124.901 30.0133 123.888 31.32 122.848 32.76C122.261 33.5867 121.741 34.28 121.288 34.84C120.861 35.4267 120.488 35.8133 120.168 36C119.608 35.68 119.195 35.2267 118.928 34.64C118.661 34.08 118.461 33.4933 118.328 32.88C118.328 32.3733 118.395 31.7333 118.528 30.96C118.688 30.1867 118.888 29.3333 119.128 28.4C119.395 27.44 119.715 26.44 120.088 25.4C120.461 24.36 120.875 23.32 121.328 22.28C122.341 19.9333 123.261 18.0933 124.088 16.76C124.941 15.4267 125.475 14.7067 125.688 14.6ZM141.69 26.52C142.676 22.5733 143.636 19.6933 144.57 17.88C145.53 16.04 146.53 15.12 147.57 15.12C148.316 15.12 149.21 15.48 150.25 16.2C149.396 17.72 148.73 18.9867 148.25 20C147.796 20.9867 147.463 21.8933 147.25 22.72C146.796 24.32 146.316 25.9867 145.81 27.72C145.303 29.4267 144.796 31.0667 144.29 32.64C143.81 34.2133 143.356 35.6267 142.93 36.88C142.53 38.16 142.21 39.1333 141.97 39.8C141.383 41.3733 140.796 42.7067 140.21 43.8C139.65 44.8933 139.063 45.7867 138.45 46.48C137.836 47.1733 137.196 47.68 136.53 48C135.836 48.32 135.09 48.48 134.29 48.48C133.703 48.48 133.13 48.4133 132.57 48.28C131.983 48.1733 131.436 48.0133 130.93 47.8C130.423 47.6133 129.97 47.3733 129.57 47.08C129.17 46.7867 128.85 46.48 128.61 46.16C128.636 45.9733 128.73 45.7867 128.89 45.6C129.023 45.44 129.156 45.3467 129.29 45.32C129.743 45.8 130.223 46.1467 130.73 46.36C131.21 46.5733 131.796 46.68 132.49 46.68C133.343 46.68 134.103 46.4267 134.77 45.92C135.41 45.4133 136.063 44.4267 136.73 42.96C137.396 41.52 138.116 39.48 138.89 36.84C139.663 34.2267 140.596 30.7867 141.69 26.52ZM148.21 11.96C148.21 11.8267 148.25 11.6 148.33 11.28C148.01 10.96 147.85 10.5067 147.85 9.92C147.85 9.68 147.876 9.34667 147.93 8.92C148.01 8.49333 148.103 8.04 148.21 7.56C148.343 7.05333 148.476 6.54667 148.61 6.04C148.77 5.53333 148.93 5.09333 149.09 4.72C149.41 4.72 149.796 4.81333 150.25 5C150.73 5.16 151.21 5.38667 151.69 5.68C152.17 5.94667 152.61 6.25333 153.01 6.6C153.41 6.92 153.716 7.22666 153.93 7.52C153.61 7.81333 153.21 8.22667 152.73 8.76C152.25 9.29333 151.783 9.85333 151.33 10.44C150.876 11 150.463 11.5333 150.09 12.04C149.716 12.52 149.49 12.8667 149.41 13.08C149.09 13.0267 148.81 12.8933 148.57 12.68C148.33 12.44 148.21 12.2 148.21 11.96ZM164.063 17.84C164.329 17.84 164.636 17.8933 164.983 18C165.356 18.08 165.689 18.2 165.983 18.36C166.276 18.4933 166.516 18.64 166.703 18.8C166.916 18.96 167.023 19.1067 167.023 19.24C166.489 20.36 165.996 21.4933 165.543 22.64C165.089 23.76 164.703 24.84 164.383 25.88C164.063 26.92 163.809 27.8933 163.623 28.8C163.463 29.7067 163.383 30.4933 163.383 31.16C163.383 31.9067 163.463 32.5333 163.623 33.04C163.783 33.52 164.049 33.8667 164.423 34.08C164.103 34.2933 163.689 34.4667 163.183 34.6C162.676 34.7333 162.223 34.8 161.823 34.8C160.383 34.8 159.663 33.8133 159.663 31.84C159.663 30.32 160.169 28.24 161.183 25.6C160.649 26.8267 160.036 27.9867 159.343 29.08C158.649 30.1467 157.943 31.0933 157.223 31.92C156.503 32.7467 155.769 33.4267 155.023 33.96C154.303 34.4667 153.636 34.7733 153.023 34.88C152.036 34.8267 151.236 34.36 150.623 33.48C150.009 32.5733 149.703 31.4267 149.703 30.04C149.703 28.5467 150.023 26.9733 150.663 25.32C151.303 23.6667 152.116 22.1333 153.103 20.72C154.116 19.3067 155.209 18.1333 156.383 17.2C157.556 16.24 158.689 15.7333 159.783 15.68C160.049 15.76 160.343 15.92 160.663 16.16C161.009 16.4 161.329 16.68 161.623 17C161.943 17.32 162.209 17.6533 162.423 18C162.636 18.32 162.756 18.6 162.783 18.84C161.716 19 160.609 19.52 159.463 20.4C158.343 21.28 157.316 22.3467 156.383 23.6C155.476 24.8267 154.729 26.1467 154.143 27.56C153.556 28.9733 153.263 30.2933 153.263 31.52C153.263 32.0267 153.449 32.3467 153.823 32.48C154.596 32.32 155.489 31.6667 156.503 30.52C157.516 29.3467 158.743 27.5467 160.183 25.12C160.449 24.64 160.743 24.1067 161.063 23.52C161.409 22.9333 161.756 22.32 162.103 21.68C162.449 21.04 162.783 20.4 163.103 19.76C163.449 19.0933 163.769 18.4533 164.063 17.84Z" fill="#6FDCF6" data-v-1afa2a7a=""></path></svg>