<svg width="107" height="35" viewBox="0 0 107 35" fill="none" xmlns="http://www.w3.org/2000/svg">
<path d="M16.56 12.96C17.44 12.96 18.12 13.2 18.6 13.68C19.1067 14.16 19.36 14.8267 19.36 15.68C19.36 15.8933 19.3333 16.12 19.28 16.36C19.2533 16.5733 19.2133 16.76 19.16 16.92C18.8133 16.8667 18.4267 16.8267 18 16.8C17.5733 16.7467 17.0667 16.72 16.48 16.72C15.3333 16.72 14.1733 16.8267 13 17.04C11.8267 17.2267 10.7067 17.3867 9.64 17.52C9.02667 18.9333 8.46667 20.3067 7.96 21.64C7.45333 22.9467 7.01333 24.1467 6.64 25.24C6.29333 26.3333 6.01333 27.28 5.8 28.08C5.61333 28.88 5.50667 29.48 5.48 29.88C7.64 29.4267 9.81333 29.04 12 28.72C14.2133 28.4 16.5333 28.16 18.96 28C19.2533 28.4533 19.4933 28.9467 19.68 29.48C19.8933 30.0133 20 30.5867 20 31.2C20 31.36 20 31.5333 20 31.72C20 31.9067 19.9733 32.0933 19.92 32.28C19.1733 32.2533 18.3867 32.2267 17.56 32.2C16.7333 32.2 15.6533 32.2 14.32 32.2C13.44 32.2 12.6 32.2133 11.8 32.24C11.0267 32.2933 10.24 32.36 9.44 32.44C8.64 32.52 7.78667 32.6267 6.88 32.76C6 32.8933 5 33.0533 3.88 33.24C2.65333 32.76 1.46667 31.5867 0.32 29.72C0.773333 28.76 1.4 27.3067 2.2 25.36C3.02667 23.3867 4.06667 20.76 5.32 17.48C4.12 17.1067 3.33333 16.44 2.96 15.48C3.09333 15.3467 3.48 15.1867 4.12 15C4.76 14.7867 5.54667 14.5733 6.48 14.36C6.88 13.32 7.21333 12.4133 7.48 11.64C7.77333 10.8667 8.02667 10.1467 8.24 9.48C8.45333 8.78667 8.64 8.12 8.8 7.48C8.98667 6.81333 9.16 6.09333 9.32 5.32C8.38667 5.26667 7.65333 5.01333 7.12 4.56C6.58667 4.08 6.32 3.46666 6.32 2.72C6.32 2.50666 6.34667 2.25333 6.4 1.96C6.48 1.66667 6.56 1.41333 6.64 1.2C7.17333 1.28 7.68 1.33333 8.16 1.36C8.66667 1.38667 9.32 1.4 10.12 1.4C11.8 1.4 13.3733 1.36 14.84 1.28C16.3067 1.17333 17.6267 1.06666 18.8 0.96C20 0.853333 21.0267 0.759999 21.88 0.679998C22.7333 0.573332 23.3867 0.519998 23.84 0.519998C24.4533 0.519998 25 0.839998 25.48 1.48C25.96 2.12 26.32 3.02667 26.56 4.2C25.7333 4.12 25.0533 4.06667 24.52 4.04C24.0133 4.01333 23.56 4 23.16 4C21.6933 4 20.3467 4.08 19.12 4.24C17.92 4.37333 16.76 4.52 15.64 4.68C15.48 4.92 15.2933 5.22667 15.08 5.6C14.8933 5.97333 14.64 6.49333 14.32 7.16C14 7.82667 13.6 8.66667 13.12 9.68C12.6667 10.6933 12.1067 11.96 11.44 13.48C12.4533 13.32 13.4 13.2 14.28 13.12C15.1867 13.0133 15.9467 12.96 16.56 12.96ZM25.4784 15.84C25.4784 15.36 25.5051 14.9067 25.5584 14.48C25.6384 14.0533 25.7851 13.6933 25.9984 13.4C26.2118 13.08 26.5051 12.84 26.8784 12.68C27.2518 12.4933 27.7451 12.4 28.3584 12.4C28.7318 12.4 29.1451 12.44 29.5984 12.52C30.0784 12.6 30.4251 12.7467 30.6384 12.96C30.5318 13.4133 30.4384 13.8133 30.3584 14.16C30.3051 14.5067 30.2518 14.8933 30.1984 15.32C30.1718 15.72 30.1451 16.2133 30.1184 16.8C30.0918 17.36 30.0651 18.0933 30.0384 19C29.9851 20.8133 29.8918 22.44 29.7584 23.88C29.6518 25.2933 29.3851 26.7067 28.9584 28.12C28.9584 28.2267 28.9984 28.28 29.0784 28.28C29.4784 27.9867 29.9318 27.56 30.4384 27C30.9451 26.44 31.4784 25.8133 32.0384 25.12C32.5984 24.4 33.1584 23.64 33.7184 22.84C34.2784 22.04 34.7984 21.2533 35.2784 20.48C35.9184 19.36 36.6251 17.96 37.3984 16.28C38.1718 14.6 38.8118 12.8 39.3184 10.88C39.4784 10.88 39.6784 10.92 39.9184 11C40.1851 11.0533 40.4384 11.1333 40.6784 11.24C40.9451 11.32 41.1718 11.4133 41.3584 11.52C41.5718 11.6267 41.7184 11.72 41.7984 11.8C41.7451 12.9467 41.4651 14.12 40.9584 15.32C40.4784 16.52 39.8918 17.68 39.1984 18.8C38.5051 19.92 37.7718 20.9733 36.9984 21.96C36.2251 22.9467 35.5184 23.8 34.8784 24.52C33.5984 26.0133 32.3051 27.3467 30.9984 28.52C29.7184 29.6933 28.1851 30.8267 26.3984 31.92C25.7051 31.6533 25.1584 31.2933 24.7584 30.84C24.3584 30.4133 24.1584 29.96 24.1584 29.48C24.1584 29.16 24.2251 28.8 24.3584 28.4C24.5184 27.9733 24.6918 27.44 24.8784 26.8C25.0651 26.1333 25.2251 25.3067 25.3584 24.32C25.5184 23.3333 25.5984 22.08 25.5984 20.56C25.5984 19.68 25.5718 18.8 25.5184 17.92C25.4918 17.0133 25.4784 16.32 25.4784 15.84ZM55.5281 13.44C55.4215 15.0933 55.1281 16.52 54.6481 17.72C54.1681 18.8933 53.4748 19.9333 52.5681 20.84C51.6881 21.72 50.6081 22.52 49.3281 23.24C48.0481 23.96 46.5548 24.6533 44.8481 25.32C44.8481 25.48 44.8348 25.6533 44.8081 25.84C44.8081 26 44.8081 26.1733 44.8081 26.36C44.8081 26.7067 44.8348 27.0667 44.8881 27.44C44.9415 27.8133 45.0348 28.16 45.1681 28.48C45.3015 28.8 45.4881 29.0667 45.7281 29.28C45.9681 29.4667 46.2748 29.56 46.6481 29.56C47.3681 29.56 48.0748 29.4 48.7681 29.08C49.4615 28.76 50.1148 28.3733 50.7281 27.92C51.3681 27.44 51.9548 26.9333 52.4881 26.4C53.0481 25.84 53.5415 25.3333 53.9681 24.88C54.2348 25.12 54.4615 25.3467 54.6481 25.56C53.4481 27.16 52.1281 28.4933 50.6881 29.56C49.2748 30.6 47.9281 31.2667 46.6481 31.56C44.8081 31.3467 43.3681 30.68 42.3281 29.56C41.3148 28.4133 40.8081 27.04 40.8081 25.44C40.8081 24.3467 40.9548 23.24 41.2481 22.12C41.5681 20.9733 41.9948 19.88 42.5281 18.84C43.0881 17.7733 43.7281 16.7733 44.4481 15.84C45.1948 14.9067 45.9815 14.0933 46.8081 13.4C47.6615 12.7067 48.5281 12.16 49.4081 11.76C50.3148 11.36 51.2081 11.16 52.0881 11.16C53.3148 11.32 54.4615 12.08 55.5281 13.44ZM52.7681 14.76C52.0481 14.8667 51.3015 15.16 50.5281 15.64C49.7548 16.12 49.0215 16.76 48.3281 17.56C47.6615 18.36 47.0481 19.2933 46.4881 20.36C45.9281 21.4267 45.4881 22.5733 45.1681 23.8C47.3015 22.7333 49.0748 21.4267 50.4881 19.88C51.9015 18.3067 52.6615 16.6 52.7681 14.76ZM63.86 10.6C64.5533 10.8133 65.2067 11.2933 65.82 12.04C66.4333 12.76 66.8867 13.56 67.18 14.44C66.8867 15.16 66.4333 16.0267 65.82 17.04C65.2067 18.0533 64.5933 19.0933 63.98 20.16C63.3667 21.2 62.8067 22.2 62.3 23.16C61.82 24.0933 61.54 24.8667 61.46 25.48C61.8867 25.0267 62.3533 24.5067 62.86 23.92C63.3933 23.3067 63.9 22.7067 64.38 22.12C64.8867 21.5067 65.3533 20.96 65.78 20.48C66.2067 19.9733 66.54 19.6 66.78 19.36C67.2867 18.8267 67.8867 18.2133 68.58 17.52C69.2733 16.8 69.9933 16.1333 70.74 15.52C71.5133 14.88 72.2867 14.3467 73.06 13.92C73.8333 13.4667 74.54 13.24 75.18 13.24C75.8733 13.24 76.4467 13.48 76.9 13.96C77.38 14.4133 77.7533 14.8933 78.02 15.4C78.02 15.4533 77.9133 15.5333 77.7 15.64C77.5133 15.72 77.2333 15.9733 76.86 16.4C76.4867 16.88 76.06 17.5467 75.58 18.4C75.1267 19.2267 74.6733 20.1333 74.22 21.12C73.7933 22.08 73.4333 23.0667 73.14 24.08C72.8467 25.0933 72.7 26.0133 72.7 26.84C72.7 27.5067 72.78 27.9333 72.94 28.12C73.1267 28.3067 73.38 28.4 73.7 28.4C73.9933 28.4 74.3 28.3333 74.62 28.2C74.94 28.0667 75.1933 28 75.38 28C75.4867 28.0533 75.5667 28.1733 75.62 28.36C75.7 28.52 75.74 28.6667 75.74 28.8C75.5267 28.9867 75.2733 29.1733 74.98 29.36C74.6867 29.5467 74.38 29.72 74.06 29.88C73.74 30.04 73.42 30.1733 73.1 30.28C72.8067 30.3867 72.54 30.44 72.3 30.44C71.5267 30.44 70.8867 30.32 70.38 30.08C69.9 29.8667 69.5133 29.5733 69.22 29.2C68.9533 28.8267 68.7667 28.3867 68.66 27.88C68.5533 27.3467 68.5 26.7867 68.5 26.2C68.5 25.88 68.5267 25.52 68.58 25.12C68.6333 24.72 68.74 24.2533 68.9 23.72C69.06 23.16 69.2867 22.5067 69.58 21.76C69.8733 20.9867 70.2467 20.0667 70.7 19C70.6467 19 70.2867 19.1867 69.62 19.56C68.9533 19.9333 68.2333 20.5067 67.46 21.28C66.2067 22.48 65.0733 23.6667 64.06 24.84C63.0733 26.0133 62.06 27.32 61.02 28.76C60.4333 29.5867 59.9133 30.28 59.46 30.84C59.0333 31.4267 58.66 31.8133 58.34 32C57.78 31.68 57.3667 31.2267 57.1 30.64C56.8333 30.08 56.6333 29.4933 56.5 28.88C56.5 28.3733 56.5667 27.7333 56.7 26.96C56.86 26.1867 57.06 25.3333 57.3 24.4C57.5667 23.44 57.8867 22.44 58.26 21.4C58.6333 20.36 59.0467 19.32 59.5 18.28C60.5133 15.9333 61.4333 14.0933 62.26 12.76C63.1133 11.4267 63.6467 10.7067 63.86 10.6ZM81.3416 14.68C81.2082 14.52 81.0882 14.1867 80.9816 13.68C80.8749 13.1467 80.8216 12.6933 80.8216 12.32C81.5149 12.3733 82.1816 12.4267 82.8216 12.48C83.4616 12.5067 84.0482 12.5333 84.5816 12.56C84.9816 11.76 85.4082 10.9733 85.8616 10.2C86.3416 9.4 86.7949 8.68 87.2216 8.04C87.6749 7.37333 88.0882 6.81333 88.4616 6.36C88.8616 5.90667 89.1682 5.61333 89.3816 5.48C89.6482 5.48 89.9816 5.53333 90.3816 5.64C90.8082 5.72 91.2349 5.84 91.6616 6C92.0882 6.13333 92.4749 6.28 92.8216 6.44C93.1682 6.6 93.4082 6.76 93.5416 6.92C92.7416 7.93333 92.0482 8.88 91.4616 9.76C90.9016 10.6133 90.2882 11.6 89.6216 12.72C90.1549 12.72 90.6882 12.7067 91.2216 12.68C91.7816 12.6533 92.3416 12.6133 92.9016 12.56C93.0349 12.6933 93.1416 12.8667 93.2216 13.08C93.3016 13.2667 93.3416 13.4667 93.3416 13.68C92.0349 14.16 90.4482 14.4267 88.5816 14.48C87.9149 15.76 87.3149 17.04 86.7816 18.32C86.2749 19.5733 85.8349 20.7867 85.4616 21.96C85.1149 23.1333 84.8349 24.24 84.6216 25.28C84.4349 26.32 84.3416 27.2533 84.3416 28.08C84.3416 29.2533 84.7816 29.9067 85.6616 30.04C86.4616 29.9333 87.2216 29.7333 87.9416 29.44C88.6616 29.1467 89.3016 28.7733 89.8616 28.32C90.0216 28.56 90.1149 28.76 90.1416 28.92C89.9816 29.16 89.7016 29.44 89.3016 29.76C88.9282 30.08 88.5149 30.3867 88.0616 30.68C87.6082 31 87.1682 31.2667 86.7416 31.48C86.3149 31.6933 85.9949 31.8133 85.7816 31.84C85.1149 31.8133 84.4482 31.6667 83.7816 31.4C83.1149 31.1333 82.5016 30.8 81.9416 30.4C81.4082 30 80.9682 29.56 80.6216 29.08C80.2749 28.5733 80.1016 28.08 80.1016 27.6C80.1016 26.96 80.1816 26.16 80.3416 25.2C80.5282 24.2133 80.7816 23.1467 81.1016 22C81.4216 20.8533 81.7949 19.6533 82.2216 18.4C82.6482 17.1467 83.1149 15.9067 83.6216 14.68H81.3416ZM106.844 14.08C106.817 14.5867 106.724 15.12 106.564 15.68C106.431 16.2133 106.257 16.7067 106.044 17.16C105.831 17.5867 105.604 17.9467 105.364 18.24C105.124 18.5333 104.897 18.68 104.684 18.68C104.391 18.6533 104.217 18.4533 104.164 18.08C104.164 18 104.191 17.88 104.244 17.72C104.324 17.5333 104.404 17.3333 104.484 17.12C104.564 16.9067 104.631 16.6933 104.684 16.48C104.764 16.2667 104.804 16.08 104.804 15.92C104.804 15.5467 104.711 15.24 104.524 15C104.364 14.7333 104.137 14.6 103.844 14.6C102.777 14.6 101.964 15.2667 101.404 16.6C100.844 17.9333 100.564 19.8933 100.564 22.48C100.564 22.7467 100.577 22.9067 100.604 22.96C101.164 22.9333 101.657 22.92 102.084 22.92C102.537 22.8933 102.977 22.88 103.404 22.88C103.431 22.9333 103.444 23.04 103.444 23.2C103.444 23.44 103.391 23.6133 103.284 23.72C102.671 23.8533 102.177 23.9733 101.804 24.08C101.457 24.16 101.191 24.24 101.004 24.32C100.817 24.4 100.697 24.4933 100.644 24.6C100.617 24.68 100.604 24.8 100.604 24.96C100.604 25.1733 100.604 25.3867 100.604 25.6C100.631 25.8133 100.644 26.08 100.644 26.4C100.644 28.64 100.031 30.44 98.8041 31.8C97.6041 33.16 95.9241 33.9467 93.7641 34.16C93.3907 34.1333 93.0041 34.0267 92.6041 33.84C92.2041 33.6533 91.8174 33.4133 91.4441 33.12C91.0974 32.8267 90.7907 32.4933 90.5241 32.12C90.2574 31.7733 90.0707 31.4133 89.9641 31.04C89.9641 30.0267 90.1774 29.0667 90.6041 28.16C91.0307 27.2267 91.6041 26.4133 92.3241 25.72C93.0707 25 93.9374 24.4267 94.9241 24C95.9374 23.5467 97.0307 23.28 98.2041 23.2C98.2041 22.5333 98.1374 21.88 98.0041 21.24C97.8707 20.6 97.7241 19.9867 97.5641 19.4C97.4307 18.7867 97.2974 18.2 97.1641 17.64C97.0307 17.0533 96.9641 16.48 96.9641 15.92C96.9641 15.2 97.1107 14.4933 97.4041 13.8C97.6974 13.08 98.0841 12.4267 98.5641 11.84C99.0441 11.2267 99.6041 10.7067 100.244 10.28C100.884 9.85333 101.551 9.56 102.244 9.4C102.537 9.48 102.924 9.72 103.404 10.12C103.911 10.4933 104.404 10.92 104.884 11.4C105.364 11.88 105.791 12.3733 106.164 12.88C106.537 13.36 106.764 13.76 106.844 14.08ZM93.6441 32.32C94.2841 32.0533 94.8841 31.6667 95.4441 31.16C96.0307 30.6533 96.5374 30.08 96.9641 29.44C97.3907 28.8 97.7241 28.12 97.9641 27.4C98.2307 26.68 98.3641 25.9733 98.3641 25.28C97.8307 25.36 97.2441 25.6133 96.6041 26.04C95.9641 26.44 95.3641 26.9333 94.8041 27.52C94.2441 28.08 93.7774 28.6667 93.4041 29.28C93.0307 29.8933 92.8441 30.4267 92.8441 30.88C92.8441 31.4667 93.1107 31.9467 93.6441 32.32Z" fill="#6FDCF6"/>
</svg>
