<svg width="291" height="39" viewBox="0 0 291 39" fill="none" xmlns="http://www.w3.org/2000/svg">
<path d="M16.8 17.32C17.6533 17.32 18.32 17.56 18.8 18.04C19.3067 18.52 19.56 19.1867 19.56 20.04C19.56 20.2533 19.5467 20.48 19.52 20.72C19.4933 20.9333 19.44 21.12 19.36 21.28C19.0133 21.2267 18.6267 21.1867 18.2 21.16C17.7733 21.1067 17.2667 21.08 16.68 21.08C15.48 21.08 14.28 21.1867 13.08 21.4C11.88 21.6133 10.7333 21.7867 9.64 21.92C8.44 24.7467 7.45333 27.4 6.68 29.88C5.90667 32.36 5.30667 34.8133 4.88 37.24C3.97333 37.0267 3.17333 36.64 2.48 36.08C1.78667 35.52 1.13333 34.7333 0.52 33.72C0.706667 33.2933 0.933334 32.7867 1.2 32.2C1.46667 31.5867 1.78667 30.8267 2.16 29.92C2.53333 28.9867 2.97333 27.8667 3.48 26.56C4.01333 25.2267 4.64 23.64 5.36 21.8C4.24 21.4267 3.50667 20.7733 3.16 19.84C3.29333 19.7067 3.66667 19.56 4.28 19.4C4.89333 19.2133 5.64 19.0133 6.52 18.8C6.92 17.76 7.26667 16.84 7.56 16.04C7.85333 15.2133 8.12 14.44 8.36 13.72C8.6 12.9733 8.81333 12.2533 9 11.56C9.21333 10.84 9.4 10.08 9.56 9.28H9.36C8.34667 9.28 7.52 9.04 6.88 8.56C6.26667 8.08 5.96 7.45333 5.96 6.68C5.96 6.46667 5.98667 6.21333 6.04 5.92C6.12 5.62666 6.21333 5.37333 6.32 5.16C6.82667 5.24 7.32 5.29333 7.8 5.32C8.30667 5.34667 8.96 5.36 9.76 5.36C11.44 5.36 13.0133 5.32 14.48 5.24C15.9467 5.13333 17.2667 5.02666 18.44 4.92C19.64 4.81333 20.6667 4.72 21.52 4.64C22.3733 4.53333 23.0267 4.48 23.48 4.48C24.0933 4.48 24.64 4.8 25.12 5.44C25.6 6.08 25.9733 6.98666 26.24 8.16C25.3867 8.08 24.6933 8.02666 24.16 8C23.6533 7.97333 23.2 7.96 22.8 7.96C21.44 7.96 20.1867 8.02667 19.04 8.16C17.92 8.26667 16.8533 8.4 15.84 8.56C15.68 8.8 15.4933 9.10667 15.28 9.48C15.0933 9.85333 14.84 10.3867 14.52 11.08C14.2 11.7467 13.7867 12.6267 13.28 13.72C12.8 14.8133 12.1867 16.2 11.44 17.88C12.48 17.72 13.4667 17.5867 14.4 17.48C15.36 17.3733 16.16 17.32 16.8 17.32ZM21.6759 31.44C21.6759 30.2667 21.9559 28.6267 22.5159 26.52C23.0759 24.3867 23.8626 21.9067 24.8759 19.08C26.5293 14.5733 28.0759 10.8267 29.5159 7.84C30.9826 4.82667 32.4093 2.48 33.7959 0.799998C34.1159 0.853331 34.5026 0.986664 34.9559 1.2C35.4359 1.41333 35.9026 1.65333 36.3559 1.92C36.8093 2.16 37.2093 2.41333 37.5559 2.68C37.9293 2.94666 38.1693 3.16 38.2759 3.32C36.1959 5.77333 34.3693 8.41333 32.7959 11.24C31.2226 14.0667 29.7826 17.3067 28.4759 20.96C27.3559 24.1067 26.5026 26.9467 25.9159 29.48C25.3293 31.9867 25.0359 34.08 25.0359 35.76C25.0359 36.2133 25.0359 36.4933 25.0359 36.6C25.0359 36.7067 25.0493 36.8133 25.0759 36.92C24.7026 36.8667 24.3826 36.7733 24.1159 36.64C23.8493 36.5067 23.6759 36.3467 23.5959 36.16C23.5426 36.0267 23.3959 35.8267 23.1559 35.56C22.9159 35.32 22.7026 35.1333 22.5159 35C22.2759 34.84 22.0759 34.4267 21.9159 33.76C21.7559 33.0667 21.6759 32.2933 21.6759 31.44ZM35.7328 35.4C34.2128 35.24 32.9995 34.5733 32.0928 33.4C31.1861 32.2267 30.7328 30.7333 30.7328 28.92C30.7328 27.8533 30.8928 26.7467 31.2128 25.6C31.5328 24.4533 31.9861 23.3467 32.5728 22.28C33.1595 21.1867 33.8528 20.16 34.6528 19.2C35.4528 18.24 36.3195 17.4133 37.2528 16.72C38.7195 15.6267 40.0928 15.08 41.3728 15.08C42.2261 15.5333 43.0661 16.48 43.8928 17.92C44.0261 17.92 44.1461 17.92 44.2528 17.92C44.3595 17.8933 44.4795 17.88 44.6128 17.88C46.0261 17.88 46.7328 19.1333 46.7328 21.64C46.7328 23.32 46.4528 24.92 45.8928 26.44C45.3595 27.9333 44.5995 29.2933 43.6128 30.52C42.6528 31.7467 41.4928 32.7867 40.1328 33.64C38.7995 34.4667 37.3328 35.0533 35.7328 35.4ZM37.7728 22.8C37.3195 23.4133 36.8928 24.08 36.4928 24.8C36.0928 25.52 35.7461 26.2533 35.4528 27C35.1595 27.72 34.9328 28.4267 34.7728 29.12C34.6128 29.7867 34.5328 30.3867 34.5328 30.92C34.5328 31.56 34.6395 32.1733 34.8528 32.76C35.0661 33.3467 35.3061 33.68 35.5728 33.76C36.7728 33.4933 37.8661 33 38.8528 32.28C39.8661 31.5333 40.7328 30.6133 41.4528 29.52C42.1995 28.4267 42.7728 27.1867 43.1728 25.8C43.5995 24.4133 43.8128 22.9333 43.8128 21.36C43.8128 20.6667 43.7728 20.12 43.6928 19.72C43.6128 19.32 43.4795 18.9733 43.2928 18.68C42.1195 19.0267 41.0661 19.5867 40.1328 20.36C39.2261 21.1333 38.4395 21.9467 37.7728 22.8ZM49.0291 32.36C49.0291 31.8267 49.0824 31.08 49.1891 30.12C49.3224 29.16 49.4824 28.12 49.6691 27C49.8824 25.88 50.1091 24.7333 50.3491 23.56C50.6157 22.3867 50.8824 21.3333 51.1491 20.4C51.4957 19.1467 52.0291 18.1867 52.7491 17.52C53.4957 16.8267 54.4157 16.48 55.5091 16.48C56.0957 16.48 56.6691 16.5733 57.2291 16.76C57.8157 16.9467 58.1624 17.1867 58.2691 17.48C57.4957 18.12 56.8691 18.92 56.3891 19.88C55.9357 20.8133 55.5624 21.8267 55.2691 22.92C55.0024 23.9867 54.7891 25.0933 54.6291 26.24C54.4957 27.36 54.3491 28.4133 54.1891 29.4C55.0691 28.2267 55.8957 27.1733 56.6691 26.24C57.4691 25.28 58.1757 24.52 58.7891 23.96C59.6157 23.1867 60.1757 22.5467 60.4691 22.04C60.7624 21.5067 61.0157 20.9333 61.2291 20.32C61.3891 19.84 61.5757 19.28 61.7891 18.64C62.0291 18 62.4157 17.4133 62.9491 16.88C63.0557 16.8533 63.2824 16.84 63.6291 16.84C63.8957 16.84 64.1757 16.8533 64.4691 16.88C64.7891 16.9067 65.0824 16.96 65.3491 17.04C65.6157 17.12 65.8424 17.2133 66.0291 17.32C66.2157 17.4267 66.3224 17.56 66.3491 17.72C65.9224 18.28 65.5224 19.16 65.1491 20.36C64.7757 21.5333 64.4424 22.8267 64.1491 24.24C63.8557 25.6533 63.5891 27.0667 63.3491 28.48C63.1091 29.8667 62.8957 31.04 62.7091 32C62.8157 31.9467 63.0557 31.7333 63.4291 31.36C63.8024 30.9867 64.2157 30.52 64.6691 29.96C65.1491 29.4 65.6424 28.7867 66.1491 28.12C66.6824 27.4533 67.1491 26.8 67.5491 26.16C68.0557 25.3867 68.4691 24.6667 68.7891 24C69.1357 23.3067 69.4291 22.5733 69.6691 21.8C69.9357 21.0267 70.1757 20.1733 70.3891 19.24C70.6024 18.28 70.8291 17.1467 71.0691 15.84C71.2291 15.6267 71.5757 15.4533 72.1091 15.32C72.6691 15.16 73.1757 15.08 73.6291 15.08C74.0291 15.08 74.3224 15.1467 74.5091 15.28C74.3757 16.7733 74.1224 18.1067 73.7491 19.28C73.4024 20.4533 72.9224 21.6 72.3091 22.72C71.6957 23.8133 70.9357 24.92 70.0291 26.04C69.1224 27.1333 68.0557 28.3333 66.8291 29.64C66.3224 30.1733 65.7624 30.76 65.1491 31.4C64.5624 32.04 63.9757 32.64 63.3891 33.2C62.8291 33.7333 62.2957 34.1867 61.7891 34.56C61.3091 34.9333 60.9357 35.12 60.6691 35.12C60.0557 35.12 59.5491 34.88 59.1491 34.4C58.7491 33.92 58.5491 33.3067 58.5491 32.56C58.5491 31.7867 58.5757 31.12 58.6291 30.56C58.7091 29.9733 58.8291 29.36 58.9891 28.72C59.1491 28.1333 59.2691 27.64 59.3491 27.24C59.4557 26.84 59.5357 26.4933 59.5891 26.2C59.6691 25.9067 59.7224 25.6533 59.7491 25.44C59.7757 25.2267 59.8024 25.0133 59.8291 24.8C59.6157 24.9067 59.3357 25.1333 58.9891 25.48C58.6424 25.8 58.2824 26.1867 57.9091 26.64C57.5357 27.0667 57.1624 27.5067 56.7891 27.96C56.4157 28.4133 56.1091 28.8 55.8691 29.12C55.3624 29.8133 54.9224 30.4267 54.5491 30.96C54.1757 31.4933 53.8157 32 53.4691 32.48C53.1491 32.96 52.8291 33.4533 52.5091 33.96C52.1891 34.44 51.8157 34.96 51.3891 35.52C50.5357 35.2533 49.9224 34.8533 49.5491 34.32C49.2024 33.7867 49.0291 33.1333 49.0291 32.36ZM88.3797 17.44C88.273 19.0933 87.9797 20.52 87.4997 21.72C87.0197 22.8933 86.3264 23.9333 85.4197 24.84C84.5397 25.72 83.4597 26.52 82.1797 27.24C80.8997 27.96 79.4064 28.6533 77.6997 29.32C77.6997 29.48 77.6864 29.6533 77.6597 29.84C77.6597 30 77.6597 30.1733 77.6597 30.36C77.6597 30.7067 77.6864 31.0667 77.7397 31.44C77.793 31.8133 77.8864 32.16 78.0197 32.48C78.153 32.8 78.3397 33.0667 78.5797 33.28C78.8197 33.4667 79.1264 33.56 79.4997 33.56C80.2197 33.56 80.9264 33.4 81.6197 33.08C82.313 32.76 82.9664 32.3733 83.5797 31.92C84.2197 31.44 84.8064 30.9333 85.3397 30.4C85.8997 29.84 86.393 29.3333 86.8197 28.88C87.0864 29.12 87.313 29.3467 87.4997 29.56C86.2997 31.16 84.9797 32.4933 83.5397 33.56C82.1264 34.6 80.7797 35.2667 79.4997 35.56C77.6597 35.3467 76.2197 34.68 75.1797 33.56C74.1664 32.4133 73.6597 31.04 73.6597 29.44C73.6597 28.3467 73.8064 27.24 74.0997 26.12C74.4197 24.9733 74.8464 23.88 75.3797 22.84C75.9397 21.7733 76.5797 20.7733 77.2997 19.84C78.0464 18.9067 78.833 18.0933 79.6597 17.4C80.513 16.7067 81.3797 16.16 82.2597 15.76C83.1664 15.36 84.0597 15.16 84.9397 15.16C86.1664 15.32 87.313 16.08 88.3797 17.44ZM85.6197 18.76C84.8997 18.8667 84.153 19.16 83.3797 19.64C82.6064 20.12 81.873 20.76 81.1797 21.56C80.513 22.36 79.8997 23.2933 79.3397 24.36C78.7797 25.4267 78.3397 26.5733 78.0197 27.8C80.153 26.7333 81.9264 25.4267 83.3397 23.88C84.753 22.3067 85.513 20.6 85.6197 18.76ZM89.2716 33.2C89.4049 32.4267 89.6316 31.4133 89.9516 30.16C90.2982 28.88 90.6982 27.5333 91.1516 26.12C91.6049 24.68 92.0849 23.24 92.5916 21.8C93.0982 20.36 93.5916 19.0667 94.0716 17.92C94.4182 17.0933 94.7249 16.4533 94.9916 16C95.2582 15.52 95.5516 15.12 95.8716 14.8C96.2449 14.8533 96.6316 14.9467 97.0316 15.08C97.4316 15.2133 97.8182 15.3733 98.1916 15.56C98.5649 15.7467 98.8982 15.9467 99.1916 16.16C99.4849 16.3467 99.7116 16.5333 99.8716 16.72C99.1516 17.5733 98.5116 18.5467 97.9516 19.64C97.4182 20.7333 96.8716 22.1333 96.3116 23.84C97.7516 22.56 99.0182 21.3333 100.112 20.16C101.232 18.9867 102.272 17.68 103.232 16.24C103.392 16.1067 103.672 16.04 104.072 16.04C104.445 16.04 104.805 16.1067 105.152 16.24C105.498 16.3467 105.738 16.5067 105.872 16.72C105.392 18 105.152 19.2667 105.152 20.52C105.152 21.6933 105.325 22.5733 105.672 23.16C105.645 23.32 105.458 23.6267 105.112 24.08C104.792 24.5333 104.432 24.96 104.032 25.36C103.312 24.9867 102.672 24.48 102.112 23.84C101.552 23.1733 101.138 22.4533 100.872 21.68C99.6182 22.56 98.5516 23.4267 97.6716 24.28C96.7916 25.1067 96.0316 26.04 95.3916 27.08C94.7782 28.0933 94.2449 29.2667 93.7916 30.6C93.3649 31.9333 92.9516 33.52 92.5516 35.36C92.3116 35.3333 92.0182 35.24 91.6716 35.08C91.3516 34.9467 91.0182 34.7733 90.6716 34.56C90.3516 34.3467 90.0582 34.12 89.7916 33.88C89.5249 33.64 89.3516 33.4133 89.2716 33.2ZM117.856 37.04C116.576 36.6667 115.682 36.2933 115.176 35.92C114.696 35.5467 114.456 35.08 114.456 34.52C114.456 34.0933 114.576 33.4933 114.816 32.72C115.056 31.9467 115.402 31.04 115.856 30C116.336 28.9333 116.896 27.76 117.536 26.48C118.202 25.2 118.949 23.8267 119.776 22.36C119.082 22.3333 118.456 22.32 117.896 22.32C117.362 22.2933 116.922 22.28 116.576 22.28C116.736 21.88 117.189 21.5333 117.936 21.24C118.682 20.9467 119.669 20.6933 120.896 20.48C121.936 18.7467 123.042 17.0933 124.216 15.52C125.416 13.9467 126.616 12.5067 127.816 11.2C129.016 9.86667 130.216 8.70667 131.416 7.72C132.616 6.70667 133.762 5.90667 134.856 5.32C134.882 5.13333 134.896 4.97333 134.896 4.84C134.922 4.70667 134.936 4.61333 134.936 4.56C135.309 4.56 135.802 4.65333 136.416 4.84C137.056 5.02666 137.669 5.25333 138.256 5.52C138.869 5.78667 139.402 6.06667 139.856 6.36C140.336 6.62666 140.602 6.85333 140.656 7.04C139.776 8.58666 138.909 10.9067 138.056 14C137.202 17.0667 136.496 20.7467 135.936 25.04C135.802 26.1067 135.682 27.32 135.576 28.68C135.496 30.04 135.456 31.56 135.456 33.24C135.456 33.8267 135.456 34.4267 135.456 35.04C135.456 35.6533 135.482 36.2933 135.536 36.96C135.482 36.9867 135.429 37 135.376 37C135.322 37 135.216 37 135.056 37C134.682 37 134.242 36.9333 133.736 36.8C133.256 36.6933 132.776 36.5467 132.296 36.36C131.842 36.2 131.442 36.0133 131.096 35.8C130.776 35.5867 130.576 35.4 130.496 35.24C130.469 34.8933 130.456 34.5467 130.456 34.2C130.456 33.88 130.456 33.5333 130.456 33.16C130.456 31.5067 130.509 29.8267 130.616 28.12C130.749 26.4133 130.962 24.6533 131.256 22.84C130.882 22.8133 130.389 22.7867 129.776 22.76C129.162 22.7067 128.469 22.6667 127.696 22.64C126.949 22.6133 126.136 22.5867 125.256 22.56C124.402 22.5067 123.562 22.4667 122.736 22.44C122.096 23.64 121.496 24.84 120.936 26.04C120.376 27.2133 119.896 28.4 119.496 29.6C119.042 30.88 118.669 32.16 118.376 33.44C118.109 34.72 117.936 35.92 117.856 37.04ZM133.296 13C133.402 12.6267 133.522 12.12 133.656 11.48C133.816 10.8133 133.962 10.12 134.096 9.4C133.429 9.64 132.682 10.08 131.856 10.72C131.056 11.36 130.216 12.16 129.336 13.12C128.482 14.0533 127.602 15.12 126.696 16.32C125.816 17.4933 124.962 18.7467 124.136 20.08C126.376 19.8933 128.922 19.7733 131.776 19.72C131.989 18.6 132.216 17.4933 132.456 16.4C132.722 15.28 133.002 14.1467 133.296 13ZM140.198 26.96C140.198 25.44 140.505 23.9733 141.118 22.56C141.758 21.12 142.585 19.8533 143.598 18.76C144.638 17.64 145.811 16.7467 147.118 16.08C148.451 15.3867 149.825 15.04 151.238 15.04C152.625 15.04 153.691 15.3867 154.438 16.08C155.185 16.7733 155.558 17.76 155.558 19.04C155.558 19.6533 155.465 20.2533 155.278 20.84C155.118 21.4 154.891 21.9067 154.598 22.36C154.331 22.8133 154.011 23.1867 153.638 23.48C153.265 23.7467 152.891 23.88 152.518 23.88C152.198 23.88 151.865 23.7867 151.518 23.6C151.198 23.3867 150.931 23.12 150.718 22.8C152.505 21.1733 153.398 19.6933 153.398 18.36C153.398 17.5867 153.091 17.2 152.478 17.2C151.945 17.2 151.278 17.4533 150.478 17.96C149.678 18.4667 148.905 19.1333 148.158 19.96C147.011 21.24 146.131 22.6667 145.518 24.24C144.931 25.7867 144.638 27.4133 144.638 29.12C144.638 31.28 145.118 32.5733 146.078 33C146.478 32.9467 146.945 32.8267 147.478 32.64C148.011 32.4533 148.585 32.2133 149.198 31.92C149.811 31.6 150.438 31.24 151.078 30.84C151.745 30.44 152.385 30.0133 152.998 29.56C153.105 29.64 153.198 29.76 153.278 29.92C153.358 30.08 153.398 30.2267 153.398 30.36C152.945 30.92 152.425 31.4667 151.838 32C151.251 32.5333 150.638 33.0267 149.998 33.48C149.358 33.9067 148.731 34.2667 148.118 34.56C147.531 34.88 147.011 35.08 146.558 35.16C145.678 35.08 144.851 34.8 144.078 34.32C143.305 33.8667 142.625 33.2667 142.038 32.52C141.478 31.7733 141.025 30.92 140.678 29.96C140.358 29 140.198 28 140.198 26.96ZM156.995 26.96C156.995 25.44 157.302 23.9733 157.915 22.56C158.555 21.12 159.382 19.8533 160.395 18.76C161.435 17.64 162.608 16.7467 163.915 16.08C165.248 15.3867 166.622 15.04 168.035 15.04C169.422 15.04 170.488 15.3867 171.235 16.08C171.982 16.7733 172.355 17.76 172.355 19.04C172.355 19.6533 172.262 20.2533 172.075 20.84C171.915 21.4 171.688 21.9067 171.395 22.36C171.128 22.8133 170.808 23.1867 170.435 23.48C170.062 23.7467 169.688 23.88 169.315 23.88C168.995 23.88 168.662 23.7867 168.315 23.6C167.995 23.3867 167.728 23.12 167.515 22.8C169.302 21.1733 170.195 19.6933 170.195 18.36C170.195 17.5867 169.888 17.2 169.275 17.2C168.742 17.2 168.075 17.4533 167.275 17.96C166.475 18.4667 165.702 19.1333 164.955 19.96C163.808 21.24 162.928 22.6667 162.315 24.24C161.728 25.7867 161.435 27.4133 161.435 29.12C161.435 31.28 161.915 32.5733 162.875 33C163.275 32.9467 163.742 32.8267 164.275 32.64C164.808 32.4533 165.382 32.2133 165.995 31.92C166.608 31.6 167.235 31.24 167.875 30.84C168.542 30.44 169.182 30.0133 169.795 29.56C169.902 29.64 169.995 29.76 170.075 29.92C170.155 30.08 170.195 30.2267 170.195 30.36C169.742 30.92 169.222 31.4667 168.635 32C168.048 32.5333 167.435 33.0267 166.795 33.48C166.155 33.9067 165.528 34.2667 164.915 34.56C164.328 34.88 163.808 35.08 163.355 35.16C162.475 35.08 161.648 34.8 160.875 34.32C160.102 33.8667 159.422 33.2667 158.835 32.52C158.275 31.7733 157.822 30.92 157.475 29.96C157.155 29 156.995 28 156.995 26.96ZM187.872 17.44C187.765 19.0933 187.472 20.52 186.992 21.72C186.512 22.8933 185.819 23.9333 184.912 24.84C184.032 25.72 182.952 26.52 181.672 27.24C180.392 27.96 178.899 28.6533 177.192 29.32C177.192 29.48 177.179 29.6533 177.152 29.84C177.152 30 177.152 30.1733 177.152 30.36C177.152 30.7067 177.179 31.0667 177.232 31.44C177.285 31.8133 177.379 32.16 177.512 32.48C177.645 32.8 177.832 33.0667 178.072 33.28C178.312 33.4667 178.619 33.56 178.992 33.56C179.712 33.56 180.419 33.4 181.112 33.08C181.805 32.76 182.459 32.3733 183.072 31.92C183.712 31.44 184.299 30.9333 184.832 30.4C185.392 29.84 185.885 29.3333 186.312 28.88C186.579 29.12 186.805 29.3467 186.992 29.56C185.792 31.16 184.472 32.4933 183.032 33.56C181.619 34.6 180.272 35.2667 178.992 35.56C177.152 35.3467 175.712 34.68 174.672 33.56C173.659 32.4133 173.152 31.04 173.152 29.44C173.152 28.3467 173.299 27.24 173.592 26.12C173.912 24.9733 174.339 23.88 174.872 22.84C175.432 21.7733 176.072 20.7733 176.792 19.84C177.539 18.9067 178.325 18.0933 179.152 17.4C180.005 16.7067 180.872 16.16 181.752 15.76C182.659 15.36 183.552 15.16 184.432 15.16C185.659 15.32 186.805 16.08 187.872 17.44ZM185.112 18.76C184.392 18.8667 183.645 19.16 182.872 19.64C182.099 20.12 181.365 20.76 180.672 21.56C180.005 22.36 179.392 23.2933 178.832 24.36C178.272 25.4267 177.832 26.5733 177.512 27.8C179.645 26.7333 181.419 25.4267 182.832 23.88C184.245 22.3067 185.005 20.6 185.112 18.76ZM203.524 18.08C203.497 18.5867 203.404 19.12 203.244 19.68C203.11 20.2133 202.937 20.7067 202.724 21.16C202.51 21.5867 202.284 21.9467 202.044 22.24C201.804 22.5333 201.577 22.68 201.364 22.68C201.07 22.6533 200.897 22.4533 200.844 22.08C200.844 22 200.87 21.88 200.924 21.72C201.004 21.5333 201.084 21.3333 201.164 21.12C201.244 20.9067 201.31 20.6933 201.364 20.48C201.444 20.2667 201.484 20.08 201.484 19.92C201.484 19.5467 201.39 19.24 201.204 19C201.044 18.7333 200.817 18.6 200.524 18.6C199.457 18.6 198.644 19.2667 198.084 20.6C197.524 21.9333 197.244 23.8933 197.244 26.48C197.244 26.7467 197.257 26.9067 197.284 26.96C197.844 26.9333 198.337 26.92 198.764 26.92C199.217 26.8933 199.657 26.88 200.084 26.88C200.11 26.9333 200.124 27.04 200.124 27.2C200.124 27.44 200.07 27.6133 199.964 27.72C199.35 27.8533 198.857 27.9733 198.484 28.08C198.137 28.16 197.87 28.24 197.684 28.32C197.497 28.4 197.377 28.4933 197.324 28.6C197.297 28.68 197.284 28.8 197.284 28.96C197.284 29.1733 197.284 29.3867 197.284 29.6C197.31 29.8133 197.324 30.08 197.324 30.4C197.324 32.64 196.71 34.44 195.484 35.8C194.284 37.16 192.604 37.9467 190.444 38.16C190.07 38.1333 189.684 38.0267 189.284 37.84C188.884 37.6533 188.497 37.4133 188.124 37.12C187.777 36.8267 187.47 36.4933 187.204 36.12C186.937 35.7733 186.75 35.4133 186.644 35.04C186.644 34.0267 186.857 33.0667 187.284 32.16C187.71 31.2267 188.284 30.4133 189.004 29.72C189.75 29 190.617 28.4267 191.604 28C192.617 27.5467 193.71 27.28 194.884 27.2C194.884 26.5333 194.817 25.88 194.684 25.24C194.55 24.6 194.404 23.9867 194.244 23.4C194.11 22.7867 193.977 22.2 193.844 21.64C193.71 21.0533 193.644 20.48 193.644 19.92C193.644 19.2 193.79 18.4933 194.084 17.8C194.377 17.08 194.764 16.4267 195.244 15.84C195.724 15.2267 196.284 14.7067 196.924 14.28C197.564 13.8533 198.23 13.56 198.924 13.4C199.217 13.48 199.604 13.72 200.084 14.12C200.59 14.4933 201.084 14.92 201.564 15.4C202.044 15.88 202.47 16.3733 202.844 16.88C203.217 17.36 203.444 17.76 203.524 18.08ZM190.324 36.32C190.964 36.0533 191.564 35.6667 192.124 35.16C192.71 34.6533 193.217 34.08 193.644 33.44C194.07 32.8 194.404 32.12 194.644 31.4C194.91 30.68 195.044 29.9733 195.044 29.28C194.51 29.36 193.924 29.6133 193.284 30.04C192.644 30.44 192.044 30.9333 191.484 31.52C190.924 32.08 190.457 32.6667 190.084 33.28C189.71 33.8933 189.524 34.4267 189.524 34.88C189.524 35.4667 189.79 35.9467 190.324 36.32ZM217.352 18.08C217.325 18.5867 217.232 19.12 217.072 19.68C216.939 20.2133 216.765 20.7067 216.552 21.16C216.339 21.5867 216.112 21.9467 215.872 22.24C215.632 22.5333 215.405 22.68 215.192 22.68C214.899 22.6533 214.725 22.4533 214.672 22.08C214.672 22 214.699 21.88 214.752 21.72C214.832 21.5333 214.912 21.3333 214.992 21.12C215.072 20.9067 215.139 20.6933 215.192 20.48C215.272 20.2667 215.312 20.08 215.312 19.92C215.312 19.5467 215.219 19.24 215.032 19C214.872 18.7333 214.645 18.6 214.352 18.6C213.285 18.6 212.472 19.2667 211.912 20.6C211.352 21.9333 211.072 23.8933 211.072 26.48C211.072 26.7467 211.085 26.9067 211.112 26.96C211.672 26.9333 212.165 26.92 212.592 26.92C213.045 26.8933 213.485 26.88 213.912 26.88C213.939 26.9333 213.952 27.04 213.952 27.2C213.952 27.44 213.899 27.6133 213.792 27.72C213.179 27.8533 212.685 27.9733 212.312 28.08C211.965 28.16 211.699 28.24 211.512 28.32C211.325 28.4 211.205 28.4933 211.152 28.6C211.125 28.68 211.112 28.8 211.112 28.96C211.112 29.1733 211.112 29.3867 211.112 29.6C211.139 29.8133 211.152 30.08 211.152 30.4C211.152 32.64 210.539 34.44 209.312 35.8C208.112 37.16 206.432 37.9467 204.272 38.16C203.899 38.1333 203.512 38.0267 203.112 37.84C202.712 37.6533 202.325 37.4133 201.952 37.12C201.605 36.8267 201.299 36.4933 201.032 36.12C200.765 35.7733 200.579 35.4133 200.472 35.04C200.472 34.0267 200.685 33.0667 201.112 32.16C201.539 31.2267 202.112 30.4133 202.832 29.72C203.579 29 204.445 28.4267 205.432 28C206.445 27.5467 207.539 27.28 208.712 27.2C208.712 26.5333 208.645 25.88 208.512 25.24C208.379 24.6 208.232 23.9867 208.072 23.4C207.939 22.7867 207.805 22.2 207.672 21.64C207.539 21.0533 207.472 20.48 207.472 19.92C207.472 19.2 207.619 18.4933 207.912 17.8C208.205 17.08 208.592 16.4267 209.072 15.84C209.552 15.2267 210.112 14.7067 210.752 14.28C211.392 13.8533 212.059 13.56 212.752 13.4C213.045 13.48 213.432 13.72 213.912 14.12C214.419 14.4933 214.912 14.92 215.392 15.4C215.872 15.88 216.299 16.3733 216.672 16.88C217.045 17.36 217.272 17.76 217.352 18.08ZM204.152 36.32C204.792 36.0533 205.392 35.6667 205.952 35.16C206.539 34.6533 207.045 34.08 207.472 33.44C207.899 32.8 208.232 32.12 208.472 31.4C208.739 30.68 208.872 29.9733 208.872 29.28C208.339 29.36 207.752 29.6133 207.112 30.04C206.472 30.44 205.872 30.9333 205.312 31.52C204.752 32.08 204.285 32.6667 203.912 33.28C203.539 33.8933 203.352 34.4267 203.352 34.88C203.352 35.4667 203.619 35.9467 204.152 36.32ZM222.1 35.4C220.58 35.24 219.367 34.5733 218.46 33.4C217.553 32.2267 217.1 30.7333 217.1 28.92C217.1 27.8533 217.26 26.7467 217.58 25.6C217.9 24.4533 218.353 23.3467 218.94 22.28C219.527 21.1867 220.22 20.16 221.02 19.2C221.82 18.24 222.687 17.4133 223.62 16.72C225.087 15.6267 226.46 15.08 227.74 15.08C228.593 15.5333 229.433 16.48 230.26 17.92C230.393 17.92 230.513 17.92 230.62 17.92C230.727 17.8933 230.847 17.88 230.98 17.88C232.393 17.88 233.1 19.1333 233.1 21.64C233.1 23.32 232.82 24.92 232.26 26.44C231.727 27.9333 230.967 29.2933 229.98 30.52C229.02 31.7467 227.86 32.7867 226.5 33.64C225.167 34.4667 223.7 35.0533 222.1 35.4ZM224.14 22.8C223.687 23.4133 223.26 24.08 222.86 24.8C222.46 25.52 222.113 26.2533 221.82 27C221.527 27.72 221.3 28.4267 221.14 29.12C220.98 29.7867 220.9 30.3867 220.9 30.92C220.9 31.56 221.007 32.1733 221.22 32.76C221.433 33.3467 221.673 33.68 221.94 33.76C223.14 33.4933 224.233 33 225.22 32.28C226.233 31.5333 227.1 30.6133 227.82 29.52C228.567 28.4267 229.14 27.1867 229.54 25.8C229.967 24.4133 230.18 22.9333 230.18 21.36C230.18 20.6667 230.14 20.12 230.06 19.72C229.98 19.32 229.847 18.9733 229.66 18.68C228.487 19.0267 227.433 19.5867 226.5 20.36C225.593 21.1333 224.807 21.9467 224.14 22.8ZM234.076 33.2C234.21 32.4267 234.436 31.4133 234.756 30.16C235.103 28.88 235.503 27.5333 235.956 26.12C236.41 24.68 236.89 23.24 237.396 21.8C237.903 20.36 238.396 19.0667 238.876 17.92C239.223 17.0933 239.53 16.4533 239.796 16C240.063 15.52 240.356 15.12 240.676 14.8C241.05 14.8533 241.436 14.9467 241.836 15.08C242.236 15.2133 242.623 15.3733 242.996 15.56C243.37 15.7467 243.703 15.9467 243.996 16.16C244.29 16.3467 244.516 16.5333 244.676 16.72C243.956 17.5733 243.316 18.5467 242.756 19.64C242.223 20.7333 241.676 22.1333 241.116 23.84C242.556 22.56 243.823 21.3333 244.916 20.16C246.036 18.9867 247.076 17.68 248.036 16.24C248.196 16.1067 248.476 16.04 248.876 16.04C249.25 16.04 249.61 16.1067 249.956 16.24C250.303 16.3467 250.543 16.5067 250.676 16.72C250.196 18 249.956 19.2667 249.956 20.52C249.956 21.6933 250.13 22.5733 250.476 23.16C250.45 23.32 250.263 23.6267 249.916 24.08C249.596 24.5333 249.236 24.96 248.836 25.36C248.116 24.9867 247.476 24.48 246.916 23.84C246.356 23.1733 245.943 22.4533 245.676 21.68C244.423 22.56 243.356 23.4267 242.476 24.28C241.596 25.1067 240.836 26.04 240.196 27.08C239.583 28.0933 239.05 29.2667 238.596 30.6C238.17 31.9333 237.756 33.52 237.356 35.36C237.116 35.3333 236.823 35.24 236.476 35.08C236.156 34.9467 235.823 34.7733 235.476 34.56C235.156 34.3467 234.863 34.12 234.596 33.88C234.33 33.64 234.156 33.4133 234.076 33.2ZM251.209 31.32C251.209 31.08 251.222 30.7867 251.249 30.44C251.302 30.0667 251.382 29.5867 251.489 29C251.596 28.3867 251.729 27.6533 251.889 26.8C252.076 25.9467 252.302 24.92 252.569 23.72C252.622 23.4533 252.742 23.0267 252.929 22.44C253.116 21.8533 253.356 21.24 253.649 20.6C253.969 19.9333 254.342 19.2933 254.769 18.68C255.222 18.0667 255.756 17.6133 256.369 17.32C256.822 17.4267 257.422 17.7067 258.169 18.16C258.916 18.5867 259.556 19.1867 260.089 19.96C259.476 20.6533 258.956 21.3467 258.529 22.04C258.129 22.7333 257.756 23.4533 257.409 24.2C257.089 24.9467 256.782 25.72 256.489 26.52C256.222 27.32 255.916 28.16 255.569 29.04C255.276 29.7867 255.009 30.56 254.769 31.36C254.529 32.1333 254.396 32.8133 254.369 33.4C254.369 33.88 254.356 34.2133 254.329 34.4C254.329 34.6133 254.262 34.72 254.129 34.72C254.022 34.72 253.809 34.6533 253.489 34.52C253.169 34.3867 252.836 34.1867 252.489 33.92C252.169 33.6267 251.876 33.2667 251.609 32.84C251.342 32.4133 251.209 31.9067 251.209 31.32ZM258.849 13.96C258.849 13.8 258.889 13.56 258.969 13.24C258.836 13.1067 258.716 12.9067 258.609 12.64C258.529 12.3733 258.489 12.1333 258.489 11.92C258.489 11.68 258.516 11.36 258.569 10.96C258.649 10.5333 258.742 10.08 258.849 9.6C258.956 9.12 259.089 8.62667 259.249 8.12C259.409 7.58666 259.569 7.10666 259.729 6.68C260.049 6.68 260.436 6.77333 260.889 6.96C261.369 7.12 261.849 7.34667 262.329 7.64C262.809 7.90666 263.249 8.21333 263.649 8.56C264.049 8.88 264.356 9.18667 264.569 9.48C264.276 9.77333 263.889 10.1867 263.409 10.72C262.929 11.2267 262.462 11.7733 262.009 12.36C261.556 12.92 261.142 13.4533 260.769 13.96C260.396 14.4667 260.156 14.8267 260.049 15.04C259.729 14.9867 259.449 14.8533 259.209 14.64C258.969 14.4 258.849 14.1733 258.849 13.96ZM274.942 17.44C274.836 19.0933 274.542 20.52 274.062 21.72C273.582 22.8933 272.889 23.9333 271.982 24.84C271.102 25.72 270.022 26.52 268.742 27.24C267.462 27.96 265.969 28.6533 264.262 29.32C264.262 29.48 264.249 29.6533 264.222 29.84C264.222 30 264.222 30.1733 264.222 30.36C264.222 30.7067 264.249 31.0667 264.302 31.44C264.356 31.8133 264.449 32.16 264.582 32.48C264.716 32.8 264.902 33.0667 265.142 33.28C265.382 33.4667 265.689 33.56 266.062 33.56C266.782 33.56 267.489 33.4 268.182 33.08C268.876 32.76 269.529 32.3733 270.142 31.92C270.782 31.44 271.369 30.9333 271.902 30.4C272.462 29.84 272.956 29.3333 273.382 28.88C273.649 29.12 273.876 29.3467 274.062 29.56C272.862 31.16 271.542 32.4933 270.102 33.56C268.689 34.6 267.342 35.2667 266.062 35.56C264.222 35.3467 262.782 34.68 261.742 33.56C260.729 32.4133 260.222 31.04 260.222 29.44C260.222 28.3467 260.369 27.24 260.662 26.12C260.982 24.9733 261.409 23.88 261.942 22.84C262.502 21.7733 263.142 20.7733 263.862 19.84C264.609 18.9067 265.396 18.0933 266.222 17.4C267.076 16.7067 267.942 16.16 268.822 15.76C269.729 15.36 270.622 15.16 271.502 15.16C272.729 15.32 273.876 16.08 274.942 17.44ZM272.182 18.76C271.462 18.8667 270.716 19.16 269.942 19.64C269.169 20.12 268.436 20.76 267.742 21.56C267.076 22.36 266.462 23.2933 265.902 24.36C265.342 25.4267 264.902 26.5733 264.582 27.8C266.716 26.7333 268.489 25.4267 269.902 23.88C271.316 22.3067 272.076 20.6 272.182 18.76ZM290.594 18.08C290.567 18.5867 290.474 19.12 290.314 19.68C290.181 20.2133 290.007 20.7067 289.794 21.16C289.581 21.5867 289.354 21.9467 289.114 22.24C288.874 22.5333 288.647 22.68 288.434 22.68C288.141 22.6533 287.967 22.4533 287.914 22.08C287.914 22 287.941 21.88 287.994 21.72C288.074 21.5333 288.154 21.3333 288.234 21.12C288.314 20.9067 288.381 20.6933 288.434 20.48C288.514 20.2667 288.554 20.08 288.554 19.92C288.554 19.5467 288.461 19.24 288.274 19C288.114 18.7333 287.887 18.6 287.594 18.6C286.527 18.6 285.714 19.2667 285.154 20.6C284.594 21.9333 284.314 23.8933 284.314 26.48C284.314 26.7467 284.327 26.9067 284.354 26.96C284.914 26.9333 285.407 26.92 285.834 26.92C286.287 26.8933 286.727 26.88 287.154 26.88C287.181 26.9333 287.194 27.04 287.194 27.2C287.194 27.44 287.141 27.6133 287.034 27.72C286.421 27.8533 285.927 27.9733 285.554 28.08C285.207 28.16 284.941 28.24 284.754 28.32C284.567 28.4 284.447 28.4933 284.394 28.6C284.367 28.68 284.354 28.8 284.354 28.96C284.354 29.1733 284.354 29.3867 284.354 29.6C284.381 29.8133 284.394 30.08 284.394 30.4C284.394 32.64 283.781 34.44 282.554 35.8C281.354 37.16 279.674 37.9467 277.514 38.16C277.141 38.1333 276.754 38.0267 276.354 37.84C275.954 37.6533 275.567 37.4133 275.194 37.12C274.847 36.8267 274.541 36.4933 274.274 36.12C274.007 35.7733 273.821 35.4133 273.714 35.04C273.714 34.0267 273.927 33.0667 274.354 32.16C274.781 31.2267 275.354 30.4133 276.074 29.72C276.821 29 277.687 28.4267 278.674 28C279.687 27.5467 280.781 27.28 281.954 27.2C281.954 26.5333 281.887 25.88 281.754 25.24C281.621 24.6 281.474 23.9867 281.314 23.4C281.181 22.7867 281.047 22.2 280.914 21.64C280.781 21.0533 280.714 20.48 280.714 19.92C280.714 19.2 280.861 18.4933 281.154 17.8C281.447 17.08 281.834 16.4267 282.314 15.84C282.794 15.2267 283.354 14.7067 283.994 14.28C284.634 13.8533 285.301 13.56 285.994 13.4C286.287 13.48 286.674 13.72 287.154 14.12C287.661 14.4933 288.154 14.92 288.634 15.4C289.114 15.88 289.541 16.3733 289.914 16.88C290.287 17.36 290.514 17.76 290.594 18.08ZM277.394 36.32C278.034 36.0533 278.634 35.6667 279.194 35.16C279.781 34.6533 280.287 34.08 280.714 33.44C281.141 32.8 281.474 32.12 281.714 31.4C281.981 30.68 282.114 29.9733 282.114 29.28C281.581 29.36 280.994 29.6133 280.354 30.04C279.714 30.44 279.114 30.9333 278.554 31.52C277.994 32.08 277.527 32.6667 277.154 33.28C276.781 33.8933 276.594 34.4267 276.594 34.88C276.594 35.4667 276.861 35.9467 277.394 36.32Z" fill="#6FDCF6"/>
</svg>
