<svg width="338" height="49" viewBox="0 0 338 49" fill="none" xmlns="http://www.w3.org/2000/svg">
<path d="M16.8 17.32C17.6533 17.32 18.32 17.56 18.8 18.04C19.3067 18.52 19.56 19.1867 19.56 20.04C19.56 20.2533 19.5467 20.48 19.52 20.72C19.4933 20.9333 19.44 21.12 19.36 21.28C19.0133 21.2267 18.6267 21.1867 18.2 21.16C17.7733 21.1067 17.2667 21.08 16.68 21.08C15.48 21.08 14.28 21.1867 13.08 21.4C11.88 21.6133 10.7333 21.7867 9.64 21.92C8.44 24.7467 7.45333 27.4 6.68 29.88C5.90667 32.36 5.30667 34.8133 4.88 37.24C3.97333 37.0267 3.17333 36.64 2.48 36.08C1.78667 35.52 1.13333 34.7333 0.52 33.72C0.706667 33.2933 0.933334 32.7867 1.2 32.2C1.46667 31.5867 1.78667 30.8267 2.16 29.92C2.53333 28.9867 2.97333 27.8667 3.48 26.56C4.01333 25.2267 4.64 23.64 5.36 21.8C4.24 21.4267 3.50667 20.7733 3.16 19.84C3.29333 19.7067 3.66667 19.56 4.28 19.4C4.89333 19.2133 5.64 19.0133 6.52 18.8C6.92 17.76 7.26667 16.84 7.56 16.04C7.85333 15.2133 8.12 14.44 8.36 13.72C8.6 12.9733 8.81333 12.2533 9 11.56C9.21333 10.84 9.4 10.08 9.56 9.28H9.36C8.34667 9.28 7.52 9.04 6.88 8.56C6.26667 8.08 5.96 7.45333 5.96 6.68C5.96 6.46667 5.98667 6.21333 6.04 5.92C6.12 5.62666 6.21333 5.37333 6.32 5.16C6.82667 5.24 7.32 5.29333 7.8 5.32C8.30667 5.34667 8.96 5.36 9.76 5.36C11.44 5.36 13.0133 5.32 14.48 5.24C15.9467 5.13333 17.2667 5.02666 18.44 4.92C19.64 4.81333 20.6667 4.72 21.52 4.64C22.3733 4.53333 23.0267 4.48 23.48 4.48C24.0933 4.48 24.64 4.8 25.12 5.44C25.6 6.08 25.9733 6.98666 26.24 8.16C25.3867 8.08 24.6933 8.02666 24.16 8C23.6533 7.97333 23.2 7.96 22.8 7.96C21.44 7.96 20.1867 8.02667 19.04 8.16C17.92 8.26667 16.8533 8.4 15.84 8.56C15.68 8.8 15.4933 9.10667 15.28 9.48C15.0933 9.85333 14.84 10.3867 14.52 11.08C14.2 11.7467 13.7867 12.6267 13.28 13.72C12.8 14.8133 12.1867 16.2 11.44 17.88C12.48 17.72 13.4667 17.5867 14.4 17.48C15.36 17.3733 16.16 17.32 16.8 17.32ZM21.6759 31.44C21.6759 30.2667 21.9559 28.6267 22.5159 26.52C23.0759 24.3867 23.8626 21.9067 24.8759 19.08C26.5293 14.5733 28.0759 10.8267 29.5159 7.84C30.9826 4.82667 32.4093 2.48 33.7959 0.799998C34.1159 0.853331 34.5026 0.986664 34.9559 1.2C35.4359 1.41333 35.9026 1.65333 36.3559 1.92C36.8093 2.16 37.2093 2.41333 37.5559 2.68C37.9293 2.94666 38.1693 3.16 38.2759 3.32C36.1959 5.77333 34.3693 8.41333 32.7959 11.24C31.2226 14.0667 29.7826 17.3067 28.4759 20.96C27.3559 24.1067 26.5026 26.9467 25.9159 29.48C25.3293 31.9867 25.0359 34.08 25.0359 35.76C25.0359 36.2133 25.0359 36.4933 25.0359 36.6C25.0359 36.7067 25.0493 36.8133 25.0759 36.92C24.7026 36.8667 24.3826 36.7733 24.1159 36.64C23.8493 36.5067 23.6759 36.3467 23.5959 36.16C23.5426 36.0267 23.3959 35.8267 23.1559 35.56C22.9159 35.32 22.7026 35.1333 22.5159 35C22.2759 34.84 22.0759 34.4267 21.9159 33.76C21.7559 33.0667 21.6759 32.2933 21.6759 31.44ZM35.7328 35.4C34.2128 35.24 32.9995 34.5733 32.0928 33.4C31.1861 32.2267 30.7328 30.7333 30.7328 28.92C30.7328 27.8533 30.8928 26.7467 31.2128 25.6C31.5328 24.4533 31.9861 23.3467 32.5728 22.28C33.1595 21.1867 33.8528 20.16 34.6528 19.2C35.4528 18.24 36.3195 17.4133 37.2528 16.72C38.7195 15.6267 40.0928 15.08 41.3728 15.08C42.2261 15.5333 43.0661 16.48 43.8928 17.92C44.0261 17.92 44.1461 17.92 44.2528 17.92C44.3595 17.8933 44.4795 17.88 44.6128 17.88C46.0261 17.88 46.7328 19.1333 46.7328 21.64C46.7328 23.32 46.4528 24.92 45.8928 26.44C45.3595 27.9333 44.5995 29.2933 43.6128 30.52C42.6528 31.7467 41.4928 32.7867 40.1328 33.64C38.7995 34.4667 37.3328 35.0533 35.7328 35.4ZM37.7728 22.8C37.3195 23.4133 36.8928 24.08 36.4928 24.8C36.0928 25.52 35.7461 26.2533 35.4528 27C35.1595 27.72 34.9328 28.4267 34.7728 29.12C34.6128 29.7867 34.5328 30.3867 34.5328 30.92C34.5328 31.56 34.6395 32.1733 34.8528 32.76C35.0661 33.3467 35.3061 33.68 35.5728 33.76C36.7728 33.4933 37.8661 33 38.8528 32.28C39.8661 31.5333 40.7328 30.6133 41.4528 29.52C42.1995 28.4267 42.7728 27.1867 43.1728 25.8C43.5995 24.4133 43.8128 22.9333 43.8128 21.36C43.8128 20.6667 43.7728 20.12 43.6928 19.72C43.6128 19.32 43.4795 18.9733 43.2928 18.68C42.1195 19.0267 41.0661 19.5867 40.1328 20.36C39.2261 21.1333 38.4395 21.9467 37.7728 22.8ZM49.0291 32.36C49.0291 31.8267 49.0824 31.08 49.1891 30.12C49.3224 29.16 49.4824 28.12 49.6691 27C49.8824 25.88 50.1091 24.7333 50.3491 23.56C50.6157 22.3867 50.8824 21.3333 51.1491 20.4C51.4957 19.1467 52.0291 18.1867 52.7491 17.52C53.4957 16.8267 54.4157 16.48 55.5091 16.48C56.0957 16.48 56.6691 16.5733 57.2291 16.76C57.8157 16.9467 58.1624 17.1867 58.2691 17.48C57.4957 18.12 56.8691 18.92 56.3891 19.88C55.9357 20.8133 55.5624 21.8267 55.2691 22.92C55.0024 23.9867 54.7891 25.0933 54.6291 26.24C54.4957 27.36 54.3491 28.4133 54.1891 29.4C55.0691 28.2267 55.8957 27.1733 56.6691 26.24C57.4691 25.28 58.1757 24.52 58.7891 23.96C59.6157 23.1867 60.1757 22.5467 60.4691 22.04C60.7624 21.5067 61.0157 20.9333 61.2291 20.32C61.3891 19.84 61.5757 19.28 61.7891 18.64C62.0291 18 62.4157 17.4133 62.9491 16.88C63.0557 16.8533 63.2824 16.84 63.6291 16.84C63.8957 16.84 64.1757 16.8533 64.4691 16.88C64.7891 16.9067 65.0824 16.96 65.3491 17.04C65.6157 17.12 65.8424 17.2133 66.0291 17.32C66.2157 17.4267 66.3224 17.56 66.3491 17.72C65.9224 18.28 65.5224 19.16 65.1491 20.36C64.7757 21.5333 64.4424 22.8267 64.1491 24.24C63.8557 25.6533 63.5891 27.0667 63.3491 28.48C63.1091 29.8667 62.8957 31.04 62.7091 32C62.8157 31.9467 63.0557 31.7333 63.4291 31.36C63.8024 30.9867 64.2157 30.52 64.6691 29.96C65.1491 29.4 65.6424 28.7867 66.1491 28.12C66.6824 27.4533 67.1491 26.8 67.5491 26.16C68.0557 25.3867 68.4691 24.6667 68.7891 24C69.1357 23.3067 69.4291 22.5733 69.6691 21.8C69.9357 21.0267 70.1757 20.1733 70.3891 19.24C70.6024 18.28 70.8291 17.1467 71.0691 15.84C71.2291 15.6267 71.5757 15.4533 72.1091 15.32C72.6691 15.16 73.1757 15.08 73.6291 15.08C74.0291 15.08 74.3224 15.1467 74.5091 15.28C74.3757 16.7733 74.1224 18.1067 73.7491 19.28C73.4024 20.4533 72.9224 21.6 72.3091 22.72C71.6957 23.8133 70.9357 24.92 70.0291 26.04C69.1224 27.1333 68.0557 28.3333 66.8291 29.64C66.3224 30.1733 65.7624 30.76 65.1491 31.4C64.5624 32.04 63.9757 32.64 63.3891 33.2C62.8291 33.7333 62.2957 34.1867 61.7891 34.56C61.3091 34.9333 60.9357 35.12 60.6691 35.12C60.0557 35.12 59.5491 34.88 59.1491 34.4C58.7491 33.92 58.5491 33.3067 58.5491 32.56C58.5491 31.7867 58.5757 31.12 58.6291 30.56C58.7091 29.9733 58.8291 29.36 58.9891 28.72C59.1491 28.1333 59.2691 27.64 59.3491 27.24C59.4557 26.84 59.5357 26.4933 59.5891 26.2C59.6691 25.9067 59.7224 25.6533 59.7491 25.44C59.7757 25.2267 59.8024 25.0133 59.8291 24.8C59.6157 24.9067 59.3357 25.1333 58.9891 25.48C58.6424 25.8 58.2824 26.1867 57.9091 26.64C57.5357 27.0667 57.1624 27.5067 56.7891 27.96C56.4157 28.4133 56.1091 28.8 55.8691 29.12C55.3624 29.8133 54.9224 30.4267 54.5491 30.96C54.1757 31.4933 53.8157 32 53.4691 32.48C53.1491 32.96 52.8291 33.4533 52.5091 33.96C52.1891 34.44 51.8157 34.96 51.3891 35.52C50.5357 35.2533 49.9224 34.8533 49.5491 34.32C49.2024 33.7867 49.0291 33.1333 49.0291 32.36ZM88.3797 17.44C88.273 19.0933 87.9797 20.52 87.4997 21.72C87.0197 22.8933 86.3264 23.9333 85.4197 24.84C84.5397 25.72 83.4597 26.52 82.1797 27.24C80.8997 27.96 79.4064 28.6533 77.6997 29.32C77.6997 29.48 77.6864 29.6533 77.6597 29.84C77.6597 30 77.6597 30.1733 77.6597 30.36C77.6597 30.7067 77.6864 31.0667 77.7397 31.44C77.793 31.8133 77.8864 32.16 78.0197 32.48C78.153 32.8 78.3397 33.0667 78.5797 33.28C78.8197 33.4667 79.1264 33.56 79.4997 33.56C80.2197 33.56 80.9264 33.4 81.6197 33.08C82.313 32.76 82.9664 32.3733 83.5797 31.92C84.2197 31.44 84.8064 30.9333 85.3397 30.4C85.8997 29.84 86.393 29.3333 86.8197 28.88C87.0864 29.12 87.313 29.3467 87.4997 29.56C86.2997 31.16 84.9797 32.4933 83.5397 33.56C82.1264 34.6 80.7797 35.2667 79.4997 35.56C77.6597 35.3467 76.2197 34.68 75.1797 33.56C74.1664 32.4133 73.6597 31.04 73.6597 29.44C73.6597 28.3467 73.8064 27.24 74.0997 26.12C74.4197 24.9733 74.8464 23.88 75.3797 22.84C75.9397 21.7733 76.5797 20.7733 77.2997 19.84C78.0464 18.9067 78.833 18.0933 79.6597 17.4C80.513 16.7067 81.3797 16.16 82.2597 15.76C83.1664 15.36 84.0597 15.16 84.9397 15.16C86.1664 15.32 87.313 16.08 88.3797 17.44ZM85.6197 18.76C84.8997 18.8667 84.153 19.16 83.3797 19.64C82.6064 20.12 81.873 20.76 81.1797 21.56C80.513 22.36 79.8997 23.2933 79.3397 24.36C78.7797 25.4267 78.3397 26.5733 78.0197 27.8C80.153 26.7333 81.9264 25.4267 83.3397 23.88C84.753 22.3067 85.513 20.6 85.6197 18.76ZM89.2716 33.2C89.4049 32.4267 89.6316 31.4133 89.9516 30.16C90.2982 28.88 90.6982 27.5333 91.1516 26.12C91.6049 24.68 92.0849 23.24 92.5916 21.8C93.0982 20.36 93.5916 19.0667 94.0716 17.92C94.4182 17.0933 94.7249 16.4533 94.9916 16C95.2582 15.52 95.5516 15.12 95.8716 14.8C96.2449 14.8533 96.6316 14.9467 97.0316 15.08C97.4316 15.2133 97.8182 15.3733 98.1916 15.56C98.5649 15.7467 98.8982 15.9467 99.1916 16.16C99.4849 16.3467 99.7116 16.5333 99.8716 16.72C99.1516 17.5733 98.5116 18.5467 97.9516 19.64C97.4182 20.7333 96.8716 22.1333 96.3116 23.84C97.7516 22.56 99.0182 21.3333 100.112 20.16C101.232 18.9867 102.272 17.68 103.232 16.24C103.392 16.1067 103.672 16.04 104.072 16.04C104.445 16.04 104.805 16.1067 105.152 16.24C105.498 16.3467 105.738 16.5067 105.872 16.72C105.392 18 105.152 19.2667 105.152 20.52C105.152 21.6933 105.325 22.5733 105.672 23.16C105.645 23.32 105.458 23.6267 105.112 24.08C104.792 24.5333 104.432 24.96 104.032 25.36C103.312 24.9867 102.672 24.48 102.112 23.84C101.552 23.1733 101.138 22.4533 100.872 21.68C99.6182 22.56 98.5516 23.4267 97.6716 24.28C96.7916 25.1067 96.0316 26.04 95.3916 27.08C94.7782 28.0933 94.2449 29.2667 93.7916 30.6C93.3649 31.9333 92.9516 33.52 92.5516 35.36C92.3116 35.3333 92.0182 35.24 91.6716 35.08C91.3516 34.9467 91.0182 34.7733 90.6716 34.56C90.3516 34.3467 90.0582 34.12 89.7916 33.88C89.5249 33.64 89.3516 33.4133 89.2716 33.2ZM129.696 17.84C129.962 17.84 130.269 17.8933 130.616 18C130.989 18.08 131.322 18.2 131.616 18.36C131.909 18.4933 132.149 18.64 132.336 18.8C132.549 18.96 132.656 19.1067 132.656 19.24C132.122 20.36 131.629 21.4933 131.176 22.64C130.722 23.76 130.336 24.84 130.016 25.88C129.696 26.92 129.442 27.8933 129.256 28.8C129.096 29.7067 129.016 30.4933 129.016 31.16C129.016 31.9067 129.096 32.5333 129.256 33.04C129.416 33.52 129.682 33.8667 130.056 34.08C129.736 34.2933 129.322 34.4667 128.816 34.6C128.309 34.7333 127.856 34.8 127.456 34.8C126.016 34.8 125.296 33.8133 125.296 31.84C125.296 30.32 125.802 28.24 126.816 25.6C126.282 26.8267 125.669 27.9867 124.976 29.08C124.282 30.1467 123.576 31.0933 122.856 31.92C122.136 32.7467 121.402 33.4267 120.656 33.96C119.936 34.4667 119.269 34.7733 118.656 34.88C117.669 34.8267 116.869 34.36 116.256 33.48C115.642 32.5733 115.336 31.4267 115.336 30.04C115.336 28.5467 115.656 26.9733 116.296 25.32C116.936 23.6667 117.749 22.1333 118.736 20.72C119.749 19.3067 120.842 18.1333 122.016 17.2C123.189 16.24 124.322 15.7333 125.416 15.68C125.682 15.76 125.976 15.92 126.296 16.16C126.642 16.4 126.962 16.68 127.256 17C127.576 17.32 127.842 17.6533 128.056 18C128.269 18.32 128.389 18.6 128.416 18.84C127.349 19 126.242 19.52 125.096 20.4C123.976 21.28 122.949 22.3467 122.016 23.6C121.109 24.8267 120.362 26.1467 119.776 27.56C119.189 28.9733 118.896 30.2933 118.896 31.52C118.896 32.0267 119.082 32.3467 119.456 32.48C120.229 32.32 121.122 31.6667 122.136 30.52C123.149 29.3467 124.376 27.5467 125.816 25.12C126.082 24.64 126.376 24.1067 126.696 23.52C127.042 22.9333 127.389 22.32 127.736 21.68C128.082 21.04 128.416 20.4 128.736 19.76C129.082 19.0933 129.402 18.4533 129.696 17.84ZM133.725 33.2C133.858 32.4267 134.085 31.4133 134.405 30.16C134.751 28.88 135.151 27.5333 135.605 26.12C136.058 24.68 136.538 23.24 137.045 21.8C137.551 20.36 138.045 19.0667 138.525 17.92C138.871 17.0933 139.178 16.4533 139.445 16C139.711 15.52 140.005 15.12 140.325 14.8C140.698 14.8533 141.085 14.9467 141.485 15.08C141.885 15.2133 142.271 15.3733 142.645 15.56C143.018 15.7467 143.351 15.9467 143.645 16.16C143.938 16.3467 144.165 16.5333 144.325 16.72C143.605 17.5733 142.965 18.5467 142.405 19.64C141.871 20.7333 141.325 22.1333 140.765 23.84C142.205 22.56 143.471 21.3333 144.565 20.16C145.685 18.9867 146.725 17.68 147.685 16.24C147.845 16.1067 148.125 16.04 148.525 16.04C148.898 16.04 149.258 16.1067 149.605 16.24C149.951 16.3467 150.191 16.5067 150.325 16.72C149.845 18 149.605 19.2667 149.605 20.52C149.605 21.6933 149.778 22.5733 150.125 23.16C150.098 23.32 149.911 23.6267 149.565 24.08C149.245 24.5333 148.885 24.96 148.485 25.36C147.765 24.9867 147.125 24.48 146.565 23.84C146.005 23.1733 145.591 22.4533 145.325 21.68C144.071 22.56 143.005 23.4267 142.125 24.28C141.245 25.1067 140.485 26.04 139.845 27.08C139.231 28.0933 138.698 29.2667 138.245 30.6C137.818 31.9333 137.405 33.52 137.005 35.36C136.765 35.3333 136.471 35.24 136.125 35.08C135.805 34.9467 135.471 34.7733 135.125 34.56C134.805 34.3467 134.511 34.12 134.245 33.88C133.978 33.64 133.805 33.4133 133.725 33.2ZM149.858 33.2C149.991 32.4267 150.218 31.4133 150.538 30.16C150.884 28.88 151.284 27.5333 151.738 26.12C152.191 24.68 152.671 23.24 153.178 21.8C153.684 20.36 154.178 19.0667 154.658 17.92C155.004 17.0933 155.311 16.4533 155.578 16C155.844 15.52 156.138 15.12 156.458 14.8C156.831 14.8533 157.218 14.9467 157.618 15.08C158.018 15.2133 158.404 15.3733 158.778 15.56C159.151 15.7467 159.484 15.9467 159.778 16.16C160.071 16.3467 160.298 16.5333 160.458 16.72C159.738 17.5733 159.098 18.5467 158.538 19.64C158.004 20.7333 157.458 22.1333 156.898 23.84C158.338 22.56 159.604 21.3333 160.698 20.16C161.818 18.9867 162.858 17.68 163.818 16.24C163.978 16.1067 164.258 16.04 164.658 16.04C165.031 16.04 165.391 16.1067 165.738 16.24C166.084 16.3467 166.324 16.5067 166.458 16.72C165.978 18 165.738 19.2667 165.738 20.52C165.738 21.6933 165.911 22.5733 166.258 23.16C166.231 23.32 166.044 23.6267 165.698 24.08C165.378 24.5333 165.018 24.96 164.618 25.36C163.898 24.9867 163.258 24.48 162.698 23.84C162.138 23.1733 161.724 22.4533 161.458 21.68C160.204 22.56 159.138 23.4267 158.258 24.28C157.378 25.1067 156.618 26.04 155.978 27.08C155.364 28.0933 154.831 29.2667 154.378 30.6C153.951 31.9333 153.538 33.52 153.138 35.36C152.898 35.3333 152.604 35.24 152.258 35.08C151.938 34.9467 151.604 34.7733 151.258 34.56C150.938 34.3467 150.644 34.12 150.378 33.88C150.111 33.64 149.938 33.4133 149.858 33.2ZM180.75 17.84C181.017 17.84 181.324 17.8933 181.67 18C182.044 18.08 182.377 18.2 182.67 18.36C182.964 18.4933 183.204 18.64 183.39 18.8C183.604 18.96 183.71 19.1067 183.71 19.24C183.177 20.36 182.684 21.4933 182.23 22.64C181.777 23.76 181.39 24.84 181.07 25.88C180.75 26.92 180.497 27.8933 180.31 28.8C180.15 29.7067 180.07 30.4933 180.07 31.16C180.07 31.9067 180.15 32.5333 180.31 33.04C180.47 33.52 180.737 33.8667 181.11 34.08C180.79 34.2933 180.377 34.4667 179.87 34.6C179.364 34.7333 178.91 34.8 178.51 34.8C177.07 34.8 176.35 33.8133 176.35 31.84C176.35 30.32 176.857 28.24 177.87 25.6C177.337 26.8267 176.724 27.9867 176.03 29.08C175.337 30.1467 174.63 31.0933 173.91 31.92C173.19 32.7467 172.457 33.4267 171.71 33.96C170.99 34.4667 170.324 34.7733 169.71 34.88C168.724 34.8267 167.924 34.36 167.31 33.48C166.697 32.5733 166.39 31.4267 166.39 30.04C166.39 28.5467 166.71 26.9733 167.35 25.32C167.99 23.6667 168.804 22.1333 169.79 20.72C170.804 19.3067 171.897 18.1333 173.07 17.2C174.244 16.24 175.377 15.7333 176.47 15.68C176.737 15.76 177.03 15.92 177.35 16.16C177.697 16.4 178.017 16.68 178.31 17C178.63 17.32 178.897 17.6533 179.11 18C179.324 18.32 179.444 18.6 179.47 18.84C178.404 19 177.297 19.52 176.15 20.4C175.03 21.28 174.004 22.3467 173.07 23.6C172.164 24.8267 171.417 26.1467 170.83 27.56C170.244 28.9733 169.95 30.2933 169.95 31.52C169.95 32.0267 170.137 32.3467 170.51 32.48C171.284 32.32 172.177 31.6667 173.19 30.52C174.204 29.3467 175.43 27.5467 176.87 25.12C177.137 24.64 177.43 24.1067 177.75 23.52C178.097 22.9333 178.444 22.32 178.79 21.68C179.137 21.04 179.47 20.4 179.79 19.76C180.137 19.0933 180.457 18.4533 180.75 17.84ZM192.219 14.6C192.913 14.8133 193.566 15.2933 194.179 16.04C194.793 16.76 195.246 17.56 195.539 18.44C195.246 19.16 194.793 20.0267 194.179 21.04C193.566 22.0533 192.953 23.0933 192.339 24.16C191.726 25.2 191.166 26.2 190.659 27.16C190.179 28.0933 189.899 28.8667 189.819 29.48C190.246 29.0267 190.713 28.5067 191.219 27.92C191.753 27.3067 192.259 26.7067 192.739 26.12C193.246 25.5067 193.713 24.96 194.139 24.48C194.566 23.9733 194.899 23.6 195.139 23.36C195.646 22.8267 196.246 22.2133 196.939 21.52C197.633 20.8 198.353 20.1333 199.099 19.52C199.873 18.88 200.646 18.3467 201.419 17.92C202.193 17.4667 202.899 17.24 203.539 17.24C204.233 17.24 204.806 17.48 205.259 17.96C205.739 18.4133 206.113 18.8933 206.379 19.4C206.379 19.4533 206.273 19.5333 206.059 19.64C205.873 19.72 205.593 19.9733 205.219 20.4C204.846 20.88 204.419 21.5467 203.939 22.4C203.486 23.2267 203.033 24.1333 202.579 25.12C202.153 26.08 201.793 27.0667 201.499 28.08C201.206 29.0933 201.059 30.0133 201.059 30.84C201.059 31.5067 201.139 31.9333 201.299 32.12C201.486 32.3067 201.739 32.4 202.059 32.4C202.353 32.4 202.659 32.3333 202.979 32.2C203.299 32.0667 203.553 32 203.739 32C203.846 32.0533 203.926 32.1733 203.979 32.36C204.059 32.52 204.099 32.6667 204.099 32.8C203.886 32.9867 203.633 33.1733 203.339 33.36C203.046 33.5467 202.739 33.72 202.419 33.88C202.099 34.04 201.779 34.1733 201.459 34.28C201.166 34.3867 200.899 34.44 200.659 34.44C199.886 34.44 199.246 34.32 198.739 34.08C198.259 33.8667 197.873 33.5733 197.579 33.2C197.313 32.8267 197.126 32.3867 197.019 31.88C196.913 31.3467 196.859 30.7867 196.859 30.2C196.859 29.88 196.886 29.52 196.939 29.12C196.993 28.72 197.099 28.2533 197.259 27.72C197.419 27.16 197.646 26.5067 197.939 25.76C198.233 24.9867 198.606 24.0667 199.059 23C199.006 23 198.646 23.1867 197.979 23.56C197.313 23.9333 196.593 24.5067 195.819 25.28C194.566 26.48 193.433 27.6667 192.419 28.84C191.433 30.0133 190.419 31.32 189.379 32.76C188.793 33.5867 188.273 34.28 187.819 34.84C187.393 35.4267 187.019 35.8133 186.699 36C186.139 35.68 185.726 35.2267 185.459 34.64C185.193 34.08 184.993 33.4933 184.859 32.88C184.859 32.3733 184.926 31.7333 185.059 30.96C185.219 30.1867 185.419 29.3333 185.659 28.4C185.926 27.44 186.246 26.44 186.619 25.4C186.993 24.36 187.406 23.32 187.859 22.28C188.873 19.9333 189.793 18.0933 190.619 16.76C191.473 15.4267 192.006 14.7067 192.219 14.6ZM199.261 45.92C199.261 45.76 199.314 45.6133 199.421 45.48C199.528 45.3467 199.648 45.2133 199.781 45.08C200.101 45.3733 200.381 45.6 200.621 45.76C200.834 45.92 201.048 46.0533 201.261 46.16C201.448 46.2667 201.648 46.3333 201.861 46.36C202.074 46.3867 202.328 46.4 202.621 46.4C204.008 46.4 205.328 46.0267 206.581 45.28C207.834 44.56 209.008 43.5067 210.101 42.12C211.221 40.7333 212.234 39.04 213.141 37.04C214.048 35.04 214.848 32.7733 215.541 30.24C215.221 30.56 214.821 30.92 214.341 31.32C213.888 31.6933 213.408 32.0533 212.901 32.4C212.394 32.7467 211.888 33.0667 211.381 33.36C210.901 33.6533 210.488 33.8667 210.141 34C209.688 33.92 209.261 33.7333 208.861 33.44C208.488 33.12 208.154 32.7333 207.861 32.28C207.568 31.8267 207.341 31.32 207.181 30.76C207.021 30.1733 206.941 29.56 206.941 28.92C206.941 27.88 207.128 26.8133 207.501 25.72C207.901 24.6267 208.421 23.56 209.061 22.52C209.701 21.4533 210.448 20.4533 211.301 19.52C212.181 18.5867 213.101 17.7733 214.061 17.08C215.048 16.3867 216.034 15.84 217.021 15.44C218.034 15.0133 219.021 14.8 219.981 14.8C220.914 14.8 221.608 15 222.061 15.4C222.541 15.7733 222.888 16.4267 223.101 17.36C222.808 17.2 222.434 17.12 221.981 17.12C221.341 17.12 220.594 17.3733 219.741 17.88C218.914 18.3867 218.061 19.0533 217.181 19.88C216.328 20.68 215.474 21.6133 214.621 22.68C213.768 23.72 213.008 24.7867 212.341 25.88C211.701 26.9733 211.168 28.04 210.741 29.08C210.341 30.12 210.141 31.0533 210.141 31.88C210.141 32.0667 210.154 32.1867 210.181 32.24C210.208 32.2667 210.248 32.28 210.301 32.28C210.541 32.28 210.861 32.1467 211.261 31.88C211.688 31.6133 212.154 31.28 212.661 30.88C213.194 30.4533 213.741 29.9733 214.301 29.44C214.861 28.88 215.394 28.32 215.901 27.76C217.048 26.48 218.088 25.0533 219.021 23.48C219.981 21.88 220.741 20.3333 221.301 18.84C222.021 18.8933 222.661 19.0133 223.221 19.2C223.781 19.3867 224.168 19.5867 224.381 19.8C223.474 21.88 222.741 23.6267 222.181 25.04C221.648 26.4533 221.181 27.7067 220.781 28.8C220.061 30.72 219.381 32.4667 218.741 34.04C218.128 35.64 217.488 37.1067 216.821 38.44C216.181 39.8 215.474 41.0533 214.701 42.2C213.954 43.3733 213.101 44.4933 212.141 45.56C211.688 46.0667 211.168 46.5067 210.581 46.88C210.021 47.28 209.434 47.6133 208.821 47.88C208.234 48.1467 207.648 48.3467 207.061 48.48C206.501 48.6133 205.981 48.68 205.501 48.68C204.861 48.68 204.208 48.6 203.541 48.44C202.874 48.3067 202.261 48.1067 201.701 47.84C201.114 47.6 200.608 47.3067 200.181 46.96C199.754 46.64 199.448 46.2933 199.261 45.92ZM239.669 17.44C239.562 19.0933 239.269 20.52 238.789 21.72C238.309 22.8933 237.615 23.9333 236.709 24.84C235.829 25.72 234.749 26.52 233.469 27.24C232.189 27.96 230.695 28.6533 228.989 29.32C228.989 29.48 228.975 29.6533 228.949 29.84C228.949 30 228.949 30.1733 228.949 30.36C228.949 30.7067 228.975 31.0667 229.029 31.44C229.082 31.8133 229.175 32.16 229.309 32.48C229.442 32.8 229.629 33.0667 229.869 33.28C230.109 33.4667 230.415 33.56 230.789 33.56C231.509 33.56 232.215 33.4 232.909 33.08C233.602 32.76 234.255 32.3733 234.869 31.92C235.509 31.44 236.095 30.9333 236.629 30.4C237.189 29.84 237.682 29.3333 238.109 28.88C238.375 29.12 238.602 29.3467 238.789 29.56C237.589 31.16 236.269 32.4933 234.829 33.56C233.415 34.6 232.069 35.2667 230.789 35.56C228.949 35.3467 227.509 34.68 226.469 33.56C225.455 32.4133 224.949 31.04 224.949 29.44C224.949 28.3467 225.095 27.24 225.389 26.12C225.709 24.9733 226.135 23.88 226.669 22.84C227.229 21.7733 227.869 20.7733 228.589 19.84C229.335 18.9067 230.122 18.0933 230.949 17.4C231.802 16.7067 232.669 16.16 233.549 15.76C234.455 15.36 235.349 15.16 236.229 15.16C237.455 15.32 238.602 16.08 239.669 17.44ZM236.909 18.76C236.189 18.8667 235.442 19.16 234.669 19.64C233.895 20.12 233.162 20.76 232.469 21.56C231.802 22.36 231.189 23.2933 230.629 24.36C230.069 25.4267 229.629 26.5733 229.309 27.8C231.442 26.7333 233.215 25.4267 234.629 23.88C236.042 22.3067 236.802 20.6 236.909 18.76ZM264.641 21.72C264.214 21.7467 263.694 22.0267 263.081 22.56C262.467 23.0667 261.801 23.7333 261.081 24.56C260.387 25.36 259.654 26.2533 258.881 27.24C258.134 28.2267 257.401 29.2133 256.681 30.2C255.987 31.16 255.334 32.0667 254.721 32.92C254.107 33.7733 253.587 34.4533 253.161 34.96C252.574 34.72 252.067 34.3733 251.641 33.92C251.214 33.44 250.907 32.8533 250.721 32.16C250.854 31.3333 251.041 30.48 251.281 29.6C251.521 28.6933 251.827 27.76 252.201 26.8C252.601 25.84 253.081 24.84 253.641 23.8C254.227 22.7333 254.934 21.6133 255.761 20.44C255.361 20.4667 254.814 20.76 254.121 21.32C253.427 21.8533 252.681 22.56 251.881 23.44C251.081 24.2933 250.254 25.2667 249.401 26.36C248.547 27.4267 247.747 28.48 247.001 29.52C246.014 30.9067 245.187 32.12 244.521 33.16C243.881 34.2 243.414 34.8133 243.121 35C242.427 34.4933 241.947 33.9467 241.681 33.36C241.414 32.7733 241.214 32.12 241.081 31.4C241.107 30.76 241.201 29.96 241.361 29C241.547 28.04 241.801 27.0533 242.121 26.04C242.734 24.0933 243.521 22.16 244.481 20.24C245.467 18.32 246.414 16.56 247.321 14.96C248.067 15.12 248.734 15.3733 249.321 15.72C249.934 16.0667 250.574 16.5733 251.241 17.24C250.974 18.0667 250.561 18.9467 250.001 19.88C249.441 20.7867 248.854 21.7467 248.241 22.76C247.627 23.7733 247.067 24.8133 246.561 25.88C246.054 26.9467 245.721 28.0267 245.561 29.12C246.307 28.0533 247.187 26.8267 248.201 25.44C249.241 24.0533 250.294 22.7467 251.361 21.52C252.454 20.2933 253.534 19.2533 254.601 18.4C255.667 17.5467 256.627 17.12 257.481 17.12C257.801 17.12 258.147 17.1733 258.521 17.28C258.894 17.3867 259.241 17.52 259.561 17.68C259.881 17.84 260.147 18 260.361 18.16C260.574 18.2933 260.694 18.4 260.721 18.48C260.587 19.0133 260.267 19.7467 259.761 20.68C259.281 21.5867 258.761 22.5467 258.201 23.56C257.641 24.5733 257.121 25.56 256.641 26.52C256.161 27.4533 255.881 28.2 255.801 28.76C257.107 26.9733 258.334 25.36 259.481 23.92C260.627 22.4533 261.707 21.2 262.721 20.16C263.734 19.12 264.667 18.32 265.521 17.76C266.401 17.2 267.227 16.92 268.001 16.92C268.534 16.92 269.027 17.0667 269.481 17.36C269.961 17.6267 270.294 18.0267 270.481 18.56C270.241 19.36 269.841 20.32 269.281 21.44C268.747 22.56 268.201 23.7467 267.641 25C267.081 26.2267 266.574 27.44 266.121 28.64C265.694 29.84 265.481 30.92 265.481 31.88C265.481 32.44 265.561 32.8133 265.721 33C265.881 33.16 266.107 33.24 266.401 33.24C266.721 33.24 267.014 33.1867 267.281 33.08C267.574 32.9467 267.787 32.88 267.921 32.88C268.081 32.9867 268.174 33.12 268.201 33.28C268.227 33.44 268.241 33.5867 268.241 33.72C267.707 34.1467 267.161 34.4933 266.601 34.76C266.041 35.0533 265.414 35.2 264.721 35.2C264.081 35.2 263.547 35.0933 263.121 34.88C262.721 34.6667 262.387 34.3733 262.121 34C261.854 33.6267 261.667 33.2 261.561 32.72C261.454 32.24 261.401 31.72 261.401 31.16C261.401 30.2533 261.521 29.36 261.761 28.48C262.001 27.5733 262.281 26.72 262.601 25.92C262.947 25.0933 263.307 24.3333 263.681 23.64C264.054 22.92 264.374 22.28 264.641 21.72ZM286.427 17.44C286.32 19.0933 286.027 20.52 285.547 21.72C285.067 22.8933 284.373 23.9333 283.467 24.84C282.587 25.72 281.507 26.52 280.227 27.24C278.947 27.96 277.453 28.6533 275.747 29.32C275.747 29.48 275.733 29.6533 275.707 29.84C275.707 30 275.707 30.1733 275.707 30.36C275.707 30.7067 275.733 31.0667 275.787 31.44C275.84 31.8133 275.933 32.16 276.067 32.48C276.2 32.8 276.387 33.0667 276.627 33.28C276.867 33.4667 277.173 33.56 277.547 33.56C278.267 33.56 278.973 33.4 279.667 33.08C280.36 32.76 281.013 32.3733 281.627 31.92C282.267 31.44 282.853 30.9333 283.387 30.4C283.947 29.84 284.44 29.3333 284.867 28.88C285.133 29.12 285.36 29.3467 285.547 29.56C284.347 31.16 283.027 32.4933 281.587 33.56C280.173 34.6 278.827 35.2667 277.547 35.56C275.707 35.3467 274.267 34.68 273.227 33.56C272.213 32.4133 271.707 31.04 271.707 29.44C271.707 28.3467 271.853 27.24 272.147 26.12C272.467 24.9733 272.893 23.88 273.427 22.84C273.987 21.7733 274.627 20.7733 275.347 19.84C276.093 18.9067 276.88 18.0933 277.707 17.4C278.56 16.7067 279.427 16.16 280.307 15.76C281.213 15.36 282.107 15.16 282.987 15.16C284.213 15.32 285.36 16.08 286.427 17.44ZM283.667 18.76C282.947 18.8667 282.2 19.16 281.427 19.64C280.653 20.12 279.92 20.76 279.227 21.56C278.56 22.36 277.947 23.2933 277.387 24.36C276.827 25.4267 276.387 26.5733 276.067 27.8C278.2 26.7333 279.973 25.4267 281.387 23.88C282.8 22.3067 283.56 20.6 283.667 18.76ZM294.758 14.6C295.452 14.8133 296.105 15.2933 296.718 16.04C297.332 16.76 297.785 17.56 298.078 18.44C297.785 19.16 297.332 20.0267 296.718 21.04C296.105 22.0533 295.492 23.0933 294.878 24.16C294.265 25.2 293.705 26.2 293.198 27.16C292.718 28.0933 292.438 28.8667 292.358 29.48C292.785 29.0267 293.252 28.5067 293.758 27.92C294.292 27.3067 294.798 26.7067 295.278 26.12C295.785 25.5067 296.252 24.96 296.678 24.48C297.105 23.9733 297.438 23.6 297.678 23.36C298.185 22.8267 298.785 22.2133 299.478 21.52C300.172 20.8 300.892 20.1333 301.638 19.52C302.412 18.88 303.185 18.3467 303.958 17.92C304.732 17.4667 305.438 17.24 306.078 17.24C306.772 17.24 307.345 17.48 307.798 17.96C308.278 18.4133 308.652 18.8933 308.918 19.4C308.918 19.4533 308.812 19.5333 308.598 19.64C308.412 19.72 308.132 19.9733 307.758 20.4C307.385 20.88 306.958 21.5467 306.478 22.4C306.025 23.2267 305.572 24.1333 305.118 25.12C304.692 26.08 304.332 27.0667 304.038 28.08C303.745 29.0933 303.598 30.0133 303.598 30.84C303.598 31.5067 303.678 31.9333 303.838 32.12C304.025 32.3067 304.278 32.4 304.598 32.4C304.892 32.4 305.198 32.3333 305.518 32.2C305.838 32.0667 306.092 32 306.278 32C306.385 32.0533 306.465 32.1733 306.518 32.36C306.598 32.52 306.638 32.6667 306.638 32.8C306.425 32.9867 306.172 33.1733 305.878 33.36C305.585 33.5467 305.278 33.72 304.958 33.88C304.638 34.04 304.318 34.1733 303.998 34.28C303.705 34.3867 303.438 34.44 303.198 34.44C302.425 34.44 301.785 34.32 301.278 34.08C300.798 33.8667 300.412 33.5733 300.118 33.2C299.852 32.8267 299.665 32.3867 299.558 31.88C299.452 31.3467 299.398 30.7867 299.398 30.2C299.398 29.88 299.425 29.52 299.478 29.12C299.532 28.72 299.638 28.2533 299.798 27.72C299.958 27.16 300.185 26.5067 300.478 25.76C300.772 24.9867 301.145 24.0667 301.598 23C301.545 23 301.185 23.1867 300.518 23.56C299.852 23.9333 299.132 24.5067 298.358 25.28C297.105 26.48 295.972 27.6667 294.958 28.84C293.972 30.0133 292.958 31.32 291.918 32.76C291.332 33.5867 290.812 34.28 290.358 34.84C289.932 35.4267 289.558 35.8133 289.238 36C288.678 35.68 288.265 35.2267 287.998 34.64C287.732 34.08 287.532 33.4933 287.398 32.88C287.398 32.3733 287.465 31.7333 287.598 30.96C287.758 30.1867 287.958 29.3333 288.198 28.4C288.465 27.44 288.785 26.44 289.158 25.4C289.532 24.36 289.945 23.32 290.398 22.28C291.412 19.9333 292.332 18.0933 293.158 16.76C294.012 15.4267 294.545 14.7067 294.758 14.6ZM312.24 18.68C312.107 18.52 311.987 18.1867 311.88 17.68C311.773 17.1467 311.72 16.6933 311.72 16.32C312.413 16.3733 313.08 16.4267 313.72 16.48C314.36 16.5067 314.947 16.5333 315.48 16.56C315.88 15.76 316.307 14.9733 316.76 14.2C317.24 13.4 317.693 12.68 318.12 12.04C318.573 11.3733 318.987 10.8133 319.36 10.36C319.76 9.90667 320.067 9.61333 320.28 9.48C320.547 9.48 320.88 9.53333 321.28 9.64C321.707 9.72 322.133 9.84 322.56 10C322.987 10.1333 323.373 10.28 323.72 10.44C324.067 10.6 324.307 10.76 324.44 10.92C323.64 11.9333 322.947 12.88 322.36 13.76C321.8 14.6133 321.187 15.6 320.52 16.72C321.053 16.72 321.587 16.7067 322.12 16.68C322.68 16.6533 323.24 16.6133 323.8 16.56C323.933 16.6933 324.04 16.8667 324.12 17.08C324.2 17.2667 324.24 17.4667 324.24 17.68C322.933 18.16 321.347 18.4267 319.48 18.48C318.813 19.76 318.213 21.04 317.68 22.32C317.173 23.5733 316.733 24.7867 316.36 25.96C316.013 27.1333 315.733 28.24 315.52 29.28C315.333 30.32 315.24 31.2533 315.24 32.08C315.24 33.2533 315.68 33.9067 316.56 34.04C317.36 33.9333 318.12 33.7333 318.84 33.44C319.56 33.1467 320.2 32.7733 320.76 32.32C320.92 32.56 321.013 32.76 321.04 32.92C320.88 33.16 320.6 33.44 320.2 33.76C319.827 34.08 319.413 34.3867 318.96 34.68C318.507 35 318.067 35.2667 317.64 35.48C317.213 35.6933 316.893 35.8133 316.68 35.84C316.013 35.8133 315.347 35.6667 314.68 35.4C314.013 35.1333 313.4 34.8 312.84 34.4C312.307 34 311.867 33.56 311.52 33.08C311.173 32.5733 311 32.08 311 31.6C311 30.96 311.08 30.16 311.24 29.2C311.427 28.2133 311.68 27.1467 312 26C312.32 24.8533 312.693 23.6533 313.12 22.4C313.547 21.1467 314.013 19.9067 314.52 18.68H312.24ZM337.743 18.08C337.716 18.5867 337.623 19.12 337.463 19.68C337.329 20.2133 337.156 20.7067 336.943 21.16C336.729 21.5867 336.503 21.9467 336.263 22.24C336.023 22.5333 335.796 22.68 335.583 22.68C335.289 22.6533 335.116 22.4533 335.063 22.08C335.063 22 335.089 21.88 335.143 21.72C335.223 21.5333 335.303 21.3333 335.383 21.12C335.463 20.9067 335.529 20.6933 335.583 20.48C335.663 20.2667 335.703 20.08 335.703 19.92C335.703 19.5467 335.609 19.24 335.423 19C335.263 18.7333 335.036 18.6 334.743 18.6C333.676 18.6 332.863 19.2667 332.303 20.6C331.743 21.9333 331.463 23.8933 331.463 26.48C331.463 26.7467 331.476 26.9067 331.503 26.96C332.063 26.9333 332.556 26.92 332.983 26.92C333.436 26.8933 333.876 26.88 334.303 26.88C334.329 26.9333 334.343 27.04 334.343 27.2C334.343 27.44 334.289 27.6133 334.183 27.72C333.569 27.8533 333.076 27.9733 332.703 28.08C332.356 28.16 332.089 28.24 331.903 28.32C331.716 28.4 331.596 28.4933 331.543 28.6C331.516 28.68 331.503 28.8 331.503 28.96C331.503 29.1733 331.503 29.3867 331.503 29.6C331.529 29.8133 331.543 30.08 331.543 30.4C331.543 32.64 330.929 34.44 329.703 35.8C328.503 37.16 326.823 37.9467 324.663 38.16C324.289 38.1333 323.903 38.0267 323.503 37.84C323.103 37.6533 322.716 37.4133 322.343 37.12C321.996 36.8267 321.689 36.4933 321.423 36.12C321.156 35.7733 320.969 35.4133 320.863 35.04C320.863 34.0267 321.076 33.0667 321.503 32.16C321.929 31.2267 322.503 30.4133 323.223 29.72C323.969 29 324.836 28.4267 325.823 28C326.836 27.5467 327.929 27.28 329.103 27.2C329.103 26.5333 329.036 25.88 328.903 25.24C328.769 24.6 328.623 23.9867 328.463 23.4C328.329 22.7867 328.196 22.2 328.063 21.64C327.929 21.0533 327.863 20.48 327.863 19.92C327.863 19.2 328.009 18.4933 328.303 17.8C328.596 17.08 328.983 16.4267 329.463 15.84C329.943 15.2267 330.503 14.7067 331.143 14.28C331.783 13.8533 332.449 13.56 333.143 13.4C333.436 13.48 333.823 13.72 334.303 14.12C334.809 14.4933 335.303 14.92 335.783 15.4C336.263 15.88 336.689 16.3733 337.063 16.88C337.436 17.36 337.663 17.76 337.743 18.08ZM324.543 36.32C325.183 36.0533 325.783 35.6667 326.343 35.16C326.929 34.6533 327.436 34.08 327.863 33.44C328.289 32.8 328.623 32.12 328.863 31.4C329.129 30.68 329.263 29.9733 329.263 29.28C328.729 29.36 328.143 29.6133 327.503 30.04C326.863 30.44 326.263 30.9333 325.703 31.52C325.143 32.08 324.676 32.6667 324.303 33.28C323.929 33.8933 323.743 34.4267 323.743 34.88C323.743 35.4667 324.009 35.9467 324.543 36.32Z" fill="#6FDCF6"/>
</svg>
