<svg width="210" height="49" viewBox="0 0 210 49" fill="none" xmlns="http://www.w3.org/2000/svg">
<path d="M16.8 17.32C17.6533 17.32 18.32 17.56 18.8 18.04C19.3067 18.52 19.56 19.1867 19.56 20.04C19.56 20.2533 19.5467 20.48 19.52 20.72C19.4933 20.9333 19.44 21.12 19.36 21.28C19.0133 21.2267 18.6267 21.1867 18.2 21.16C17.7733 21.1067 17.2667 21.08 16.68 21.08C15.48 21.08 14.28 21.1867 13.08 21.4C11.88 21.6133 10.7333 21.7867 9.64 21.92C8.44 24.7467 7.45333 27.4 6.68 29.88C5.90667 32.36 5.30667 34.8133 4.88 37.24C3.97333 37.0267 3.17333 36.64 2.48 36.08C1.78667 35.52 1.13333 34.7333 0.52 33.72C0.706667 33.2933 0.933334 32.7867 1.2 32.2C1.46667 31.5867 1.78667 30.8267 2.16 29.92C2.53333 28.9867 2.97333 27.8667 3.48 26.56C4.01333 25.2267 4.64 23.64 5.36 21.8C4.24 21.4267 3.50667 20.7733 3.16 19.84C3.29333 19.7067 3.66667 19.56 4.28 19.4C4.89333 19.2133 5.64 19.0133 6.52 18.8C6.92 17.76 7.26667 16.84 7.56 16.04C7.85333 15.2133 8.12 14.44 8.36 13.72C8.6 12.9733 8.81333 12.2533 9 11.56C9.21333 10.84 9.4 10.08 9.56 9.28H9.36C8.34667 9.28 7.52 9.04 6.88 8.56C6.26667 8.08 5.96 7.45333 5.96 6.68C5.96 6.46667 5.98667 6.21333 6.04 5.92C6.12 5.62666 6.21333 5.37333 6.32 5.16C6.82667 5.24 7.32 5.29333 7.8 5.32C8.30667 5.34667 8.96 5.36 9.76 5.36C11.44 5.36 13.0133 5.32 14.48 5.24C15.9467 5.13333 17.2667 5.02666 18.44 4.92C19.64 4.81333 20.6667 4.72 21.52 4.64C22.3733 4.53333 23.0267 4.48 23.48 4.48C24.0933 4.48 24.64 4.8 25.12 5.44C25.6 6.08 25.9733 6.98666 26.24 8.16C25.3867 8.08 24.6933 8.02666 24.16 8C23.6533 7.97333 23.2 7.96 22.8 7.96C21.44 7.96 20.1867 8.02667 19.04 8.16C17.92 8.26667 16.8533 8.4 15.84 8.56C15.68 8.8 15.4933 9.10667 15.28 9.48C15.0933 9.85333 14.84 10.3867 14.52 11.08C14.2 11.7467 13.7867 12.6267 13.28 13.72C12.8 14.8133 12.1867 16.2 11.44 17.88C12.48 17.72 13.4667 17.5867 14.4 17.48C15.36 17.3733 16.16 17.32 16.8 17.32ZM20.2872 33.2C20.4205 32.4267 20.6472 31.4133 20.9672 30.16C21.3139 28.88 21.7139 27.5333 22.1672 26.12C22.6205 24.68 23.1005 23.24 23.6072 21.8C24.1139 20.36 24.6072 19.0667 25.0872 17.92C25.4339 17.0933 25.7405 16.4533 26.0072 16C26.2739 15.52 26.5672 15.12 26.8872 14.8C27.2605 14.8533 27.6472 14.9467 28.0472 15.08C28.4472 15.2133 28.8339 15.3733 29.2072 15.56C29.5805 15.7467 29.9139 15.9467 30.2072 16.16C30.5005 16.3467 30.7272 16.5333 30.8872 16.72C30.1672 17.5733 29.5272 18.5467 28.9672 19.64C28.4339 20.7333 27.8872 22.1333 27.3272 23.84C28.7672 22.56 30.0339 21.3333 31.1272 20.16C32.2472 18.9867 33.2872 17.68 34.2472 16.24C34.4072 16.1067 34.6872 16.04 35.0872 16.04C35.4605 16.04 35.8205 16.1067 36.1672 16.24C36.5139 16.3467 36.7539 16.5067 36.8872 16.72C36.4072 18 36.1672 19.2667 36.1672 20.52C36.1672 21.6933 36.3405 22.5733 36.6872 23.16C36.6605 23.32 36.4739 23.6267 36.1272 24.08C35.8072 24.5333 35.4472 24.96 35.0472 25.36C34.3272 24.9867 33.6872 24.48 33.1272 23.84C32.5672 23.1733 32.1539 22.4533 31.8872 21.68C30.6339 22.56 29.5672 23.4267 28.6872 24.28C27.8072 25.1067 27.0472 26.04 26.4072 27.08C25.7939 28.0933 25.2605 29.2667 24.8072 30.6C24.3805 31.9333 23.9672 33.52 23.5672 35.36C23.3272 35.3333 23.0339 35.24 22.6872 35.08C22.3672 34.9467 22.0339 34.7733 21.6872 34.56C21.3672 34.3467 21.0739 34.12 20.8072 33.88C20.5405 33.64 20.3672 33.4133 20.2872 33.2ZM51.7 17.44C51.5933 19.0933 51.3 20.52 50.82 21.72C50.34 22.8933 49.6467 23.9333 48.74 24.84C47.86 25.72 46.78 26.52 45.5 27.24C44.22 27.96 42.7267 28.6533 41.02 29.32C41.02 29.48 41.0067 29.6533 40.98 29.84C40.98 30 40.98 30.1733 40.98 30.36C40.98 30.7067 41.0067 31.0667 41.06 31.44C41.1133 31.8133 41.2067 32.16 41.34 32.48C41.4733 32.8 41.66 33.0667 41.9 33.28C42.14 33.4667 42.4467 33.56 42.82 33.56C43.54 33.56 44.2467 33.4 44.94 33.08C45.6333 32.76 46.2867 32.3733 46.9 31.92C47.54 31.44 48.1267 30.9333 48.66 30.4C49.22 29.84 49.7133 29.3333 50.14 28.88C50.4067 29.12 50.6333 29.3467 50.82 29.56C49.62 31.16 48.3 32.4933 46.86 33.56C45.4467 34.6 44.1 35.2667 42.82 35.56C40.98 35.3467 39.54 34.68 38.5 33.56C37.4867 32.4133 36.98 31.04 36.98 29.44C36.98 28.3467 37.1267 27.24 37.42 26.12C37.74 24.9733 38.1667 23.88 38.7 22.84C39.26 21.7733 39.9 20.7733 40.62 19.84C41.3667 18.9067 42.1533 18.0933 42.98 17.4C43.8333 16.7067 44.7 16.16 45.58 15.76C46.4867 15.36 47.38 15.16 48.26 15.16C49.4867 15.32 50.6333 16.08 51.7 17.44ZM48.94 18.76C48.22 18.8667 47.4733 19.16 46.7 19.64C45.9267 20.12 45.1933 20.76 44.5 21.56C43.8333 22.36 43.22 23.2933 42.66 24.36C42.1 25.4267 41.66 26.5733 41.34 27.8C43.4733 26.7333 45.2467 25.4267 46.66 23.88C48.0733 22.3067 48.8333 20.6 48.94 18.76ZM67.3519 18.08C67.3252 18.5867 67.2319 19.12 67.0719 19.68C66.9385 20.2133 66.7652 20.7067 66.5519 21.16C66.3385 21.5867 66.1119 21.9467 65.8719 22.24C65.6319 22.5333 65.4052 22.68 65.1919 22.68C64.8985 22.6533 64.7252 22.4533 64.6719 22.08C64.6719 22 64.6985 21.88 64.7519 21.72C64.8319 21.5333 64.9119 21.3333 64.9919 21.12C65.0719 20.9067 65.1385 20.6933 65.1919 20.48C65.2719 20.2667 65.3119 20.08 65.3119 19.92C65.3119 19.5467 65.2185 19.24 65.0319 19C64.8719 18.7333 64.6452 18.6 64.3519 18.6C63.2852 18.6 62.4719 19.2667 61.9119 20.6C61.3519 21.9333 61.0719 23.8933 61.0719 26.48C61.0719 26.7467 61.0852 26.9067 61.1119 26.96C61.6719 26.9333 62.1652 26.92 62.5919 26.92C63.0452 26.8933 63.4852 26.88 63.9119 26.88C63.9385 26.9333 63.9519 27.04 63.9519 27.2C63.9519 27.44 63.8985 27.6133 63.7919 27.72C63.1785 27.8533 62.6852 27.9733 62.3119 28.08C61.9652 28.16 61.6985 28.24 61.5119 28.32C61.3252 28.4 61.2052 28.4933 61.1519 28.6C61.1252 28.68 61.1119 28.8 61.1119 28.96C61.1119 29.1733 61.1119 29.3867 61.1119 29.6C61.1385 29.8133 61.1519 30.08 61.1519 30.4C61.1519 32.64 60.5385 34.44 59.3119 35.8C58.1119 37.16 56.4319 37.9467 54.2719 38.16C53.8985 38.1333 53.5119 38.0267 53.1119 37.84C52.7119 37.6533 52.3252 37.4133 51.9519 37.12C51.6052 36.8267 51.2985 36.4933 51.0319 36.12C50.7652 35.7733 50.5785 35.4133 50.4719 35.04C50.4719 34.0267 50.6852 33.0667 51.1119 32.16C51.5385 31.2267 52.1119 30.4133 52.8319 29.72C53.5785 29 54.4452 28.4267 55.4319 28C56.4452 27.5467 57.5385 27.28 58.7119 27.2C58.7119 26.5333 58.6452 25.88 58.5119 25.24C58.3785 24.6 58.2319 23.9867 58.0719 23.4C57.9385 22.7867 57.8052 22.2 57.6719 21.64C57.5385 21.0533 57.4719 20.48 57.4719 19.92C57.4719 19.2 57.6185 18.4933 57.9119 17.8C58.2052 17.08 58.5919 16.4267 59.0719 15.84C59.5519 15.2267 60.1119 14.7067 60.7519 14.28C61.3919 13.8533 62.0585 13.56 62.7519 13.4C63.0452 13.48 63.4319 13.72 63.9119 14.12C64.4185 14.4933 64.9119 14.92 65.3919 15.4C65.8719 15.88 66.2985 16.3733 66.6719 16.88C67.0452 17.36 67.2719 17.76 67.3519 18.08ZM54.1519 36.32C54.7919 36.0533 55.3919 35.6667 55.9519 35.16C56.5385 34.6533 57.0452 34.08 57.4719 33.44C57.8985 32.8 58.2319 32.12 58.4719 31.4C58.7385 30.68 58.8719 29.9733 58.8719 29.28C58.3385 29.36 57.7519 29.6133 57.1119 30.04C56.4719 30.44 55.8719 30.9333 55.3119 31.52C54.7519 32.08 54.2852 32.6667 53.9119 33.28C53.5385 33.8933 53.3519 34.4267 53.3519 34.88C53.3519 35.4667 53.6185 35.9467 54.1519 36.32ZM67.34 33.32C67.34 32.3867 67.4333 31.2933 67.62 30.04C67.8067 28.76 68.0733 27.4 68.42 25.96C68.7933 24.52 69.22 23.0133 69.7 21.44C70.2067 19.8667 70.7667 18.2933 71.38 16.72C71.9133 15.3067 72.5267 13.88 73.22 12.44C73.94 11 74.7133 9.58666 75.54 8.2C76.3667 6.81333 77.22 5.49333 78.1 4.24C79.0067 2.98667 79.9133 1.84 80.82 0.799998C81.2467 0.799998 81.7 0.853332 82.18 0.959999C82.6867 1.06667 83.1667 1.21333 83.62 1.4C84.1 1.56 84.5267 1.76 84.9 2C85.3 2.24 85.62 2.48 85.86 2.72C83.86 4.77333 82.06 6.85333 80.46 8.96C78.86 11.04 77.5933 13 76.66 14.84C76.1533 15.8533 75.6867 16.8 75.26 17.68C74.86 18.56 74.4867 19.44 74.14 20.32C73.7933 21.1733 73.4733 22.04 73.18 22.92C72.9133 23.7733 72.66 24.68 72.42 25.64C77.54 19.1067 81.34 15.84 83.82 15.84C84.5133 15.84 85.26 16.0667 86.06 16.52C86.86 16.9733 87.5667 17.5867 88.18 18.36C87.3533 19.2667 86.5 20.36 85.62 21.64C84.74 22.92 83.9267 24.2133 83.18 25.52C82.46 26.8 81.86 28 81.38 29.12C80.9267 30.2133 80.7 31.0267 80.7 31.56C80.7 31.8267 80.74 32.0133 80.82 32.12C80.9 32.2 81.0733 32.24 81.34 32.24C81.74 32.24 82.06 32.1867 82.3 32.08C82.54 31.9733 82.6867 31.92 82.74 31.92C82.8733 32.1333 82.9533 32.28 82.98 32.36C83.0067 32.44 83.02 32.5067 83.02 32.56C83.02 32.6667 82.86 32.8267 82.54 33.04C82.22 33.2267 81.8333 33.4267 81.38 33.64C80.9533 33.8267 80.5267 34 80.1 34.16C79.6733 34.32 79.3533 34.4 79.14 34.4C78.8733 34.4 78.6067 34.32 78.34 34.16C78.0733 34.0267 77.8333 33.84 77.62 33.6C77.4333 33.36 77.2733 33.0933 77.14 32.8C77.0333 32.5067 76.98 32.2 76.98 31.88C76.98 31.48 77.0867 30.8933 77.3 30.12C77.54 29.32 77.86 28.4 78.26 27.36C78.66 26.2933 79.14 25.1333 79.7 23.88C80.26 22.6267 80.86 21.3467 81.5 20.04C81.5 19.9333 81.4467 19.88 81.34 19.88C81.26 19.88 81.0467 19.9867 80.7 20.2C80.38 20.4133 80.0733 20.6267 79.78 20.84C78.82 21.56 77.8467 22.4533 76.86 23.52C75.9 24.56 74.9533 25.7067 74.02 26.96C73.1133 28.2133 72.2467 29.5467 71.42 30.96C70.62 32.3467 69.9267 33.7467 69.34 35.16C69.26 35.3467 69.14 35.52 68.98 35.68C68.82 35.84 68.6867 35.92 68.58 35.92C68.5 35.92 68.38 35.8267 68.22 35.64C68.0867 35.4533 67.9533 35.2133 67.82 34.92C67.7133 34.6533 67.6067 34.3733 67.5 34.08C67.3933 33.7867 67.34 33.5333 67.34 33.32ZM111.575 31.44C111.575 30.2667 111.855 28.6267 112.415 26.52C112.975 24.3867 113.762 21.9067 114.775 19.08C115.602 16.8133 116.389 14.76 117.135 12.92C117.909 11.0533 118.669 9.36 119.415 7.84C118.935 7.70667 118.429 7.61333 117.895 7.56C117.389 7.48 117.015 7.44 116.775 7.44C115.735 7.44 114.802 7.69333 113.975 8.2C113.175 8.70666 112.455 9.4 111.815 10.28C111.175 11.1333 110.602 12.12 110.095 13.24C109.589 14.3333 109.135 15.48 108.735 16.68C109.295 16.6267 109.869 16.5867 110.455 16.56C111.069 16.5333 111.695 16.5067 112.335 16.48C112.015 16.7733 111.735 17.16 111.495 17.64C111.255 18.0933 111.109 18.4267 111.055 18.64H109.855C109.562 18.64 109.269 18.64 108.975 18.64C108.682 18.64 108.389 18.6533 108.095 18.68C106.762 22.8667 105.562 26.52 104.495 29.64C103.455 32.76 102.482 35.4267 101.575 37.64C100.695 39.88 99.842 41.7067 99.0153 43.12C98.2153 44.56 97.402 45.68 96.5753 46.48C95.7753 47.3067 94.922 47.88 94.0153 48.2C93.1086 48.52 92.1086 48.68 91.0153 48.68C89.122 48.68 87.5086 48.04 86.1753 46.76C86.1753 46.5733 86.2286 46.3733 86.3353 46.16C86.442 45.9467 86.562 45.8 86.6953 45.72C87.0686 46.1733 87.562 46.52 88.1753 46.76C88.7886 47.0267 89.4286 47.16 90.0953 47.16C90.7886 47.16 91.4286 47 92.0153 46.68C92.5753 46.3867 93.1353 45.88 93.6953 45.16C94.2286 44.44 94.762 43.4933 95.2953 42.32C95.8553 41.1467 96.4553 39.6933 97.0953 37.96C98.0286 35.4 98.9886 32.4933 99.9753 29.24C100.989 25.9867 102.015 22.5467 103.055 18.92C102.042 18.9733 101.202 19.04 100.535 19.12C99.8686 19.2 99.4286 19.2533 99.2153 19.28C99.1086 19.1733 99.0153 19.0267 98.9353 18.84C98.882 18.6533 98.8553 18.48 98.8553 18.32C99.282 18.1867 99.882 18.0267 100.655 17.84C101.429 17.6533 102.389 17.4667 103.535 17.28C104.175 15.36 104.882 13.6267 105.655 12.08C106.429 10.5067 107.255 9.18667 108.135 8.12C109.042 7.02667 110.002 6.18667 111.015 5.6C112.055 5.01333 113.175 4.72 114.375 4.72C114.722 4.72 115.149 4.78666 115.655 4.92C116.162 5.05333 116.682 5.22666 117.215 5.44C117.749 5.62667 118.269 5.82667 118.775 6.04C119.282 6.25333 119.709 6.42666 120.055 6.56C121.309 4.10666 122.522 2.18666 123.695 0.799998C124.015 0.853331 124.402 0.986664 124.855 1.2C125.335 1.41333 125.802 1.65333 126.255 1.92C126.709 2.16 127.109 2.41333 127.455 2.68C127.829 2.94666 128.069 3.16 128.175 3.32C126.095 5.77333 124.269 8.41333 122.695 11.24C121.122 14.0667 119.682 17.3067 118.375 20.96C117.255 24.1067 116.402 26.9467 115.815 29.48C115.229 31.9867 114.935 34.08 114.935 35.76C114.935 36.2133 114.935 36.4933 114.935 36.6C114.935 36.7067 114.949 36.8133 114.975 36.92C114.602 36.8667 114.282 36.7733 114.015 36.64C113.749 36.5067 113.575 36.3467 113.495 36.16C113.442 36.0267 113.295 35.8267 113.055 35.56C112.815 35.32 112.602 35.1333 112.415 35C112.175 34.84 111.975 34.4267 111.815 33.76C111.655 33.0667 111.575 32.2933 111.575 31.44ZM125.616 35.4C124.096 35.24 122.882 34.5733 121.976 33.4C121.069 32.2267 120.616 30.7333 120.616 28.92C120.616 27.8533 120.776 26.7467 121.096 25.6C121.416 24.4533 121.869 23.3467 122.456 22.28C123.042 21.1867 123.736 20.16 124.536 19.2C125.336 18.24 126.202 17.4133 127.136 16.72C128.602 15.6267 129.976 15.08 131.256 15.08C132.109 15.5333 132.949 16.48 133.776 17.92C133.909 17.92 134.029 17.92 134.136 17.92C134.242 17.8933 134.362 17.88 134.496 17.88C135.909 17.88 136.616 19.1333 136.616 21.64C136.616 23.32 136.336 24.92 135.776 26.44C135.242 27.9333 134.482 29.2933 133.496 30.52C132.536 31.7467 131.376 32.7867 130.016 33.64C128.682 34.4667 127.216 35.0533 125.616 35.4ZM127.656 22.8C127.202 23.4133 126.776 24.08 126.376 24.8C125.976 25.52 125.629 26.2533 125.336 27C125.042 27.72 124.816 28.4267 124.656 29.12C124.496 29.7867 124.416 30.3867 124.416 30.92C124.416 31.56 124.522 32.1733 124.736 32.76C124.949 33.3467 125.189 33.68 125.456 33.76C126.656 33.4933 127.749 33 128.736 32.28C129.749 31.5333 130.616 30.6133 131.336 29.52C132.082 28.4267 132.656 27.1867 133.056 25.8C133.482 24.4133 133.696 22.9333 133.696 21.36C133.696 20.6667 133.656 20.12 133.576 19.72C133.496 19.32 133.362 18.9733 133.176 18.68C132.002 19.0267 130.949 19.5867 130.016 20.36C129.109 21.1333 128.322 21.9467 127.656 22.8ZM138.912 32.36C138.912 31.8267 138.965 31.08 139.072 30.12C139.205 29.16 139.365 28.12 139.552 27C139.765 25.88 139.992 24.7333 140.232 23.56C140.499 22.3867 140.765 21.3333 141.032 20.4C141.379 19.1467 141.912 18.1867 142.632 17.52C143.379 16.8267 144.299 16.48 145.392 16.48C145.979 16.48 146.552 16.5733 147.112 16.76C147.699 16.9467 148.045 17.1867 148.152 17.48C147.379 18.12 146.752 18.92 146.272 19.88C145.819 20.8133 145.445 21.8267 145.152 22.92C144.885 23.9867 144.672 25.0933 144.512 26.24C144.379 27.36 144.232 28.4133 144.072 29.4C144.952 28.2267 145.779 27.1733 146.552 26.24C147.352 25.28 148.059 24.52 148.672 23.96C149.499 23.1867 150.059 22.5467 150.352 22.04C150.645 21.5067 150.899 20.9333 151.112 20.32C151.272 19.84 151.459 19.28 151.672 18.64C151.912 18 152.299 17.4133 152.832 16.88C152.939 16.8533 153.165 16.84 153.512 16.84C153.779 16.84 154.059 16.8533 154.352 16.88C154.672 16.9067 154.965 16.96 155.232 17.04C155.499 17.12 155.725 17.2133 155.912 17.32C156.099 17.4267 156.205 17.56 156.232 17.72C155.805 18.28 155.405 19.16 155.032 20.36C154.659 21.5333 154.325 22.8267 154.032 24.24C153.739 25.6533 153.472 27.0667 153.232 28.48C152.992 29.8667 152.779 31.04 152.592 32C152.699 31.9467 152.939 31.7333 153.312 31.36C153.685 30.9867 154.099 30.52 154.552 29.96C155.032 29.4 155.525 28.7867 156.032 28.12C156.565 27.4533 157.032 26.8 157.432 26.16C157.939 25.3867 158.352 24.6667 158.672 24C159.019 23.3067 159.312 22.5733 159.552 21.8C159.819 21.0267 160.059 20.1733 160.272 19.24C160.485 18.28 160.712 17.1467 160.952 15.84C161.112 15.6267 161.459 15.4533 161.992 15.32C162.552 15.16 163.059 15.08 163.512 15.08C163.912 15.08 164.205 15.1467 164.392 15.28C164.259 16.7733 164.005 18.1067 163.632 19.28C163.285 20.4533 162.805 21.6 162.192 22.72C161.579 23.8133 160.819 24.92 159.912 26.04C159.005 27.1333 157.939 28.3333 156.712 29.64C156.205 30.1733 155.645 30.76 155.032 31.4C154.445 32.04 153.859 32.64 153.272 33.2C152.712 33.7333 152.179 34.1867 151.672 34.56C151.192 34.9333 150.819 35.12 150.552 35.12C149.939 35.12 149.432 34.88 149.032 34.4C148.632 33.92 148.432 33.3067 148.432 32.56C148.432 31.7867 148.459 31.12 148.512 30.56C148.592 29.9733 148.712 29.36 148.872 28.72C149.032 28.1333 149.152 27.64 149.232 27.24C149.339 26.84 149.419 26.4933 149.472 26.2C149.552 25.9067 149.605 25.6533 149.632 25.44C149.659 25.2267 149.685 25.0133 149.712 24.8C149.499 24.9067 149.219 25.1333 148.872 25.48C148.525 25.8 148.165 26.1867 147.792 26.64C147.419 27.0667 147.045 27.5067 146.672 27.96C146.299 28.4133 145.992 28.8 145.752 29.12C145.245 29.8133 144.805 30.4267 144.432 30.96C144.059 31.4933 143.699 32 143.352 32.48C143.032 32.96 142.712 33.4533 142.392 33.96C142.072 34.44 141.699 34.96 141.272 35.52C140.419 35.2533 139.805 34.8533 139.432 34.32C139.085 33.7867 138.912 33.1333 138.912 32.36ZM178.263 17.44C178.156 19.0933 177.863 20.52 177.383 21.72C176.903 22.8933 176.209 23.9333 175.303 24.84C174.423 25.72 173.343 26.52 172.063 27.24C170.783 27.96 169.289 28.6533 167.583 29.32C167.583 29.48 167.569 29.6533 167.543 29.84C167.543 30 167.543 30.1733 167.543 30.36C167.543 30.7067 167.569 31.0667 167.623 31.44C167.676 31.8133 167.769 32.16 167.903 32.48C168.036 32.8 168.223 33.0667 168.463 33.28C168.703 33.4667 169.009 33.56 169.383 33.56C170.103 33.56 170.809 33.4 171.503 33.08C172.196 32.76 172.849 32.3733 173.463 31.92C174.103 31.44 174.689 30.9333 175.223 30.4C175.783 29.84 176.276 29.3333 176.703 28.88C176.969 29.12 177.196 29.3467 177.383 29.56C176.183 31.16 174.863 32.4933 173.423 33.56C172.009 34.6 170.663 35.2667 169.383 35.56C167.543 35.3467 166.103 34.68 165.062 33.56C164.049 32.4133 163.543 31.04 163.543 29.44C163.543 28.3467 163.689 27.24 163.983 26.12C164.303 24.9733 164.729 23.88 165.263 22.84C165.823 21.7733 166.463 20.7733 167.183 19.84C167.929 18.9067 168.716 18.0933 169.543 17.4C170.396 16.7067 171.263 16.16 172.143 15.76C173.049 15.36 173.943 15.16 174.823 15.16C176.049 15.32 177.196 16.08 178.263 17.44ZM175.503 18.76C174.783 18.8667 174.036 19.16 173.263 19.64C172.489 20.12 171.756 20.76 171.063 21.56C170.396 22.36 169.783 23.2933 169.223 24.36C168.663 25.4267 168.223 26.5733 167.903 27.8C170.036 26.7333 171.809 25.4267 173.223 23.88C174.636 22.3067 175.396 20.6 175.503 18.76ZM179.154 33.2C179.288 32.4267 179.514 31.4133 179.834 30.16C180.181 28.88 180.581 27.5333 181.034 26.12C181.488 24.68 181.968 23.24 182.474 21.8C182.981 20.36 183.474 19.0667 183.954 17.92C184.301 17.0933 184.608 16.4533 184.874 16C185.141 15.52 185.434 15.12 185.754 14.8C186.128 14.8533 186.514 14.9467 186.914 15.08C187.314 15.2133 187.701 15.3733 188.074 15.56C188.448 15.7467 188.781 15.9467 189.074 16.16C189.368 16.3467 189.594 16.5333 189.754 16.72C189.034 17.5733 188.394 18.5467 187.834 19.64C187.301 20.7333 186.754 22.1333 186.194 23.84C187.634 22.56 188.901 21.3333 189.994 20.16C191.114 18.9867 192.154 17.68 193.114 16.24C193.274 16.1067 193.554 16.04 193.954 16.04C194.328 16.04 194.688 16.1067 195.034 16.24C195.381 16.3467 195.621 16.5067 195.754 16.72C195.274 18 195.034 19.2667 195.034 20.52C195.034 21.6933 195.208 22.5733 195.554 23.16C195.528 23.32 195.341 23.6267 194.994 24.08C194.674 24.5333 194.314 24.96 193.914 25.36C193.194 24.9867 192.554 24.48 191.994 23.84C191.434 23.1733 191.021 22.4533 190.754 21.68C189.501 22.56 188.434 23.4267 187.554 24.28C186.674 25.1067 185.914 26.04 185.274 27.08C184.661 28.0933 184.128 29.2667 183.674 30.6C183.248 31.9333 182.834 33.52 182.434 35.36C182.194 35.3333 181.901 35.24 181.554 35.08C181.234 34.9467 180.901 34.7733 180.554 34.56C180.234 34.3467 179.941 34.12 179.674 33.88C179.408 33.64 179.234 33.4133 179.154 33.2ZM209.422 18.08C209.396 18.5867 209.302 19.12 209.142 19.68C209.009 20.2133 208.836 20.7067 208.622 21.16C208.409 21.5867 208.182 21.9467 207.942 22.24C207.702 22.5333 207.476 22.68 207.262 22.68C206.969 22.6533 206.796 22.4533 206.742 22.08C206.742 22 206.769 21.88 206.822 21.72C206.902 21.5333 206.982 21.3333 207.062 21.12C207.142 20.9067 207.209 20.6933 207.262 20.48C207.342 20.2667 207.382 20.08 207.382 19.92C207.382 19.5467 207.289 19.24 207.102 19C206.942 18.7333 206.716 18.6 206.422 18.6C205.356 18.6 204.542 19.2667 203.982 20.6C203.422 21.9333 203.142 23.8933 203.142 26.48C203.142 26.7467 203.156 26.9067 203.182 26.96C203.742 26.9333 204.236 26.92 204.662 26.92C205.116 26.8933 205.556 26.88 205.982 26.88C206.009 26.9333 206.022 27.04 206.022 27.2C206.022 27.44 205.969 27.6133 205.862 27.72C205.249 27.8533 204.756 27.9733 204.382 28.08C204.036 28.16 203.769 28.24 203.582 28.32C203.396 28.4 203.276 28.4933 203.222 28.6C203.196 28.68 203.182 28.8 203.182 28.96C203.182 29.1733 203.182 29.3867 203.182 29.6C203.209 29.8133 203.222 30.08 203.222 30.4C203.222 32.64 202.609 34.44 201.382 35.8C200.182 37.16 198.502 37.9467 196.342 38.16C195.969 38.1333 195.582 38.0267 195.182 37.84C194.782 37.6533 194.396 37.4133 194.022 37.12C193.676 36.8267 193.369 36.4933 193.102 36.12C192.836 35.7733 192.649 35.4133 192.542 35.04C192.542 34.0267 192.756 33.0667 193.182 32.16C193.609 31.2267 194.182 30.4133 194.902 29.72C195.649 29 196.516 28.4267 197.502 28C198.516 27.5467 199.609 27.28 200.782 27.2C200.782 26.5333 200.716 25.88 200.582 25.24C200.449 24.6 200.302 23.9867 200.142 23.4C200.009 22.7867 199.876 22.2 199.742 21.64C199.609 21.0533 199.542 20.48 199.542 19.92C199.542 19.2 199.689 18.4933 199.982 17.8C200.276 17.08 200.662 16.4267 201.142 15.84C201.622 15.2267 202.182 14.7067 202.822 14.28C203.462 13.8533 204.129 13.56 204.822 13.4C205.116 13.48 205.502 13.72 205.982 14.12C206.489 14.4933 206.982 14.92 207.462 15.4C207.942 15.88 208.369 16.3733 208.742 16.88C209.116 17.36 209.342 17.76 209.422 18.08ZM196.222 36.32C196.862 36.0533 197.462 35.6667 198.022 35.16C198.609 34.6533 199.116 34.08 199.542 33.44C199.969 32.8 200.302 32.12 200.542 31.4C200.809 30.68 200.942 29.9733 200.942 29.28C200.409 29.36 199.822 29.6133 199.182 30.04C198.542 30.44 197.942 30.9333 197.382 31.52C196.822 32.08 196.356 32.6667 195.982 33.28C195.609 33.8933 195.422 34.4267 195.422 34.88C195.422 35.4667 195.689 35.9467 196.222 36.32Z" fill="#6FDCF6"/>
</svg>
