<svg width="76" height="43" viewBox="0 0 76 43" fill="none" xmlns="http://www.w3.org/2000/svg">
<path d="M21.2 18.28C21.8933 18.28 22.44 18.52 22.84 19C23.24 19.48 23.44 20.1467 23.44 21C23.44 21.2133 23.4267 21.44 23.4 21.68C23.3733 21.8933 23.3333 22.08 23.28 22.24C22.72 22.1067 22.1067 22.0267 21.44 22C21.28 23.1733 20.8533 24.4133 20.16 25.72C19.4667 27 18.6267 28.2133 17.64 29.36C16.6533 30.48 15.5733 31.4667 14.4 32.32C13.2267 33.1733 12.0667 33.7467 10.92 34.04C7.34667 33.96 4.73333 33.0267 3.08 31.24C1.45333 29.48 0.64 26.72 0.64 22.96C0.64 20.2133 1.14667 17.56 2.16 15C3.17333 12.4133 4.52 10.12 6.2 8.12C7.88 6.12 9.8 4.52 11.96 3.32C14.1467 2.09333 16.4133 1.48 18.76 1.48C20.6 1.48 22.0267 1.86667 23.04 2.64C24.08 3.41333 24.6 4.50667 24.6 5.92C24.6 6.85333 24.3733 7.72 23.92 8.52C23.4933 9.32 22.7733 10.1867 21.76 11.12C21.1467 10.9333 20.6133 10.6133 20.16 10.16C19.7067 9.68 19.4267 9.13333 19.32 8.52C20.2267 7.85333 20.8667 7.24 21.24 6.68C21.6133 6.12 21.8 5.45333 21.8 4.68C21.8 3.45333 21.0667 2.84 19.6 2.84C18.4 2.84 17.1067 3.29333 15.72 4.2C14.36 5.08 12.9867 6.36 11.6 8.04C9.62667 10.4133 8.18667 12.8667 7.28 15.4C6.37333 17.9067 5.92 20.7333 5.92 23.88C5.92 25.0533 6.04 26.12 6.28 27.08C6.52 28.04 6.84 28.88 7.24 29.6C7.64 30.32 8.10667 30.8933 8.64 31.32C9.2 31.7467 9.8 31.9867 10.44 32.04C11.2933 31.8533 12.1467 31.4267 13 30.76C13.8533 30.0667 14.6267 29.2667 15.32 28.36C16.04 27.4267 16.64 26.44 17.12 25.4C17.6267 24.3333 17.9333 23.32 18.04 22.36C17.2933 22.52 16.5733 22.68 15.88 22.84C15.2133 22.9733 14.5733 23.04 13.96 23.04C13.16 23.04 12.4533 22.84 11.84 22.44C11.2533 22.04 10.8533 21.4933 10.64 20.8C11.12 20.5333 11.8133 20.2533 12.72 19.96C13.6533 19.6667 14.64 19.4 15.68 19.16C16.72 18.8933 17.7333 18.68 18.72 18.52C19.7333 18.36 20.56 18.28 21.2 18.28ZM24.9356 28.32C24.9356 28.08 24.949 27.7867 24.9756 27.44C25.029 27.0667 25.109 26.5867 25.2156 26C25.3223 25.3867 25.4556 24.6533 25.6156 23.8C25.8023 22.9467 26.029 21.92 26.2956 20.72C26.349 20.4533 26.469 20.0267 26.6556 19.44C26.8423 18.8533 27.0823 18.24 27.3756 17.6C27.6956 16.9333 28.069 16.2933 28.4956 15.68C28.949 15.0667 29.4823 14.6133 30.0956 14.32C30.549 14.4267 31.149 14.7067 31.8956 15.16C32.6423 15.5867 33.2823 16.1867 33.8156 16.96C33.2023 17.6533 32.6823 18.3467 32.2556 19.04C31.8556 19.7333 31.4823 20.4533 31.1356 21.2C30.8156 21.9467 30.509 22.72 30.2156 23.52C29.949 24.32 29.6423 25.16 29.2956 26.04C29.0023 26.7867 28.7356 27.56 28.4956 28.36C28.2556 29.1333 28.1223 29.8133 28.0956 30.4C28.0956 30.88 28.0823 31.2133 28.0556 31.4C28.0556 31.6133 27.989 31.72 27.8556 31.72C27.749 31.72 27.5356 31.6533 27.2156 31.52C26.8956 31.3867 26.5623 31.1867 26.2156 30.92C25.8956 30.6267 25.6023 30.2667 25.3356 29.84C25.069 29.4133 24.9356 28.9067 24.9356 28.32ZM32.5756 10.96C32.5756 10.8 32.6156 10.56 32.6956 10.24C32.5623 10.1067 32.4423 9.90666 32.3356 9.64C32.2556 9.37333 32.2156 9.13333 32.2156 8.92C32.2156 8.68 32.2423 8.36 32.2956 7.96C32.3756 7.53333 32.469 7.08 32.5756 6.6C32.6823 6.12 32.8156 5.62667 32.9756 5.12C33.1356 4.58666 33.2956 4.10666 33.4556 3.68C33.7756 3.68 34.1623 3.77333 34.6156 3.96C35.0956 4.12 35.5756 4.34667 36.0556 4.64C36.5356 4.90666 36.9756 5.21333 37.3756 5.56C37.7756 5.88 38.0823 6.18667 38.2956 6.48C38.0023 6.77333 37.6156 7.18666 37.1356 7.72C36.6556 8.22667 36.189 8.77333 35.7356 9.36C35.2823 9.92 34.869 10.4533 34.4956 10.96C34.1223 11.4667 33.8823 11.8267 33.7756 12.04C33.4556 11.9867 33.1756 11.8533 32.9356 11.64C32.6956 11.4 32.5756 11.1733 32.5756 10.96ZM36.2753 42.56C35.6086 42.2933 35.2086 41.7867 35.0753 41.04C34.9686 40.32 34.5153 39.7333 33.7153 39.28C33.9286 37.92 34.1686 36.5467 34.4353 35.16C34.702 33.7733 35.0353 32.2 35.4353 30.44C35.862 28.6533 36.382 26.5867 36.9953 24.24C37.6353 21.8667 38.4353 19 39.3953 15.64C38.5153 15.64 37.822 15.6533 37.3153 15.68C36.8086 15.7067 36.3153 15.76 35.8353 15.84C35.7286 15.7333 35.6353 15.5867 35.5553 15.4C35.502 15.2133 35.4753 15.04 35.4753 14.88C35.742 14.7733 36.2886 14.64 37.1153 14.48C37.942 14.2933 38.8486 14.1333 39.8353 14C40.4753 11.9733 41.2086 10.16 42.0353 8.56C42.862 6.93333 43.7553 5.54667 44.7153 4.4C45.6753 3.25333 46.6886 2.37333 47.7553 1.76C48.822 1.14667 49.902 0.84 50.9953 0.84C51.3153 0.84 51.622 0.866666 51.9153 0.919999C52.2086 0.946665 52.4353 0.959998 52.5953 0.959998C52.8353 0.773332 53.1553 0.613333 53.5553 0.48C53.9553 0.319998 54.302 0.239998 54.5953 0.239998C54.9153 0.239998 55.3286 0.413331 55.8353 0.759998C55.622 1.13333 55.3953 1.64 55.1553 2.28C54.9153 2.92 54.7153 3.54667 54.5553 4.16C53.8886 6.13333 53.182 7.41333 52.4353 8C52.142 8 51.982 7.61333 51.9553 6.84C51.9286 6.28 51.8486 5.73333 51.7153 5.2C51.6086 4.96 51.5286 4.74667 51.4753 4.56C51.4486 4.37333 51.4353 4.13333 51.4353 3.84C51.4353 3.68 51.4486 3.49333 51.4753 3.28C51.502 3.04 51.5553 2.65333 51.6353 2.12C51.182 2.12 50.6753 2.4 50.1153 2.96C49.582 3.52 49.0086 4.32 48.3953 5.36C47.8086 6.37333 47.2086 7.58667 46.5953 9C45.982 10.4133 45.3953 11.9733 44.8353 13.68L48.1953 13.56C48.3286 13.6933 48.4353 14 48.5153 14.48C48.622 14.9333 48.6886 15.4133 48.7153 15.92L44.3153 15.68C43.302 18.6933 42.3553 21.5733 41.4753 24.32C40.5953 27.0667 39.8086 29.6 39.1153 31.92C38.422 34.24 37.822 36.3067 37.3153 38.12C36.8353 39.96 36.4886 41.44 36.2753 42.56ZM50.1072 15.68C49.9739 15.52 49.8539 15.1867 49.7472 14.68C49.6405 14.1467 49.5872 13.6933 49.5872 13.32C50.2805 13.3733 50.9472 13.4267 51.5872 13.48C52.2272 13.5067 52.8139 13.5333 53.3472 13.56C53.7472 12.76 54.1739 11.9733 54.6272 11.2C55.1072 10.4 55.5605 9.68 55.9872 9.04C56.4405 8.37333 56.8539 7.81333 57.2272 7.36C57.6272 6.90667 57.9339 6.61333 58.1472 6.48C58.4139 6.48 58.7472 6.53333 59.1472 6.64C59.5739 6.72 60.0005 6.84 60.4272 7C60.8539 7.13333 61.2405 7.28 61.5872 7.44C61.9339 7.6 62.1739 7.76 62.3072 7.92C61.5072 8.93333 60.8139 9.88 60.2272 10.76C59.6672 11.6133 59.0539 12.6 58.3872 13.72C58.9205 13.72 59.4539 13.7067 59.9872 13.68C60.5472 13.6533 61.1072 13.6133 61.6672 13.56C61.8005 13.6933 61.9072 13.8667 61.9872 14.08C62.0672 14.2667 62.1072 14.4667 62.1072 14.68C60.8005 15.16 59.2139 15.4267 57.3472 15.48C56.6805 16.76 56.0805 18.04 55.5472 19.32C55.0405 20.5733 54.6005 21.7867 54.2272 22.96C53.8805 24.1333 53.6005 25.24 53.3872 26.28C53.2005 27.32 53.1072 28.2533 53.1072 29.08C53.1072 30.2533 53.5472 30.9067 54.4272 31.04C55.2272 30.9333 55.9872 30.7333 56.7072 30.44C57.4272 30.1467 58.0672 29.7733 58.6272 29.32C58.7872 29.56 58.8805 29.76 58.9072 29.92C58.7472 30.16 58.4672 30.44 58.0672 30.76C57.6939 31.08 57.2805 31.3867 56.8272 31.68C56.3739 32 55.9339 32.2667 55.5072 32.48C55.0805 32.6933 54.7605 32.8133 54.5472 32.84C53.8805 32.8133 53.2139 32.6667 52.5472 32.4C51.8805 32.1333 51.2672 31.8 50.7072 31.4C50.1739 31 49.7339 30.56 49.3872 30.08C49.0405 29.5733 48.8672 29.08 48.8672 28.6C48.8672 27.96 48.9472 27.16 49.1072 26.2C49.2939 25.2133 49.5472 24.1467 49.8672 23C50.1872 21.8533 50.5605 20.6533 50.9872 19.4C51.4139 18.1467 51.8805 16.9067 52.3872 15.68H50.1072ZM75.6097 15.08C75.583 15.5867 75.4897 16.12 75.3297 16.68C75.1964 17.2133 75.023 17.7067 74.8097 18.16C74.5964 18.5867 74.3697 18.9467 74.1297 19.24C73.8897 19.5333 73.663 19.68 73.4497 19.68C73.1564 19.6533 72.983 19.4533 72.9297 19.08C72.9297 19 72.9564 18.88 73.0097 18.72C73.0897 18.5333 73.1697 18.3333 73.2497 18.12C73.3297 17.9067 73.3964 17.6933 73.4497 17.48C73.5297 17.2667 73.5697 17.08 73.5697 16.92C73.5697 16.5467 73.4764 16.24 73.2897 16C73.1297 15.7333 72.903 15.6 72.6097 15.6C71.543 15.6 70.7297 16.2667 70.1697 17.6C69.6097 18.9333 69.3297 20.8933 69.3297 23.48C69.3297 23.7467 69.343 23.9067 69.3697 23.96C69.9297 23.9333 70.423 23.92 70.8497 23.92C71.303 23.8933 71.743 23.88 72.1697 23.88C72.1964 23.9333 72.2097 24.04 72.2097 24.2C72.2097 24.44 72.1564 24.6133 72.0497 24.72C71.4364 24.8533 70.943 24.9733 70.5697 25.08C70.223 25.16 69.9564 25.24 69.7697 25.32C69.583 25.4 69.463 25.4933 69.4097 25.6C69.383 25.68 69.3697 25.8 69.3697 25.96C69.3697 26.1733 69.3697 26.3867 69.3697 26.6C69.3964 26.8133 69.4097 27.08 69.4097 27.4C69.4097 29.64 68.7964 31.44 67.5697 32.8C66.3697 34.16 64.6897 34.9467 62.5297 35.16C62.1564 35.1333 61.7697 35.0267 61.3697 34.84C60.9697 34.6533 60.583 34.4133 60.2097 34.12C59.863 33.8267 59.5564 33.4933 59.2897 33.12C59.023 32.7733 58.8364 32.4133 58.7297 32.04C58.7297 31.0267 58.943 30.0667 59.3697 29.16C59.7964 28.2267 60.3697 27.4133 61.0897 26.72C61.8364 26 62.703 25.4267 63.6897 25C64.703 24.5467 65.7964 24.28 66.9697 24.2C66.9697 23.5333 66.903 22.88 66.7697 22.24C66.6364 21.6 66.4897 20.9867 66.3297 20.4C66.1964 19.7867 66.063 19.2 65.9297 18.64C65.7964 18.0533 65.7297 17.48 65.7297 16.92C65.7297 16.2 65.8764 15.4933 66.1697 14.8C66.463 14.08 66.8497 13.4267 67.3297 12.84C67.8097 12.2267 68.3697 11.7067 69.0097 11.28C69.6497 10.8533 70.3164 10.56 71.0097 10.4C71.303 10.48 71.6897 10.72 72.1697 11.12C72.6764 11.4933 73.1697 11.92 73.6497 12.4C74.1297 12.88 74.5564 13.3733 74.9297 13.88C75.303 14.36 75.5297 14.76 75.6097 15.08ZM62.4097 33.32C63.0497 33.0533 63.6497 32.6667 64.2097 32.16C64.7964 31.6533 65.303 31.08 65.7297 30.44C66.1564 29.8 66.4897 29.12 66.7297 28.4C66.9964 27.68 67.1297 26.9733 67.1297 26.28C66.5964 26.36 66.0097 26.6133 65.3697 27.04C64.7297 27.44 64.1297 27.9333 63.5697 28.52C63.0097 29.08 62.543 29.6667 62.1697 30.28C61.7964 30.8933 61.6097 31.4267 61.6097 31.88C61.6097 32.4667 61.8764 32.9467 62.4097 33.32Z" fill="#6FDCF6"/>
</svg>
