<svg xmlns:xlink="http://www.w3.org/1999/xlink" class="mx-auto" width="222" height="39" viewBox="0 0 222 39" fill="none" xmlns="http://www.w3.org/2000/svg" data-v-1afa2a7a=""><path d="M26.28 12.44C26.28 13.9067 25.9067 15.3067 25.16 16.64C24.44 17.9733 23.4533 19.1467 22.2 20.16C20.9733 21.1467 19.52 21.9333 17.84 22.52C16.1867 23.1067 14.4267 23.4 12.56 23.4C11.8933 23.4 11.36 23.32 10.96 23.16C10.5867 22.9733 10.16 22.6267 9.68 22.12C8.34667 25.0267 7.25333 27.7067 6.4 30.16C5.57333 32.5867 4.92 34.9467 4.44 37.24C3.42667 37 2.6 36.5733 1.96 35.96C1.32 35.3733 0.733334 34.6267 0.2 33.72C0.466667 33.2133 0.786667 32.5467 1.16 31.72C1.53333 30.8933 1.98667 29.88 2.52 28.68C3.05333 27.4533 3.66667 26 4.36 24.32C5.08 22.6133 5.92 20.6267 6.88 18.36C7.30667 17.32 7.68 16.4133 8 15.64C8.32 14.8667 8.6 14.1467 8.84 13.48C9.08 12.7867 9.29333 12.1067 9.48 11.44C9.69333 10.7733 9.90667 10.04 10.12 9.24C8.86667 9.64 7.70667 10.1067 6.64 10.64C5.6 11.1733 4.73333 11.7333 4.04 12.32C3.8 12.16 3.54667 11.92 3.28 11.6C3.04 11.28 2.81333 10.9333 2.6 10.56C2.38667 10.16 2.2 9.76 2.04 9.36C1.88 8.96 1.78667 8.6 1.76 8.28C2.53333 7.74667 3.49333 7.25333 4.64 6.8C5.78667 6.34667 7.01333 5.96 8.32 5.64C9.62667 5.29333 10.9733 5.02666 12.36 4.84C13.7733 4.65333 15.12 4.56 16.4 4.56C17.92 4.56 19.2933 4.76 20.52 5.16C21.7467 5.53333 22.7867 6.06667 23.64 6.76C24.4933 7.45333 25.1467 8.28 25.6 9.24C26.0533 10.2 26.28 11.2667 26.28 12.44ZM19.16 7.64C18.1467 7.64 17.1067 7.72 16.04 7.88L16.52 8.6C16.2533 8.94666 15.92 9.46667 15.52 10.16C15.12 10.8533 14.68 11.6933 14.2 12.68C13.72 13.64 13.1867 14.72 12.6 15.92C12.04 17.12 11.44 18.3867 10.8 19.72C12.88 19.72 14.7733 19.5333 16.48 19.16C18.1867 18.76 19.64 18.2267 20.84 17.56C22.0667 16.8667 23.0133 16.0667 23.68 15.16C24.3733 14.2533 24.72 13.28 24.72 12.24C24.72 10.8533 24.2533 9.74667 23.32 8.92C22.3867 8.06667 21 7.64 19.16 7.64ZM28.6 35.4C27.08 35.24 25.8667 34.5733 24.96 33.4C24.0533 32.2267 23.6 30.7333 23.6 28.92C23.6 27.8533 23.76 26.7467 24.08 25.6C24.4 24.4533 24.8533 23.3467 25.44 22.28C26.0267 21.1867 26.72 20.16 27.52 19.2C28.32 18.24 29.1867 17.4133 30.12 16.72C31.5867 15.6267 32.96 15.08 34.24 15.08C35.0933 15.5333 35.9333 16.48 36.76 17.92C36.8933 17.92 37.0133 17.92 37.12 17.92C37.2267 17.8933 37.3467 17.88 37.48 17.88C38.8933 17.88 39.6 19.1333 39.6 21.64C39.6 23.32 39.32 24.92 38.76 26.44C38.2267 27.9333 37.4667 29.2933 36.48 30.52C35.52 31.7467 34.36 32.7867 33 33.64C31.6667 34.4667 30.2 35.0533 28.6 35.4ZM30.64 22.8C30.1867 23.4133 29.76 24.08 29.36 24.8C28.96 25.52 28.6133 26.2533 28.32 27C28.0267 27.72 27.8 28.4267 27.64 29.12C27.48 29.7867 27.4 30.3867 27.4 30.92C27.4 31.56 27.5067 32.1733 27.72 32.76C27.9333 33.3467 28.1733 33.68 28.44 33.76C29.64 33.4933 30.7333 33 31.72 32.28C32.7333 31.5333 33.6 30.6133 34.32 29.52C35.0667 28.4267 35.64 27.1867 36.04 25.8C36.4667 24.4133 36.68 22.9333 36.68 21.36C36.68 20.6667 36.64 20.12 36.56 19.72C36.48 19.32 36.3467 18.9733 36.16 18.68C34.9867 19.0267 33.9333 19.5867 33 20.36C32.0933 21.1333 31.3067 21.9467 30.64 22.8ZM41.6163 30.24C41.6163 29.28 41.8563 27.9467 42.3363 26.24C42.8429 24.5333 43.4963 22.6667 44.2963 20.64C45.0963 18.6133 46.0029 16.52 47.0163 14.36C48.0296 12.2 49.0429 10.1867 50.0563 8.32C51.0963 6.45333 52.0829 4.84 53.0163 3.48C53.9763 2.12 54.7896 1.2 55.4563 0.719999C55.8296 0.746666 56.2296 0.906665 56.6563 1.2C57.1096 1.49333 57.5229 1.85333 57.8963 2.28C58.2696 2.68 58.5763 3.10666 58.8163 3.56C59.0829 4.01333 59.2163 4.42667 59.2163 4.8C58.0163 5.76 56.7896 7 55.5363 8.52C54.3096 10.0133 53.1363 11.6667 52.0163 13.48C50.8963 15.2667 49.8563 17.1733 48.8963 19.2C47.9629 21.2 47.1763 23.1733 46.5363 25.12C47.3896 23.6533 48.2829 22.32 49.2163 21.12C50.1496 19.92 51.0829 18.8933 52.0163 18.04C52.9496 17.1867 53.8563 16.5333 54.7363 16.08C55.6429 15.6 56.4963 15.3467 57.2963 15.32C58.4696 16.1733 59.0563 17.3067 59.0563 18.72C59.0563 19.5733 58.8829 20.44 58.5363 21.32C58.1896 22.1733 57.7229 22.9733 57.1363 23.72C56.5763 24.44 55.9229 25.0667 55.1763 25.6C54.4563 26.1067 53.6963 26.44 52.8963 26.6C53.1629 27.5333 53.4963 28.48 53.8963 29.44C54.3229 30.4 54.8163 31.3333 55.3763 32.24C55.9629 33.1467 56.6163 33.9867 57.3363 34.76C58.0829 35.5333 58.9229 36.1867 59.8563 36.72C59.7229 36.9867 59.5229 37.2533 59.2563 37.52C58.9896 37.7867 58.6696 38.0133 58.2963 38.2C57.9229 38.4133 57.5096 38.5733 57.0563 38.68C56.6296 38.8133 56.2029 38.88 55.7763 38.88C55.0563 38.88 54.3763 38.52 53.7363 37.8C53.1229 37.08 52.5629 36.04 52.0563 34.68C51.6563 33.5867 51.2696 32.28 50.8963 30.76C50.5229 29.24 50.1896 27.6533 49.8963 26C50.2696 25.76 50.7363 25.4133 51.2963 24.96C51.8563 24.48 52.4429 23.9333 53.0563 23.32C55.4029 21.0533 56.5763 19.0933 56.5763 17.44C56.5763 17.2267 56.4296 17.12 56.1363 17.12C55.6029 17.1467 54.9763 17.4 54.2563 17.88C53.5363 18.36 52.7629 19.0267 51.9363 19.88C51.1363 20.7333 50.3096 21.7333 49.4563 22.88C48.6296 24.0267 47.8296 25.2667 47.0563 26.6C46.7363 27.1333 46.4429 27.7467 46.1763 28.44C45.9096 29.1333 45.6696 29.8533 45.4563 30.6C45.2696 31.32 45.1229 32.04 45.0163 32.76C44.9096 33.48 44.8563 34.1467 44.8563 34.76C44.8563 35.1333 44.8963 35.44 44.9763 35.68C44.1496 35.6 43.6429 35.3867 43.4563 35.04C43.2429 34.72 43.0563 34.4533 42.8963 34.24C42.7629 34.0533 42.6163 33.8933 42.4563 33.76C42.2163 33.5733 42.0163 33.1733 41.8563 32.56C41.6963 31.9467 41.6163 31.1733 41.6163 30.24ZM61.6916 31.44C61.6916 30.2667 61.9716 28.6267 62.5316 26.52C63.0916 24.3867 63.8782 21.9067 64.8916 19.08C66.5449 14.5733 68.0916 10.8267 69.5316 7.84C70.9982 4.82667 72.4249 2.48 73.8116 0.799998C74.1316 0.853331 74.5182 0.986664 74.9716 1.2C75.4516 1.41333 75.9182 1.65333 76.3716 1.92C76.8249 2.16 77.2249 2.41333 77.5716 2.68C77.9449 2.94666 78.1849 3.16 78.2916 3.32C76.2116 5.77333 74.3849 8.41333 72.8116 11.24C71.2382 14.0667 69.7982 17.3067 68.4916 20.96C67.3716 24.1067 66.5182 26.9467 65.9316 29.48C65.3449 31.9867 65.0516 34.08 65.0516 35.76C65.0516 36.2133 65.0516 36.4933 65.0516 36.6C65.0516 36.7067 65.0649 36.8133 65.0916 36.92C64.7182 36.8667 64.3982 36.7733 64.1316 36.64C63.8649 36.5067 63.6916 36.3467 63.6116 36.16C63.5582 36.0267 63.4116 35.8267 63.1716 35.56C62.9316 35.32 62.7182 35.1333 62.5316 35C62.2916 34.84 62.0916 34.4267 61.9316 33.76C61.7716 33.0667 61.6916 32.2933 61.6916 31.44ZM75.7484 35.4C74.2284 35.24 73.0151 34.5733 72.1084 33.4C71.2018 32.2267 70.7484 30.7333 70.7484 28.92C70.7484 27.8533 70.9084 26.7467 71.2284 25.6C71.5484 24.4533 72.0018 23.3467 72.5884 22.28C73.1751 21.1867 73.8684 20.16 74.6684 19.2C75.4684 18.24 76.3351 17.4133 77.2684 16.72C78.7351 15.6267 80.1084 15.08 81.3884 15.08C82.2418 15.5333 83.0818 16.48 83.9084 17.92C84.0418 17.92 84.1618 17.92 84.2684 17.92C84.3751 17.8933 84.4951 17.88 84.6284 17.88C86.0418 17.88 86.7484 19.1333 86.7484 21.64C86.7484 23.32 86.4684 24.92 85.9084 26.44C85.3751 27.9333 84.6151 29.2933 83.6284 30.52C82.6684 31.7467 81.5084 32.7867 80.1484 33.64C78.8151 34.4667 77.3484 35.0533 75.7484 35.4ZM77.7884 22.8C77.3351 23.4133 76.9084 24.08 76.5084 24.8C76.1084 25.52 75.7618 26.2533 75.4684 27C75.1751 27.72 74.9484 28.4267 74.7884 29.12C74.6284 29.7867 74.5484 30.3867 74.5484 30.92C74.5484 31.56 74.6551 32.1733 74.8684 32.76C75.0818 33.3467 75.3218 33.68 75.5884 33.76C76.7884 33.4933 77.8818 33 78.8684 32.28C79.8818 31.5333 80.7484 30.6133 81.4684 29.52C82.2151 28.4267 82.7884 27.1867 83.1884 25.8C83.6151 24.4133 83.8284 22.9333 83.8284 21.36C83.8284 20.6667 83.7884 20.12 83.7084 19.72C83.6284 19.32 83.4951 18.9733 83.3084 18.68C82.1351 19.0267 81.0818 19.5867 80.1484 20.36C79.2418 21.1333 78.4551 21.9467 77.7884 22.8ZM95.1647 14.6C95.858 14.8133 96.5114 15.2933 97.1247 16.04C97.738 16.76 98.1914 17.56 98.4847 18.44C98.1914 19.16 97.738 20.0267 97.1247 21.04C96.5114 22.0533 95.898 23.0933 95.2847 24.16C94.6714 25.2 94.1114 26.2 93.6047 27.16C93.1247 28.0933 92.8447 28.8667 92.7647 29.48C93.1914 29.0267 93.658 28.5067 94.1647 27.92C94.698 27.3067 95.2047 26.7067 95.6847 26.12C96.1914 25.5067 96.658 24.96 97.0847 24.48C97.5114 23.9733 97.8447 23.6 98.0847 23.36C98.5914 22.8267 99.1914 22.2133 99.8847 21.52C100.578 20.8 101.298 20.1333 102.045 19.52C102.818 18.88 103.591 18.3467 104.365 17.92C105.138 17.4667 105.845 17.24 106.485 17.24C107.178 17.24 107.751 17.48 108.205 17.96C108.685 18.4133 109.058 18.8933 109.325 19.4C109.325 19.4533 109.218 19.5333 109.005 19.64C108.818 19.72 108.538 19.9733 108.165 20.4C107.791 20.88 107.365 21.5467 106.885 22.4C106.431 23.2267 105.978 24.1333 105.525 25.12C105.098 26.08 104.738 27.0667 104.445 28.08C104.151 29.0933 104.005 30.0133 104.005 30.84C104.005 31.5067 104.085 31.9333 104.245 32.12C104.431 32.3067 104.685 32.4 105.005 32.4C105.298 32.4 105.605 32.3333 105.925 32.2C106.245 32.0667 106.498 32 106.685 32C106.791 32.0533 106.871 32.1733 106.925 32.36C107.005 32.52 107.045 32.6667 107.045 32.8C106.831 32.9867 106.578 33.1733 106.285 33.36C105.991 33.5467 105.685 33.72 105.365 33.88C105.045 34.04 104.725 34.1733 104.405 34.28C104.111 34.3867 103.845 34.44 103.605 34.44C102.831 34.44 102.191 34.32 101.685 34.08C101.205 33.8667 100.818 33.5733 100.525 33.2C100.258 32.8267 100.071 32.3867 99.9647 31.88C99.858 31.3467 99.8047 30.7867 99.8047 30.2C99.8047 29.88 99.8314 29.52 99.8847 29.12C99.938 28.72 100.045 28.2533 100.205 27.72C100.365 27.16 100.591 26.5067 100.885 25.76C101.178 24.9867 101.551 24.0667 102.005 23C101.951 23 101.591 23.1867 100.925 23.56C100.258 23.9333 99.538 24.5067 98.7647 25.28C97.5114 26.48 96.378 27.6667 95.3647 28.84C94.378 30.0133 93.3647 31.32 92.3247 32.76C91.738 33.5867 91.218 34.28 90.7647 34.84C90.338 35.4267 89.9647 35.8133 89.6447 36C89.0847 35.68 88.6714 35.2267 88.4047 34.64C88.138 34.08 87.938 33.4933 87.8047 32.88C87.8047 32.3733 87.8714 31.7333 88.0047 30.96C88.1647 30.1867 88.3647 29.3333 88.6047 28.4C88.8714 27.44 89.1914 26.44 89.5647 25.4C89.938 24.36 90.3514 23.32 90.8047 22.28C91.818 19.9333 92.738 18.0933 93.5647 16.76C94.418 15.4267 94.9514 14.7067 95.1647 14.6ZM133.618 17.84C133.884 17.84 134.191 17.8933 134.538 18C134.911 18.08 135.244 18.2 135.538 18.36C135.831 18.4933 136.071 18.64 136.258 18.8C136.471 18.96 136.578 19.1067 136.578 19.24C136.044 20.36 135.551 21.4933 135.098 22.64C134.644 23.76 134.258 24.84 133.938 25.88C133.618 26.92 133.364 27.8933 133.178 28.8C133.018 29.7067 132.938 30.4933 132.938 31.16C132.938 31.9067 133.018 32.5333 133.178 33.04C133.338 33.52 133.604 33.8667 133.978 34.08C133.658 34.2933 133.244 34.4667 132.738 34.6C132.231 34.7333 131.778 34.8 131.378 34.8C129.938 34.8 129.218 33.8133 129.218 31.84C129.218 30.32 129.724 28.24 130.738 25.6C130.204 26.8267 129.591 27.9867 128.898 29.08C128.204 30.1467 127.498 31.0933 126.778 31.92C126.058 32.7467 125.324 33.4267 124.578 33.96C123.858 34.4667 123.191 34.7733 122.578 34.88C121.591 34.8267 120.791 34.36 120.178 33.48C119.564 32.5733 119.258 31.4267 119.258 30.04C119.258 28.5467 119.578 26.9733 120.218 25.32C120.858 23.6667 121.671 22.1333 122.658 20.72C123.671 19.3067 124.764 18.1333 125.938 17.2C127.111 16.24 128.244 15.7333 129.338 15.68C129.604 15.76 129.898 15.92 130.218 16.16C130.564 16.4 130.884 16.68 131.178 17C131.498 17.32 131.764 17.6533 131.978 18C132.191 18.32 132.311 18.6 132.338 18.84C131.271 19 130.164 19.52 129.018 20.4C127.898 21.28 126.871 22.3467 125.938 23.6C125.031 24.8267 124.284 26.1467 123.698 27.56C123.111 28.9733 122.818 30.2933 122.818 31.52C122.818 32.0267 123.004 32.3467 123.378 32.48C124.151 32.32 125.044 31.6667 126.058 30.52C127.071 29.3467 128.298 27.5467 129.738 25.12C130.004 24.64 130.298 24.1067 130.618 23.52C130.964 22.9333 131.311 22.32 131.658 21.68C132.004 21.04 132.338 20.4 132.658 19.76C133.004 19.0933 133.324 18.4533 133.618 17.84ZM137.647 33.2C137.78 32.4267 138.007 31.4133 138.327 30.16C138.673 28.88 139.073 27.5333 139.527 26.12C139.98 24.68 140.46 23.24 140.967 21.8C141.473 20.36 141.967 19.0667 142.447 17.92C142.793 17.0933 143.1 16.4533 143.367 16C143.633 15.52 143.927 15.12 144.247 14.8C144.62 14.8533 145.007 14.9467 145.407 15.08C145.807 15.2133 146.193 15.3733 146.567 15.56C146.94 15.7467 147.273 15.9467 147.567 16.16C147.86 16.3467 148.087 16.5333 148.247 16.72C147.527 17.5733 146.887 18.5467 146.327 19.64C145.793 20.7333 145.247 22.1333 144.687 23.84C146.127 22.56 147.393 21.3333 148.487 20.16C149.607 18.9867 150.647 17.68 151.607 16.24C151.767 16.1067 152.047 16.04 152.447 16.04C152.82 16.04 153.18 16.1067 153.527 16.24C153.873 16.3467 154.113 16.5067 154.247 16.72C153.767 18 153.527 19.2667 153.527 20.52C153.527 21.6933 153.7 22.5733 154.047 23.16C154.02 23.32 153.833 23.6267 153.487 24.08C153.167 24.5333 152.807 24.96 152.407 25.36C151.687 24.9867 151.047 24.48 150.487 23.84C149.927 23.1733 149.513 22.4533 149.247 21.68C147.993 22.56 146.927 23.4267 146.047 24.28C145.167 25.1067 144.407 26.04 143.767 27.08C143.153 28.0933 142.62 29.2667 142.167 30.6C141.74 31.9333 141.327 33.52 140.927 35.36C140.687 35.3333 140.393 35.24 140.047 35.08C139.727 34.9467 139.393 34.7733 139.047 34.56C138.727 34.3467 138.433 34.12 138.167 33.88C137.9 33.64 137.727 33.4133 137.647 33.2ZM157.099 18.68C156.966 18.52 156.846 18.1867 156.739 17.68C156.633 17.1467 156.579 16.6933 156.579 16.32C157.273 16.3733 157.939 16.4267 158.579 16.48C159.219 16.5067 159.806 16.5333 160.339 16.56C160.739 15.76 161.166 14.9733 161.619 14.2C162.099 13.4 162.553 12.68 162.979 12.04C163.433 11.3733 163.846 10.8133 164.219 10.36C164.619 9.90667 164.926 9.61333 165.139 9.48C165.406 9.48 165.739 9.53333 166.139 9.64C166.566 9.72 166.993 9.84 167.419 10C167.846 10.1333 168.233 10.28 168.579 10.44C168.926 10.6 169.166 10.76 169.299 10.92C168.499 11.9333 167.806 12.88 167.219 13.76C166.659 14.6133 166.046 15.6 165.379 16.72C165.913 16.72 166.446 16.7067 166.979 16.68C167.539 16.6533 168.099 16.6133 168.659 16.56C168.793 16.6933 168.899 16.8667 168.979 17.08C169.059 17.2667 169.099 17.4667 169.099 17.68C167.793 18.16 166.206 18.4267 164.339 18.48C163.673 19.76 163.073 21.04 162.539 22.32C162.033 23.5733 161.593 24.7867 161.219 25.96C160.873 27.1333 160.593 28.24 160.379 29.28C160.193 30.32 160.099 31.2533 160.099 32.08C160.099 33.2533 160.539 33.9067 161.419 34.04C162.219 33.9333 162.979 33.7333 163.699 33.44C164.419 33.1467 165.059 32.7733 165.619 32.32C165.779 32.56 165.873 32.76 165.899 32.92C165.739 33.16 165.459 33.44 165.059 33.76C164.686 34.08 164.273 34.3867 163.819 34.68C163.366 35 162.926 35.2667 162.499 35.48C162.073 35.6933 161.753 35.8133 161.539 35.84C160.873 35.8133 160.206 35.6667 159.539 35.4C158.873 35.1333 158.259 34.8 157.699 34.4C157.166 34 156.726 33.56 156.379 33.08C156.033 32.5733 155.859 32.08 155.859 31.6C155.859 30.96 155.939 30.16 156.099 29.2C156.286 28.2133 156.539 27.1467 156.859 26C157.179 24.8533 157.553 23.6533 157.979 22.4C158.406 21.1467 158.873 19.9067 159.379 18.68H157.099ZM168.842 31.32C168.842 31.08 168.855 30.7867 168.882 30.44C168.935 30.0667 169.015 29.5867 169.122 29C169.229 28.3867 169.362 27.6533 169.522 26.8C169.709 25.9467 169.935 24.92 170.202 23.72C170.255 23.4533 170.375 23.0267 170.562 22.44C170.749 21.8533 170.989 21.24 171.282 20.6C171.602 19.9333 171.975 19.2933 172.402 18.68C172.855 18.0667 173.389 17.6133 174.002 17.32C174.455 17.4267 175.055 17.7067 175.802 18.16C176.549 18.5867 177.189 19.1867 177.722 19.96C177.109 20.6533 176.589 21.3467 176.162 22.04C175.762 22.7333 175.389 23.4533 175.042 24.2C174.722 24.9467 174.415 25.72 174.122 26.52C173.855 27.32 173.549 28.16 173.202 29.04C172.909 29.7867 172.642 30.56 172.402 31.36C172.162 32.1333 172.029 32.8133 172.002 33.4C172.002 33.88 171.989 34.2133 171.962 34.4C171.962 34.6133 171.895 34.72 171.762 34.72C171.655 34.72 171.442 34.6533 171.122 34.52C170.802 34.3867 170.469 34.1867 170.122 33.92C169.802 33.6267 169.509 33.2667 169.242 32.84C168.975 32.4133 168.842 31.9067 168.842 31.32ZM176.482 13.96C176.482 13.8 176.522 13.56 176.602 13.24C176.469 13.1067 176.349 12.9067 176.242 12.64C176.162 12.3733 176.122 12.1333 176.122 11.92C176.122 11.68 176.149 11.36 176.202 10.96C176.282 10.5333 176.375 10.08 176.482 9.6C176.589 9.12 176.722 8.62667 176.882 8.12C177.042 7.58666 177.202 7.10666 177.362 6.68C177.682 6.68 178.069 6.77333 178.522 6.96C179.002 7.12 179.482 7.34667 179.962 7.64C180.442 7.90666 180.882 8.21333 181.282 8.56C181.682 8.88 181.989 9.18667 182.202 9.48C181.909 9.77333 181.522 10.1867 181.042 10.72C180.562 11.2267 180.095 11.7733 179.642 12.36C179.189 12.92 178.775 13.4533 178.402 13.96C178.029 14.4667 177.789 14.8267 177.682 15.04C177.362 14.9867 177.082 14.8533 176.842 14.64C176.602 14.4 176.482 14.1733 176.482 13.96ZM178.335 30.24C178.335 29.28 178.575 27.9467 179.055 26.24C179.562 24.5333 180.215 22.6667 181.015 20.64C181.815 18.6133 182.722 16.52 183.735 14.36C184.748 12.2 185.762 10.1867 186.775 8.32C187.815 6.45333 188.802 4.84 189.735 3.48C190.695 2.12 191.508 1.2 192.175 0.719999C192.548 0.746666 192.948 0.906665 193.375 1.2C193.828 1.49333 194.242 1.85333 194.615 2.28C194.988 2.68 195.295 3.10666 195.535 3.56C195.802 4.01333 195.935 4.42667 195.935 4.8C194.735 5.76 193.508 7 192.255 8.52C191.028 10.0133 189.855 11.6667 188.735 13.48C187.615 15.2667 186.575 17.1733 185.615 19.2C184.682 21.2 183.895 23.1733 183.255 25.12C184.108 23.6533 185.002 22.32 185.935 21.12C186.868 19.92 187.802 18.8933 188.735 18.04C189.668 17.1867 190.575 16.5333 191.455 16.08C192.362 15.6 193.215 15.3467 194.015 15.32C195.188 16.1733 195.775 17.3067 195.775 18.72C195.775 19.5733 195.602 20.44 195.255 21.32C194.908 22.1733 194.442 22.9733 193.855 23.72C193.295 24.44 192.642 25.0667 191.895 25.6C191.175 26.1067 190.415 26.44 189.615 26.6C189.882 27.5333 190.215 28.48 190.615 29.44C191.042 30.4 191.535 31.3333 192.095 32.24C192.682 33.1467 193.335 33.9867 194.055 34.76C194.802 35.5333 195.642 36.1867 196.575 36.72C196.442 36.9867 196.242 37.2533 195.975 37.52C195.708 37.7867 195.388 38.0133 195.015 38.2C194.642 38.4133 194.228 38.5733 193.775 38.68C193.348 38.8133 192.922 38.88 192.495 38.88C191.775 38.88 191.095 38.52 190.455 37.8C189.842 37.08 189.282 36.04 188.775 34.68C188.375 33.5867 187.988 32.28 187.615 30.76C187.242 29.24 186.908 27.6533 186.615 26C186.988 25.76 187.455 25.4133 188.015 24.96C188.575 24.48 189.162 23.9333 189.775 23.32C192.122 21.0533 193.295 19.0933 193.295 17.44C193.295 17.2267 193.148 17.12 192.855 17.12C192.322 17.1467 191.695 17.4 190.975 17.88C190.255 18.36 189.482 19.0267 188.655 19.88C187.855 20.7333 187.028 21.7333 186.175 22.88C185.348 24.0267 184.548 25.2667 183.775 26.6C183.455 27.1333 183.162 27.7467 182.895 28.44C182.628 29.1333 182.388 29.8533 182.175 30.6C181.988 31.32 181.842 32.04 181.735 32.76C181.628 33.48 181.575 34.1467 181.575 34.76C181.575 35.1333 181.615 35.44 181.695 35.68C180.868 35.6 180.362 35.3867 180.175 35.04C179.962 34.72 179.775 34.4533 179.615 34.24C179.482 34.0533 179.335 33.8933 179.175 33.76C178.935 33.5733 178.735 33.1733 178.575 32.56C178.415 31.9467 178.335 31.1733 178.335 30.24ZM198.41 31.44C198.41 30.2667 198.69 28.6267 199.25 26.52C199.81 24.3867 200.597 21.9067 201.61 19.08C203.264 14.5733 204.81 10.8267 206.25 7.84C207.717 4.82667 209.144 2.48 210.53 0.799998C210.85 0.853331 211.237 0.986664 211.69 1.2C212.17 1.41333 212.637 1.65333 213.09 1.92C213.544 2.16 213.944 2.41333 214.29 2.68C214.664 2.94666 214.904 3.16 215.01 3.32C212.93 5.77333 211.104 8.41333 209.53 11.24C207.957 14.0667 206.517 17.3067 205.21 20.96C204.09 24.1067 203.237 26.9467 202.65 29.48C202.064 31.9867 201.77 34.08 201.77 35.76C201.77 36.2133 201.77 36.4933 201.77 36.6C201.77 36.7067 201.784 36.8133 201.81 36.92C201.437 36.8667 201.117 36.7733 200.85 36.64C200.584 36.5067 200.41 36.3467 200.33 36.16C200.277 36.0267 200.13 35.8267 199.89 35.56C199.65 35.32 199.437 35.1333 199.25 35C199.01 34.84 198.81 34.4267 198.65 33.76C198.49 33.0667 198.41 32.2933 198.41 31.44ZM207.943 31.32C207.943 31.08 207.957 30.7867 207.983 30.44C208.037 30.0667 208.117 29.5867 208.223 29C208.33 28.3867 208.463 27.6533 208.623 26.8C208.81 25.9467 209.037 24.92 209.303 23.72C209.357 23.4533 209.477 23.0267 209.663 22.44C209.85 21.8533 210.09 21.24 210.383 20.6C210.703 19.9333 211.077 19.2933 211.503 18.68C211.957 18.0667 212.49 17.6133 213.103 17.32C213.557 17.4267 214.157 17.7067 214.903 18.16C215.65 18.5867 216.29 19.1867 216.823 19.96C216.21 20.6533 215.69 21.3467 215.263 22.04C214.863 22.7333 214.49 23.4533 214.143 24.2C213.823 24.9467 213.517 25.72 213.223 26.52C212.957 27.32 212.65 28.16 212.303 29.04C212.01 29.7867 211.743 30.56 211.503 31.36C211.263 32.1333 211.13 32.8133 211.103 33.4C211.103 33.88 211.09 34.2133 211.063 34.4C211.063 34.6133 210.997 34.72 210.863 34.72C210.757 34.72 210.543 34.6533 210.223 34.52C209.903 34.3867 209.57 34.1867 209.223 33.92C208.903 33.6267 208.61 33.2667 208.343 32.84C208.077 32.4133 207.943 31.9067 207.943 31.32ZM215.583 13.96C215.583 13.8 215.623 13.56 215.703 13.24C215.57 13.1067 215.45 12.9067 215.343 12.64C215.263 12.3733 215.223 12.1333 215.223 11.92C215.223 11.68 215.25 11.36 215.303 10.96C215.383 10.5333 215.477 10.08 215.583 9.6C215.69 9.12 215.823 8.62667 215.983 8.12C216.143 7.58666 216.303 7.10666 216.463 6.68C216.783 6.68 217.17 6.77333 217.623 6.96C218.103 7.12 218.583 7.34667 219.063 7.64C219.543 7.90666 219.983 8.21333 220.383 8.56C220.783 8.88 221.09 9.18667 221.303 9.48C221.01 9.77333 220.623 10.1867 220.143 10.72C219.663 11.2267 219.197 11.7733 218.743 12.36C218.29 12.92 217.877 13.4533 217.503 13.96C217.13 14.4667 216.89 14.8267 216.783 15.04C216.463 14.9867 216.183 14.8533 215.943 14.64C215.703 14.4 215.583 14.1733 215.583 13.96Z" fill="#6FDCF6" data-v-1afa2a7a=""></path></svg>