<svg xmlns:xlink="http://www.w3.org/1999/xlink" width="216" height="45" viewBox="0 0 216 45" fill="none" xmlns="http://www.w3.org/2000/svg" class="mx-auto" data-v-1afa2a7a=""><path d="M26.12 3.04C26.2 3.49333 26.2533 3.81333 26.28 4C26.3333 4.16 26.36 4.38667 26.36 4.68C26.36 5.56 26.16 6.38667 25.76 7.16C25.3867 7.90667 24.8667 8.44 24.2 8.76C23.6667 8.04 23.0133 7.42667 22.24 6.92C21.4667 6.38667 20.6133 5.96 19.68 5.64C18.7733 5.29333 17.8267 5.04 16.84 4.88C15.8533 4.72 14.8933 4.64 13.96 4.64C13.0267 4.64 12.1467 4.72 11.32 4.88C10.52 5.01333 9.8 5.21333 9.16 5.48C8.54667 5.72 8.05333 6.02667 7.68 6.4C7.33333 6.77333 7.16 7.2 7.16 7.68C7.24 8.26667 7.6 8.86667 8.24 9.48C8.88 10.0667 9.66667 10.6533 10.6 11.24C11.5333 11.8 12.56 12.36 13.68 12.92C14.8267 13.48 15.9467 14.0133 17.04 14.52C18.4 15.16 19.5733 15.76 20.56 16.32C21.5467 16.8533 22.36 17.4533 23 18.12C23.64 18.76 24.12 19.4933 24.44 20.32C24.76 21.1467 24.92 22.1467 24.92 23.32C24.92 24.68 24.6933 25.96 24.24 27.16C23.7867 28.3333 23.12 29.36 22.24 30.24C21.3867 31.12 20.3467 31.8 19.12 32.28C17.8933 32.7867 16.52 33.04 15 33.04C13.5067 33.04 11.8933 32.8133 10.16 32.36C8.42667 31.9067 6.8 31.28 5.28 30.48C3.78667 29.7067 2.53333 28.8133 1.52 27.8C0.533334 26.76 0.0400001 25.6667 0.0400001 24.52C0.0400001 23.9867 0.186667 23.3067 0.48 22.48C0.8 21.6533 1.36 20.7867 2.16 19.88C2.24 20.68 2.66667 21.6267 3.44 22.72C4.24 23.8133 5.42667 24.8267 7 25.76C8.46667 26.6133 9.97333 27.24 11.52 27.64C13.0933 28.0133 14.56 28.2 15.92 28.2C17.4133 28.2 18.6267 28.0133 19.56 27.64C20.4933 27.2667 21.2267 26.8267 21.76 26.32C22.2933 25.7867 22.6667 25.2533 22.88 24.72C23.0933 24.1867 23.2133 23.76 23.24 23.44C23.2133 22.9067 22.96 22.4 22.48 21.92C22.0267 21.4133 21.4 20.9333 20.6 20.48C19.8267 20 18.92 19.52 17.88 19.04C16.84 18.56 15.76 18.08 14.64 17.6C12.96 16.8533 11.5067 16.16 10.28 15.52C9.08 14.8533 8.08 14.1867 7.28 13.52C6.50667 12.8267 5.93333 12.1067 5.56 11.36C5.21333 10.6133 5.04 9.76 5.04 8.8C5.04 7.30667 5.49333 5.89333 6.4 4.56C7.30667 3.22666 8.61333 2.21333 10.32 1.52C11.1733 1.14667 12.08 0.879999 13.04 0.719998C14.0267 0.559998 14.9867 0.479999 15.92 0.479999C17.68 0.479999 19.4 0.719999 21.08 1.2C22.76 1.68 24.44 2.29333 26.12 3.04ZM29.0722 15.84C29.0722 15.36 29.0989 14.9067 29.1522 14.48C29.2322 14.0533 29.3789 13.6933 29.5922 13.4C29.8055 13.08 30.0989 12.84 30.4722 12.68C30.8455 12.4933 31.3389 12.4 31.9522 12.4C32.3255 12.4 32.7389 12.44 33.1922 12.52C33.6722 12.6 34.0189 12.7467 34.2322 12.96C34.1255 13.4133 34.0322 13.8133 33.9522 14.16C33.8989 14.5067 33.8455 14.8933 33.7922 15.32C33.7655 15.72 33.7389 16.2133 33.7122 16.8C33.6855 17.36 33.6589 18.0933 33.6322 19C33.5789 20.8133 33.4855 22.44 33.3522 23.88C33.2455 25.2933 32.9789 26.7067 32.5522 28.12C32.5522 28.2267 32.5922 28.28 32.6722 28.28C33.0722 27.9867 33.5255 27.56 34.0322 27C34.5389 26.44 35.0722 25.8133 35.6322 25.12C36.1922 24.4 36.7522 23.64 37.3122 22.84C37.8722 22.04 38.3922 21.2533 38.8722 20.48C39.5122 19.36 40.2189 17.96 40.9922 16.28C41.7655 14.6 42.4055 12.8 42.9122 10.88C43.0722 10.88 43.2722 10.92 43.5122 11C43.7789 11.0533 44.0322 11.1333 44.2722 11.24C44.5389 11.32 44.7655 11.4133 44.9522 11.52C45.1655 11.6267 45.3122 11.72 45.3922 11.8C45.3389 12.9467 45.0589 14.12 44.5522 15.32C44.0722 16.52 43.4855 17.68 42.7922 18.8C42.0989 19.92 41.3655 20.9733 40.5922 21.96C39.8189 22.9467 39.1122 23.8 38.4722 24.52C37.1922 26.0133 35.8989 27.3467 34.5922 28.52C33.3122 29.6933 31.7789 30.8267 29.9922 31.92C29.2989 31.6533 28.7522 31.2933 28.3522 30.84C27.9522 30.4133 27.7522 29.96 27.7522 29.48C27.7522 29.16 27.8189 28.8 27.9522 28.4C28.1122 27.9733 28.2855 27.44 28.4722 26.8C28.6589 26.1333 28.8189 25.3067 28.9522 24.32C29.1122 23.3333 29.1922 22.08 29.1922 20.56C29.1922 19.68 29.1655 18.8 29.1122 17.92C29.0855 17.0133 29.0722 16.32 29.0722 15.84ZM45.6819 22.52C46.6685 18.5733 47.6285 15.6933 48.5619 13.88C49.5219 12.04 50.5219 11.12 51.5619 11.12C52.3085 11.12 53.2019 11.48 54.2419 12.2C53.3885 13.72 52.7219 14.9867 52.2419 16C51.7885 16.9867 51.4552 17.8933 51.2419 18.72C50.7885 20.32 50.3085 21.9867 49.8019 23.72C49.2952 25.4267 48.7885 27.0667 48.2819 28.64C47.8019 30.2133 47.3485 31.6267 46.9219 32.88C46.5219 34.16 46.2019 35.1333 45.9619 35.8C45.3752 37.3733 44.7885 38.7067 44.2019 39.8C43.6419 40.8933 43.0552 41.7867 42.4419 42.48C41.8285 43.1733 41.1885 43.68 40.5219 44C39.8285 44.32 39.0819 44.48 38.2819 44.48C37.6952 44.48 37.1219 44.4133 36.5619 44.28C35.9752 44.1733 35.4285 44.0133 34.9219 43.8C34.4152 43.6133 33.9619 43.3733 33.5619 43.08C33.1619 42.7867 32.8419 42.48 32.6019 42.16C32.6285 41.9733 32.7219 41.7867 32.8819 41.6C33.0152 41.44 33.1485 41.3467 33.2819 41.32C33.7352 41.8 34.2152 42.1467 34.7219 42.36C35.2019 42.5733 35.7885 42.68 36.4819 42.68C37.3352 42.68 38.0952 42.4267 38.7619 41.92C39.4019 41.4133 40.0552 40.4267 40.7219 38.96C41.3885 37.52 42.1085 35.48 42.8819 32.84C43.6552 30.2267 44.5885 26.7867 45.6819 22.52ZM52.2019 7.96C52.2019 7.82667 52.2419 7.6 52.3219 7.28C52.0019 6.96 51.8419 6.50666 51.8419 5.92C51.8419 5.68 51.8685 5.34667 51.9219 4.92C52.0019 4.49333 52.0952 4.04 52.2019 3.56C52.3352 3.05333 52.4685 2.54667 52.6019 2.04C52.7619 1.53333 52.9219 1.09333 53.0819 0.719998C53.4019 0.719998 53.7885 0.813332 54.2419 0.999999C54.7219 1.16 55.2019 1.38667 55.6819 1.68C56.1619 1.94667 56.6019 2.25333 57.0019 2.6C57.4019 2.92 57.7085 3.22666 57.9219 3.52C57.6019 3.81333 57.2019 4.22667 56.7219 4.76C56.2419 5.29333 55.7752 5.85333 55.3219 6.44C54.8685 7 54.4552 7.53333 54.0819 8.04C53.7085 8.52 53.4819 8.86667 53.4019 9.08C53.0819 9.02667 52.8019 8.89333 52.5619 8.68C52.3219 8.44 52.2019 8.2 52.2019 7.96ZM68.575 13.44C68.4683 15.0933 68.175 16.52 67.695 17.72C67.215 18.8933 66.5217 19.9333 65.615 20.84C64.735 21.72 63.655 22.52 62.375 23.24C61.095 23.96 59.6017 24.6533 57.895 25.32C57.895 25.48 57.8817 25.6533 57.855 25.84C57.855 26 57.855 26.1733 57.855 26.36C57.855 26.7067 57.8817 27.0667 57.935 27.44C57.9883 27.8133 58.0817 28.16 58.215 28.48C58.3483 28.8 58.535 29.0667 58.775 29.28C59.015 29.4667 59.3217 29.56 59.695 29.56C60.415 29.56 61.1217 29.4 61.815 29.08C62.5083 28.76 63.1617 28.3733 63.775 27.92C64.415 27.44 65.0017 26.9333 65.535 26.4C66.095 25.84 66.5883 25.3333 67.015 24.88C67.2817 25.12 67.5083 25.3467 67.695 25.56C66.495 27.16 65.175 28.4933 63.735 29.56C62.3217 30.6 60.975 31.2667 59.695 31.56C57.855 31.3467 56.415 30.68 55.375 29.56C54.3617 28.4133 53.855 27.04 53.855 25.44C53.855 24.3467 54.0017 23.24 54.295 22.12C54.615 20.9733 55.0417 19.88 55.575 18.84C56.135 17.7733 56.775 16.7733 57.495 15.84C58.2417 14.9067 59.0283 14.0933 59.855 13.4C60.7083 12.7067 61.575 12.16 62.455 11.76C63.3617 11.36 64.255 11.16 65.135 11.16C66.3617 11.32 67.5083 12.08 68.575 13.44ZM65.815 14.76C65.095 14.8667 64.3483 15.16 63.575 15.64C62.8017 16.12 62.0683 16.76 61.375 17.56C60.7083 18.36 60.095 19.2933 59.535 20.36C58.975 21.4267 58.535 22.5733 58.215 23.8C60.3483 22.7333 62.1217 21.4267 63.535 19.88C64.9483 18.3067 65.7083 16.6 65.815 14.76ZM68.9869 29.44C68.9869 29.0133 69.3602 28.3333 70.1069 27.4C70.8535 26.44 71.8402 25.36 73.0669 24.16C74.3202 22.9333 75.7469 21.6533 77.3469 20.32C78.9735 18.96 80.6535 17.6533 82.3869 16.4C81.2669 16.16 80.3735 15.9867 79.7069 15.88C79.0669 15.7733 78.5469 15.72 78.1469 15.72C77.3735 15.72 76.6802 15.8267 76.0669 16.04C75.4535 16.2533 74.8535 16.6 74.2669 17.08C73.0402 16.0133 72.4269 14.7867 72.4269 13.4C72.4269 12.9733 72.4402 12.72 72.4669 12.64C72.9202 12.1867 73.4535 11.84 74.0669 11.6C74.7069 11.36 75.3735 11.24 76.0669 11.24C76.8135 11.24 77.5735 11.36 78.3469 11.6C79.1202 11.84 79.8802 12.1067 80.6269 12.4C81.3735 12.6667 82.0669 12.92 82.7069 13.16C83.3735 13.4 83.9602 13.52 84.4669 13.52C84.7602 13.52 85.0802 13.48 85.4269 13.4C85.8002 13.32 86.1069 13.2133 86.3469 13.08C86.5869 13.2667 86.8002 13.64 86.9869 14.2C87.2002 14.76 87.3069 15.3067 87.3069 15.84C86.4802 16.16 85.4802 16.72 84.3069 17.52C83.1602 18.32 81.9869 19.24 80.7869 20.28C79.5869 21.32 78.4135 22.4267 77.2669 23.6C76.1469 24.7733 75.2135 25.88 74.4669 26.92C75.0269 27.16 75.7869 27.28 76.7469 27.28C77.3602 27.28 77.9869 27.2267 78.6269 27.12C79.2669 27.0133 79.8802 26.8667 80.4669 26.68C81.0802 26.4933 81.6402 26.28 82.1469 26.04C82.6535 25.7733 83.0802 25.4933 83.4269 25.2C84.6802 26 85.3069 27.1733 85.3069 28.72C85.3069 28.9333 85.2935 29.1067 85.2669 29.24C85.2669 29.3733 85.2535 29.5333 85.2269 29.72C84.0002 30.4933 82.6669 30.88 81.2269 30.88C80.5069 30.88 79.7869 30.8 79.0669 30.64C78.3469 30.5067 77.6402 30.36 76.9469 30.2C76.2802 30.04 75.6402 29.8933 75.0269 29.76C74.4402 29.6 73.8935 29.52 73.3869 29.52C72.1069 29.52 71.0669 30.12 70.2669 31.32C69.9202 31.1867 69.6269 30.9467 69.3869 30.6C69.1735 30.2533 69.0402 29.8667 68.9869 29.44ZM82.5869 9.8C81.8669 9.61333 81.3202 9.44 80.9469 9.28C80.6002 9.12 80.2802 8.90666 79.9869 8.64C79.8269 7.12 79.5202 5.78667 79.0669 4.64C78.6135 3.49333 78.0002 2.44 77.2269 1.48C77.4402 1.42666 77.5869 1.4 77.6669 1.4C77.7469 1.4 77.8269 1.4 77.9069 1.4C79.4269 1.4 80.9069 3.02667 82.3469 6.28C83.1735 5.24 83.8935 4.41333 84.5069 3.8C85.1202 3.18667 85.7202 2.73333 86.3069 2.44C86.5735 2.49333 86.8935 2.70667 87.2669 3.08C87.6669 3.42667 88.0669 3.86667 88.4669 4.4C87.4535 4.82667 86.4935 5.45333 85.5869 6.28C84.6802 7.10666 83.6802 8.28 82.5869 9.8ZM103.341 13.44C103.234 15.0933 102.941 16.52 102.461 17.72C101.981 18.8933 101.287 19.9333 100.381 20.84C99.5006 21.72 98.4206 22.52 97.1406 23.24C95.8606 23.96 94.3673 24.6533 92.6606 25.32C92.6606 25.48 92.6473 25.6533 92.6206 25.84C92.6206 26 92.6206 26.1733 92.6206 26.36C92.6206 26.7067 92.6473 27.0667 92.7006 27.44C92.754 27.8133 92.8473 28.16 92.9806 28.48C93.114 28.8 93.3006 29.0667 93.5406 29.28C93.7806 29.4667 94.0873 29.56 94.4606 29.56C95.1806 29.56 95.8873 29.4 96.5806 29.08C97.274 28.76 97.9273 28.3733 98.5406 27.92C99.1806 27.44 99.7673 26.9333 100.301 26.4C100.861 25.84 101.354 25.3333 101.781 24.88C102.047 25.12 102.274 25.3467 102.461 25.56C101.261 27.16 99.9406 28.4933 98.5006 29.56C97.0873 30.6 95.7406 31.2667 94.4606 31.56C92.6206 31.3467 91.1806 30.68 90.1406 29.56C89.1273 28.4133 88.6206 27.04 88.6206 25.44C88.6206 24.3467 88.7673 23.24 89.0606 22.12C89.3806 20.9733 89.8073 19.88 90.3406 18.84C90.9006 17.7733 91.5406 16.7733 92.2606 15.84C93.0073 14.9067 93.794 14.0933 94.6206 13.4C95.474 12.7067 96.3406 12.16 97.2206 11.76C98.1273 11.36 99.0206 11.16 99.9006 11.16C101.127 11.32 102.274 12.08 103.341 13.44ZM100.581 14.76C99.8606 14.8667 99.114 15.16 98.3406 15.64C97.5673 16.12 96.834 16.76 96.1406 17.56C95.474 18.36 94.8606 19.2933 94.3006 20.36C93.7406 21.4267 93.3006 22.5733 92.9806 23.8C95.114 22.7333 96.8873 21.4267 98.3006 19.88C99.714 18.3067 100.474 16.6 100.581 14.76ZM114.964 22.96C114.964 21.44 115.27 19.9733 115.884 18.56C116.524 17.12 117.35 15.8533 118.364 14.76C119.404 13.64 120.577 12.7467 121.884 12.08C123.217 11.3867 124.59 11.04 126.004 11.04C127.39 11.04 128.457 11.3867 129.204 12.08C129.95 12.7733 130.324 13.76 130.324 15.04C130.324 15.6533 130.23 16.2533 130.044 16.84C129.884 17.4 129.657 17.9067 129.364 18.36C129.097 18.8133 128.777 19.1867 128.404 19.48C128.03 19.7467 127.657 19.88 127.284 19.88C126.964 19.88 126.63 19.7867 126.284 19.6C125.964 19.3867 125.697 19.12 125.484 18.8C127.27 17.1733 128.164 15.6933 128.164 14.36C128.164 13.5867 127.857 13.2 127.244 13.2C126.71 13.2 126.044 13.4533 125.244 13.96C124.444 14.4667 123.67 15.1333 122.924 15.96C121.777 17.24 120.897 18.6667 120.284 20.24C119.697 21.7867 119.404 23.4133 119.404 25.12C119.404 27.28 119.884 28.5733 120.844 29C121.244 28.9467 121.71 28.8267 122.244 28.64C122.777 28.4533 123.35 28.2133 123.964 27.92C124.577 27.6 125.204 27.24 125.844 26.84C126.51 26.44 127.15 26.0133 127.764 25.56C127.87 25.64 127.964 25.76 128.044 25.92C128.124 26.08 128.164 26.2267 128.164 26.36C127.71 26.92 127.19 27.4667 126.604 28C126.017 28.5333 125.404 29.0267 124.764 29.48C124.124 29.9067 123.497 30.2667 122.884 30.56C122.297 30.88 121.777 31.08 121.324 31.16C120.444 31.08 119.617 30.8 118.844 30.32C118.07 29.8667 117.39 29.2667 116.804 28.52C116.244 27.7733 115.79 26.92 115.444 25.96C115.124 25 114.964 24 114.964 22.96ZM133.564 15.84C133.564 15.36 133.591 14.9067 133.644 14.48C133.724 14.0533 133.871 13.6933 134.084 13.4C134.298 13.08 134.591 12.84 134.964 12.68C135.338 12.4933 135.831 12.4 136.444 12.4C136.818 12.4 137.231 12.44 137.684 12.52C138.164 12.6 138.511 12.7467 138.724 12.96C138.618 13.4133 138.524 13.8133 138.444 14.16C138.391 14.5067 138.338 14.8933 138.284 15.32C138.258 15.72 138.231 16.2133 138.204 16.8C138.178 17.36 138.151 18.0933 138.124 19C138.071 20.8133 137.978 22.44 137.844 23.88C137.738 25.2933 137.471 26.7067 137.044 28.12C137.044 28.2267 137.084 28.28 137.164 28.28C137.564 27.9867 138.018 27.56 138.524 27C139.031 26.44 139.564 25.8133 140.124 25.12C140.684 24.4 141.244 23.64 141.804 22.84C142.364 22.04 142.884 21.2533 143.364 20.48C144.004 19.36 144.711 17.96 145.484 16.28C146.258 14.6 146.898 12.8 147.404 10.88C147.564 10.88 147.764 10.92 148.004 11C148.271 11.0533 148.524 11.1333 148.764 11.24C149.031 11.32 149.258 11.4133 149.444 11.52C149.658 11.6267 149.804 11.72 149.884 11.8C149.831 12.9467 149.551 14.12 149.044 15.32C148.564 16.52 147.978 17.68 147.284 18.8C146.591 19.92 145.858 20.9733 145.084 21.96C144.311 22.9467 143.604 23.8 142.964 24.52C141.684 26.0133 140.391 27.3467 139.084 28.52C137.804 29.6933 136.271 30.8267 134.484 31.92C133.791 31.6533 133.244 31.2933 132.844 30.84C132.444 30.4133 132.244 29.96 132.244 29.48C132.244 29.16 132.311 28.8 132.444 28.4C132.604 27.9733 132.778 27.44 132.964 26.8C133.151 26.1333 133.311 25.3067 133.444 24.32C133.604 23.3333 133.684 22.08 133.684 20.56C133.684 19.68 133.658 18.8 133.604 17.92C133.578 17.0133 133.564 16.32 133.564 15.84ZM149.334 27.32C149.334 27.08 149.347 26.7867 149.374 26.44C149.427 26.0667 149.507 25.5867 149.614 25C149.721 24.3867 149.854 23.6533 150.014 22.8C150.201 21.9467 150.427 20.92 150.694 19.72C150.747 19.4533 150.867 19.0267 151.054 18.44C151.241 17.8533 151.481 17.24 151.774 16.6C152.094 15.9333 152.467 15.2933 152.894 14.68C153.347 14.0667 153.881 13.6133 154.494 13.32C154.947 13.4267 155.547 13.7067 156.294 14.16C157.041 14.5867 157.681 15.1867 158.214 15.96C157.601 16.6533 157.081 17.3467 156.654 18.04C156.254 18.7333 155.881 19.4533 155.534 20.2C155.214 20.9467 154.907 21.72 154.614 22.52C154.347 23.32 154.041 24.16 153.694 25.04C153.401 25.7867 153.134 26.56 152.894 27.36C152.654 28.1333 152.521 28.8133 152.494 29.4C152.494 29.88 152.481 30.2133 152.454 30.4C152.454 30.6133 152.387 30.72 152.254 30.72C152.147 30.72 151.934 30.6533 151.614 30.52C151.294 30.3867 150.961 30.1867 150.614 29.92C150.294 29.6267 150.001 29.2667 149.734 28.84C149.467 28.4133 149.334 27.9067 149.334 27.32ZM156.974 9.96C156.974 9.8 157.014 9.56 157.094 9.24C156.961 9.10666 156.841 8.90666 156.734 8.64C156.654 8.37333 156.614 8.13333 156.614 7.92C156.614 7.68 156.641 7.36 156.694 6.96C156.774 6.53333 156.867 6.08 156.974 5.6C157.081 5.12 157.214 4.62667 157.374 4.12C157.534 3.58666 157.694 3.10666 157.854 2.68C158.174 2.68 158.561 2.77333 159.014 2.96C159.494 3.12 159.974 3.34667 160.454 3.64C160.934 3.90666 161.374 4.21333 161.774 4.56C162.174 4.88 162.481 5.18667 162.694 5.48C162.401 5.77333 162.014 6.18666 161.534 6.72C161.054 7.22667 160.587 7.77333 160.134 8.36C159.681 8.92 159.267 9.45333 158.894 9.96C158.521 10.4667 158.281 10.8267 158.174 11.04C157.854 10.9867 157.574 10.8533 157.334 10.64C157.094 10.4 156.974 10.1733 156.974 9.96ZM159.627 22.52C160.614 18.5733 161.574 15.6933 162.507 13.88C163.467 12.04 164.467 11.12 165.507 11.12C166.254 11.12 167.147 11.48 168.187 12.2C167.334 13.72 166.667 14.9867 166.187 16C165.734 16.9867 165.401 17.8933 165.187 18.72C164.734 20.32 164.254 21.9867 163.747 23.72C163.241 25.4267 162.734 27.0667 162.227 28.64C161.747 30.2133 161.294 31.6267 160.867 32.88C160.467 34.16 160.147 35.1333 159.907 35.8C159.321 37.3733 158.734 38.7067 158.147 39.8C157.587 40.8933 157.001 41.7867 156.387 42.48C155.774 43.1733 155.134 43.68 154.467 44C153.774 44.32 153.027 44.48 152.227 44.48C151.641 44.48 151.067 44.4133 150.507 44.28C149.921 44.1733 149.374 44.0133 148.867 43.8C148.361 43.6133 147.907 43.3733 147.507 43.08C147.107 42.7867 146.787 42.48 146.547 42.16C146.574 41.9733 146.667 41.7867 146.827 41.6C146.961 41.44 147.094 41.3467 147.227 41.32C147.681 41.8 148.161 42.1467 148.667 42.36C149.147 42.5733 149.734 42.68 150.427 42.68C151.281 42.68 152.041 42.4267 152.707 41.92C153.347 41.4133 154.001 40.4267 154.667 38.96C155.334 37.52 156.054 35.48 156.827 32.84C157.601 30.2267 158.534 26.7867 159.627 22.52ZM166.147 7.96C166.147 7.82667 166.187 7.6 166.267 7.28C165.947 6.96 165.787 6.50666 165.787 5.92C165.787 5.68 165.814 5.34667 165.867 4.92C165.947 4.49333 166.041 4.04 166.147 3.56C166.281 3.05333 166.414 2.54667 166.547 2.04C166.707 1.53333 166.867 1.09333 167.027 0.719998C167.347 0.719998 167.734 0.813332 168.187 0.999999C168.667 1.16 169.147 1.38667 169.627 1.68C170.107 1.94667 170.547 2.25333 170.947 2.6C171.347 2.92 171.654 3.22666 171.867 3.52C171.547 3.81333 171.147 4.22667 170.667 4.76C170.187 5.29333 169.721 5.85333 169.267 6.44C168.814 7 168.401 7.53333 168.027 8.04C167.654 8.52 167.427 8.86667 167.347 9.08C167.027 9.02667 166.747 8.89333 166.507 8.68C166.267 8.44 166.147 8.2 166.147 7.96ZM182.52 13.44C182.414 15.0933 182.12 16.52 181.64 17.72C181.16 18.8933 180.467 19.9333 179.56 20.84C178.68 21.72 177.6 22.52 176.32 23.24C175.04 23.96 173.547 24.6533 171.84 25.32C171.84 25.48 171.827 25.6533 171.8 25.84C171.8 26 171.8 26.1733 171.8 26.36C171.8 26.7067 171.827 27.0667 171.88 27.44C171.934 27.8133 172.027 28.16 172.16 28.48C172.294 28.8 172.48 29.0667 172.72 29.28C172.96 29.4667 173.267 29.56 173.64 29.56C174.36 29.56 175.067 29.4 175.76 29.08C176.454 28.76 177.107 28.3733 177.72 27.92C178.36 27.44 178.947 26.9333 179.48 26.4C180.04 25.84 180.534 25.3333 180.96 24.88C181.227 25.12 181.454 25.3467 181.64 25.56C180.44 27.16 179.12 28.4933 177.68 29.56C176.267 30.6 174.92 31.2667 173.64 31.56C171.8 31.3467 170.36 30.68 169.32 29.56C168.307 28.4133 167.8 27.04 167.8 25.44C167.8 24.3467 167.947 23.24 168.24 22.12C168.56 20.9733 168.987 19.88 169.52 18.84C170.08 17.7733 170.72 16.7733 171.44 15.84C172.187 14.9067 172.974 14.0933 173.8 13.4C174.654 12.7067 175.52 12.16 176.4 11.76C177.307 11.36 178.2 11.16 179.08 11.16C180.307 11.32 181.454 12.08 182.52 13.44ZM179.76 14.76C179.04 14.8667 178.294 15.16 177.52 15.64C176.747 16.12 176.014 16.76 175.32 17.56C174.654 18.36 174.04 19.2933 173.48 20.36C172.92 21.4267 172.48 22.5733 172.16 23.8C174.294 22.7333 176.067 21.4267 177.48 19.88C178.894 18.3067 179.654 16.6 179.76 14.76ZM184.612 22.96C184.612 21.44 184.919 19.9733 185.532 18.56C186.172 17.12 186.999 15.8533 188.012 14.76C189.052 13.64 190.226 12.7467 191.532 12.08C192.866 11.3867 194.239 11.04 195.652 11.04C197.039 11.04 198.106 11.3867 198.852 12.08C199.599 12.7733 199.972 13.76 199.972 15.04C199.972 15.6533 199.879 16.2533 199.692 16.84C199.532 17.4 199.306 17.9067 199.012 18.36C198.746 18.8133 198.426 19.1867 198.052 19.48C197.679 19.7467 197.306 19.88 196.932 19.88C196.612 19.88 196.279 19.7867 195.932 19.6C195.612 19.3867 195.346 19.12 195.132 18.8C196.919 17.1733 197.812 15.6933 197.812 14.36C197.812 13.5867 197.506 13.2 196.892 13.2C196.359 13.2 195.692 13.4533 194.892 13.96C194.092 14.4667 193.319 15.1333 192.572 15.96C191.426 17.24 190.546 18.6667 189.932 20.24C189.346 21.7867 189.052 23.4133 189.052 25.12C189.052 27.28 189.532 28.5733 190.492 29C190.892 28.9467 191.359 28.8267 191.892 28.64C192.426 28.4533 192.999 28.2133 193.612 27.92C194.226 27.6 194.852 27.24 195.492 26.84C196.159 26.44 196.799 26.0133 197.412 25.56C197.519 25.64 197.612 25.76 197.692 25.92C197.772 26.08 197.812 26.2267 197.812 26.36C197.359 26.92 196.839 27.4667 196.252 28C195.666 28.5333 195.052 29.0267 194.412 29.48C193.772 29.9067 193.146 30.2667 192.532 30.56C191.946 30.88 191.426 31.08 190.972 31.16C190.092 31.08 189.266 30.8 188.492 30.32C187.719 29.8667 187.039 29.2667 186.452 28.52C185.892 27.7733 185.439 26.92 185.092 25.96C184.772 25 184.612 24 184.612 22.96ZM202.692 0.839999C202.959 0.999998 203.226 1.26666 203.492 1.64C203.786 1.98666 204.039 2.38667 204.252 2.84C204.492 3.26667 204.679 3.70667 204.812 4.16C204.946 4.61333 205.012 5.02667 205.012 5.4C203.999 6.09333 203.106 6.66667 202.332 7.12C201.586 7.57333 200.906 7.94667 200.292 8.24C199.706 8.50667 199.186 8.70667 198.732 8.84C198.279 8.94667 197.839 9 197.412 9C196.559 9 195.826 8.74667 195.212 8.24C195.799 8.02667 196.412 7.69333 197.052 7.24C197.692 6.78667 198.332 6.24 198.972 5.6C199.639 4.96 200.279 4.24 200.892 3.44C201.532 2.64 202.132 1.77333 202.692 0.839999ZM215.489 13.44C215.382 15.0933 215.089 16.52 214.609 17.72C214.129 18.8933 213.436 19.9333 212.529 20.84C211.649 21.72 210.569 22.52 209.289 23.24C208.009 23.96 206.516 24.6533 204.809 25.32C204.809 25.48 204.796 25.6533 204.769 25.84C204.769 26 204.769 26.1733 204.769 26.36C204.769 26.7067 204.796 27.0667 204.849 27.44C204.902 27.8133 204.996 28.16 205.129 28.48C205.262 28.8 205.449 29.0667 205.689 29.28C205.929 29.4667 206.236 29.56 206.609 29.56C207.329 29.56 208.036 29.4 208.729 29.08C209.422 28.76 210.076 28.3733 210.689 27.92C211.329 27.44 211.916 26.9333 212.449 26.4C213.009 25.84 213.502 25.3333 213.929 24.88C214.196 25.12 214.422 25.3467 214.609 25.56C213.409 27.16 212.089 28.4933 210.649 29.56C209.236 30.6 207.889 31.2667 206.609 31.56C204.769 31.3467 203.329 30.68 202.289 29.56C201.276 28.4133 200.769 27.04 200.769 25.44C200.769 24.3467 200.916 23.24 201.209 22.12C201.529 20.9733 201.956 19.88 202.489 18.84C203.049 17.7733 203.689 16.7733 204.409 15.84C205.156 14.9067 205.942 14.0933 206.769 13.4C207.622 12.7067 208.489 12.16 209.369 11.76C210.276 11.36 211.169 11.16 212.049 11.16C213.276 11.32 214.422 12.08 215.489 13.44ZM212.729 14.76C212.009 14.8667 211.262 15.16 210.489 15.64C209.716 16.12 208.982 16.76 208.289 17.56C207.622 18.36 207.009 19.2933 206.449 20.36C205.889 21.4267 205.449 22.5733 205.129 23.8C207.262 22.7333 209.036 21.4267 210.449 19.88C211.862 18.3067 212.622 16.6 212.729 14.76Z" fill="#6FDCF6" data-v-1afa2a7a=""></path></svg>