<svg xmlns:xlink="http://www.w3.org/1999/xlink" width="226" height="49" class="mx-auto" viewBox="0 0 226 49" fill="none" xmlns="http://www.w3.org/2000/svg" data-v-1afa2a7a=""><path d="M13.4 7.08C12.2267 8.65333 11.16 10.3867 10.2 12.28C9.24 14.1733 8.41333 16.12 7.72 18.12C7.05333 20.0933 6.53333 22.0533 6.16 24C5.81333 25.92 5.64 27.72 5.64 29.4C5.64 31.48 5.94667 32.9867 6.56 33.92C7.17333 34.8533 8.22667 35.32 9.72 35.32C11.4533 35.32 12.9733 34.72 14.28 33.52C15.5867 32.2933 16.8133 30.6133 17.96 28.48C18.7067 27.0933 19.3467 25.5733 19.88 23.92C20.4133 22.2667 20.84 20.5733 21.16 18.84C21.5067 17.08 21.76 15.32 21.92 13.56C22.08 11.7733 22.16 10.0667 22.16 8.44C22.16 7.4 22.1467 6.64 22.12 6.16C22.0933 5.68 22.0533 5.29333 22 5C22.08 5 22.28 5.02667 22.6 5.08C22.92 5.13333 23.28 5.2 23.68 5.28C24.1067 5.36 24.52 5.46667 24.92 5.6C25.3467 5.73333 25.7067 5.88 26 6.04C25.8667 8.06667 25.6133 10.16 25.24 12.32C24.8933 14.48 24.4267 16.6133 23.84 18.72C23.2533 20.8267 22.5733 22.8533 21.8 24.8C21.0267 26.7467 20.16 28.4933 19.2 30.04C17.7867 32.3333 16.2 34.12 14.44 35.4C12.68 36.7067 10.6 37.36 8.2 37.36C5.74667 37.36 3.84 36.64 2.48 35.2C1.12 33.7867 0.440001 31.6267 0.440001 28.72C0.440001 27.04 0.626667 25.1467 1 23.04C1.37333 20.9067 1.86667 18.7467 2.48 16.56C3.12 14.3467 3.85333 12.2 4.68 10.12C5.50667 8.01333 6.37333 6.13333 7.28 4.48C7.73333 4.50666 8.26667 4.6 8.88 4.76C9.49333 4.92 10.0933 5.13333 10.68 5.4C11.2667 5.64 11.8 5.92 12.28 6.24C12.7867 6.53333 13.16 6.81333 13.4 7.08ZM38.8675 18.08C38.8408 18.5867 38.7475 19.12 38.5875 19.68C38.4542 20.2133 38.2808 20.7067 38.0675 21.16C37.8542 21.5867 37.6275 21.9467 37.3875 22.24C37.1475 22.5333 36.9208 22.68 36.7075 22.68C36.4142 22.6533 36.2408 22.4533 36.1875 22.08C36.1875 22 36.2142 21.88 36.2675 21.72C36.3475 21.5333 36.4275 21.3333 36.5075 21.12C36.5875 20.9067 36.6542 20.6933 36.7075 20.48C36.7875 20.2667 36.8275 20.08 36.8275 19.92C36.8275 19.5467 36.7342 19.24 36.5475 19C36.3875 18.7333 36.1608 18.6 35.8675 18.6C34.8008 18.6 33.9875 19.2667 33.4275 20.6C32.8675 21.9333 32.5875 23.8933 32.5875 26.48C32.5875 26.7467 32.6008 26.9067 32.6275 26.96C33.1875 26.9333 33.6808 26.92 34.1075 26.92C34.5608 26.8933 35.0008 26.88 35.4275 26.88C35.4542 26.9333 35.4675 27.04 35.4675 27.2C35.4675 27.44 35.4142 27.6133 35.3075 27.72C34.6942 27.8533 34.2008 27.9733 33.8275 28.08C33.4808 28.16 33.2142 28.24 33.0275 28.32C32.8408 28.4 32.7208 28.4933 32.6675 28.6C32.6408 28.68 32.6275 28.8 32.6275 28.96C32.6275 29.1733 32.6275 29.3867 32.6275 29.6C32.6542 29.8133 32.6675 30.08 32.6675 30.4C32.6675 32.64 32.0542 34.44 30.8275 35.8C29.6275 37.16 27.9475 37.9467 25.7875 38.16C25.4142 38.1333 25.0275 38.0267 24.6275 37.84C24.2275 37.6533 23.8408 37.4133 23.4675 37.12C23.1208 36.8267 22.8142 36.4933 22.5475 36.12C22.2808 35.7733 22.0942 35.4133 21.9875 35.04C21.9875 34.0267 22.2008 33.0667 22.6275 32.16C23.0542 31.2267 23.6275 30.4133 24.3475 29.72C25.0942 29 25.9608 28.4267 26.9475 28C27.9608 27.5467 29.0542 27.28 30.2275 27.2C30.2275 26.5333 30.1608 25.88 30.0275 25.24C29.8942 24.6 29.7475 23.9867 29.5875 23.4C29.4542 22.7867 29.3208 22.2 29.1875 21.64C29.0542 21.0533 28.9875 20.48 28.9875 19.92C28.9875 19.2 29.1342 18.4933 29.4275 17.8C29.7208 17.08 30.1075 16.4267 30.5875 15.84C31.0675 15.2267 31.6275 14.7067 32.2675 14.28C32.9075 13.8533 33.5742 13.56 34.2675 13.4C34.5608 13.48 34.9475 13.72 35.4275 14.12C35.9342 14.4933 36.4275 14.92 36.9075 15.4C37.3875 15.88 37.8142 16.3733 38.1875 16.88C38.5608 17.36 38.7875 17.76 38.8675 18.08ZM25.6675 36.32C26.3075 36.0533 26.9075 35.6667 27.4675 35.16C28.0542 34.6533 28.5608 34.08 28.9875 33.44C29.4142 32.8 29.7475 32.12 29.9875 31.4C30.2542 30.68 30.3875 29.9733 30.3875 29.28C29.8542 29.36 29.2675 29.6133 28.6275 30.04C27.9875 30.44 27.3875 30.9333 26.8275 31.52C26.2675 32.08 25.8008 32.6667 25.4275 33.28C25.0542 33.8933 24.8675 34.4267 24.8675 34.88C24.8675 35.4667 25.1342 35.9467 25.6675 36.32ZM38.8556 31.44C38.8556 30.2667 39.1356 28.6267 39.6956 26.52C40.2556 24.3867 41.0423 21.9067 42.0556 19.08C43.709 14.5733 45.2556 10.8267 46.6956 7.84C48.1623 4.82667 49.589 2.48 50.9756 0.799998C51.2956 0.853331 51.6823 0.986664 52.1356 1.2C52.6156 1.41333 53.0823 1.65333 53.5356 1.92C53.989 2.16 54.389 2.41333 54.7356 2.68C55.109 2.94666 55.349 3.16 55.4556 3.32C53.3756 5.77333 51.549 8.41333 49.9756 11.24C48.4023 14.0667 46.9623 17.3067 45.6556 20.96C44.5356 24.1067 43.6823 26.9467 43.0956 29.48C42.509 31.9867 42.2156 34.08 42.2156 35.76C42.2156 36.2133 42.2156 36.4933 42.2156 36.6C42.2156 36.7067 42.229 36.8133 42.2556 36.92C41.8823 36.8667 41.5623 36.7733 41.2956 36.64C41.029 36.5067 40.8556 36.3467 40.7756 36.16C40.7223 36.0267 40.5756 35.8267 40.3356 35.56C40.0956 35.32 39.8823 35.1333 39.6956 35C39.4556 34.84 39.2556 34.4267 39.0956 33.76C38.9356 33.0667 38.8556 32.2933 38.8556 31.44ZM59.2288 33.12C58.7221 32.6933 58.3754 32.16 58.1888 31.52C58.0288 30.88 57.9488 30.3333 57.9488 29.88C57.9488 29.32 58.0154 28.84 58.1488 28.44C58.0421 28.44 57.8021 28.6533 57.4288 29.08C57.0554 29.5067 56.6421 30.0133 56.1888 30.6C55.7621 31.1867 55.3354 31.76 54.9088 32.32C54.4821 32.88 54.1621 33.2933 53.9488 33.56C53.6021 33.9333 53.2688 34.2267 52.9488 34.44C52.6554 34.6533 52.4154 34.7733 52.2288 34.8C51.8021 34.7733 51.3488 34.68 50.8688 34.52C50.4154 34.3867 49.9754 34.1867 49.5488 33.92C49.1488 33.6533 48.7888 33.3333 48.4688 32.96C48.1754 32.5867 47.9754 32.16 47.8688 31.68C47.8688 30.9333 47.8821 30.32 47.9088 29.84C47.9621 29.36 48.0554 28.84 48.1888 28.28C48.4288 27.2667 48.7754 26.12 49.2288 24.84C49.7088 23.56 50.2554 22.3067 50.8688 21.08C51.4821 19.8267 52.1621 18.6667 52.9088 17.6C53.6821 16.5067 54.4954 15.6533 55.3488 15.04C55.5888 15.04 55.8688 15.0667 56.1888 15.12C56.5088 15.1467 56.8288 15.2133 57.1488 15.32C57.4954 15.4267 57.8154 15.56 58.1088 15.72C58.4288 15.8533 58.6954 16.04 58.9088 16.28C58.6688 16.5467 58.0554 17.44 57.0688 18.96C56.1088 20.48 55.0288 22.6667 53.8288 25.52C53.6954 25.8133 53.5354 26.24 53.3488 26.8C53.1621 27.36 52.9754 27.9467 52.7888 28.56C52.6021 29.1733 52.4421 29.7733 52.3088 30.36C52.2021 30.9467 52.1488 31.4133 52.1488 31.76C52.1488 31.9733 52.1754 32.1333 52.2288 32.24C52.3088 32.3467 52.3754 32.4267 52.4288 32.48C52.8288 32.32 53.3354 31.88 53.9488 31.16C54.5621 30.44 55.4154 29.3333 56.5088 27.84C56.7754 27.4667 57.0821 27.04 57.4288 26.56C57.8021 26.08 58.1754 25.5733 58.5488 25.04C58.9221 24.48 59.2688 23.9067 59.5888 23.32C59.9354 22.7333 60.2154 22.1467 60.4288 21.56C60.5354 21.24 60.6688 20.8667 60.8288 20.44C61.0154 19.9867 61.2288 19.52 61.4688 19.04C61.7354 18.56 62.0288 18.08 62.3488 17.6C62.6954 17.0933 63.0954 16.6267 63.5488 16.2C63.8954 16.2 64.2688 16.24 64.6687 16.32C65.0688 16.4 65.4421 16.5067 65.7888 16.64C66.1621 16.7467 66.4821 16.88 66.7488 17.04C67.0154 17.1733 67.2154 17.32 67.3488 17.48C66.8688 18.6533 66.3354 19.8133 65.7488 20.96C65.1621 22.1067 64.6154 23.24 64.1088 24.36C63.6021 25.4533 63.1754 26.5467 62.8288 27.64C62.4821 28.7333 62.3088 29.8 62.3088 30.84C62.3088 31.4 62.3488 31.8933 62.4288 32.32C62.5354 32.72 62.6421 33.0667 62.7488 33.36C62.8554 33.6267 62.9488 33.8533 63.0288 34.04C63.1354 34.2267 63.1888 34.3867 63.1888 34.52C63.1888 34.5467 63.1621 34.5867 63.1088 34.64C63.0821 34.6667 63.0554 34.68 63.0288 34.68C62.8421 34.68 62.6021 34.64 62.3088 34.56C62.0154 34.48 61.6821 34.36 61.3088 34.2C60.9621 34.0667 60.6021 33.9067 60.2288 33.72C59.8821 33.5333 59.5488 33.3333 59.2288 33.12ZM59.8 45.92C59.8 45.76 59.8533 45.6133 59.96 45.48C60.0667 45.3467 60.1867 45.2133 60.32 45.08C60.64 45.3733 60.92 45.6 61.16 45.76C61.3733 45.92 61.5867 46.0533 61.8 46.16C61.9867 46.2667 62.1867 46.3333 62.4 46.36C62.6133 46.3867 62.8667 46.4 63.16 46.4C64.5467 46.4 65.8667 46.0267 67.12 45.28C68.3733 44.56 69.5467 43.5067 70.64 42.12C71.76 40.7333 72.7733 39.04 73.68 37.04C74.5867 35.04 75.3867 32.7733 76.08 30.24C75.76 30.56 75.36 30.92 74.88 31.32C74.4267 31.6933 73.9467 32.0533 73.44 32.4C72.9333 32.7467 72.4267 33.0667 71.92 33.36C71.44 33.6533 71.0267 33.8667 70.68 34C70.2267 33.92 69.8 33.7333 69.4 33.44C69.0267 33.12 68.6933 32.7333 68.4 32.28C68.1067 31.8267 67.88 31.32 67.72 30.76C67.56 30.1733 67.48 29.56 67.48 28.92C67.48 27.88 67.6667 26.8133 68.04 25.72C68.44 24.6267 68.96 23.56 69.6 22.52C70.24 21.4533 70.9867 20.4533 71.84 19.52C72.72 18.5867 73.64 17.7733 74.6 17.08C75.5867 16.3867 76.5733 15.84 77.56 15.44C78.5733 15.0133 79.56 14.8 80.52 14.8C81.4533 14.8 82.1467 15 82.6 15.4C83.08 15.7733 83.4267 16.4267 83.64 17.36C83.3467 17.2 82.9733 17.12 82.52 17.12C81.88 17.12 81.1333 17.3733 80.28 17.88C79.4533 18.3867 78.6 19.0533 77.72 19.88C76.8667 20.68 76.0133 21.6133 75.16 22.68C74.3067 23.72 73.5467 24.7867 72.88 25.88C72.24 26.9733 71.7067 28.04 71.28 29.08C70.88 30.12 70.68 31.0533 70.68 31.88C70.68 32.0667 70.6933 32.1867 70.72 32.24C70.7467 32.2667 70.7867 32.28 70.84 32.28C71.08 32.28 71.4 32.1467 71.8 31.88C72.2267 31.6133 72.6933 31.28 73.2 30.88C73.7333 30.4533 74.28 29.9733 74.84 29.44C75.4 28.88 75.9333 28.32 76.44 27.76C77.5867 26.48 78.6267 25.0533 79.56 23.48C80.52 21.88 81.28 20.3333 81.84 18.84C82.56 18.8933 83.2 19.0133 83.76 19.2C84.32 19.3867 84.7067 19.5867 84.92 19.8C84.0133 21.88 83.28 23.6267 82.72 25.04C82.1867 26.4533 81.72 27.7067 81.32 28.8C80.6 30.72 79.92 32.4667 79.28 34.04C78.6667 35.64 78.0267 37.1067 77.36 38.44C76.72 39.8 76.0133 41.0533 75.24 42.2C74.4933 43.3733 73.64 44.4933 72.68 45.56C72.2267 46.0667 71.7067 46.5067 71.12 46.88C70.56 47.28 69.9733 47.6133 69.36 47.88C68.7733 48.1467 68.1867 48.3467 67.6 48.48C67.04 48.6133 66.52 48.68 66.04 48.68C65.4 48.68 64.7467 48.6 64.08 48.44C63.4133 48.3067 62.8 48.1067 62.24 47.84C61.6533 47.6 61.1467 47.3067 60.72 46.96C60.2933 46.64 59.9867 46.2933 59.8 45.92ZM100.208 17.44C100.101 19.0933 99.8078 20.52 99.3278 21.72C98.8478 22.8933 98.1545 23.9333 97.2478 24.84C96.3678 25.72 95.2878 26.52 94.0078 27.24C92.7278 27.96 91.2345 28.6533 89.5278 29.32C89.5278 29.48 89.5145 29.6533 89.4878 29.84C89.4878 30 89.4878 30.1733 89.4878 30.36C89.4878 30.7067 89.5145 31.0667 89.5678 31.44C89.6211 31.8133 89.7145 32.16 89.8478 32.48C89.9811 32.8 90.1678 33.0667 90.4078 33.28C90.6478 33.4667 90.9545 33.56 91.3278 33.56C92.0478 33.56 92.7545 33.4 93.4478 33.08C94.1411 32.76 94.7945 32.3733 95.4078 31.92C96.0478 31.44 96.6345 30.9333 97.1678 30.4C97.7278 29.84 98.2211 29.3333 98.6478 28.88C98.9145 29.12 99.1411 29.3467 99.3278 29.56C98.1278 31.16 96.8078 32.4933 95.3678 33.56C93.9545 34.6 92.6078 35.2667 91.3278 35.56C89.4878 35.3467 88.0478 34.68 87.0078 33.56C85.9945 32.4133 85.4878 31.04 85.4878 29.44C85.4878 28.3467 85.6345 27.24 85.9278 26.12C86.2478 24.9733 86.6745 23.88 87.2078 22.84C87.7678 21.7733 88.4078 20.7733 89.1278 19.84C89.8745 18.9067 90.6611 18.0933 91.4878 17.4C92.3411 16.7067 93.2078 16.16 94.0878 15.76C94.9945 15.36 95.8878 15.16 96.7678 15.16C97.9945 15.32 99.1411 16.08 100.208 17.44ZM97.4478 18.76C96.7278 18.8667 95.9811 19.16 95.2078 19.64C94.4345 20.12 93.7011 20.76 93.0078 21.56C92.3411 22.36 91.7278 23.2933 91.1678 24.36C90.6078 25.4267 90.1678 26.5733 89.8478 27.8C91.9811 26.7333 93.7545 25.4267 95.1678 23.88C96.5811 22.3067 97.3411 20.6 97.4478 18.76ZM120.311 15.32C120.844 15.32 121.458 15.48 122.151 15.8C122.844 16.12 123.458 16.5333 123.991 17.04C123.858 15.9733 123.684 14.9733 123.471 14.04C123.284 13.08 122.991 12.0933 122.591 11.08C122.218 10.0667 121.711 8.96 121.071 7.76C120.431 6.56 119.631 5.18666 118.671 3.64C118.751 3.4 118.924 3.12 119.191 2.8C119.484 2.48 119.804 2.18666 120.151 1.92C120.524 1.62667 120.898 1.37333 121.271 1.16C121.671 0.946665 122.044 0.813331 122.391 0.759999C123.138 1.58667 123.844 2.62667 124.511 3.88C125.178 5.10667 125.764 6.44 126.271 7.88C126.778 9.29333 127.164 10.76 127.431 12.28C127.724 13.8 127.871 15.2533 127.871 16.64C127.871 18.0267 127.711 19.4533 127.391 20.92C127.098 22.3867 126.671 23.8267 126.111 25.24C125.578 26.6267 124.951 27.9467 124.231 29.2C123.511 30.4533 122.724 31.5733 121.871 32.56C121.044 33.5467 120.178 34.3467 119.271 34.96C118.364 35.6 117.458 36 116.551 36.16C114.711 35.9467 113.298 35.3467 112.311 34.36C111.351 33.4 110.871 32.0667 110.871 30.36C110.871 29.4533 111.004 28.4667 111.271 27.4C111.564 26.3333 111.938 25.28 112.391 24.24C112.871 23.1733 113.418 22.1467 114.031 21.16C114.671 20.1467 115.338 19.24 116.031 18.44C116.751 17.64 117.471 16.96 118.191 16.4C118.911 15.84 119.618 15.48 120.311 15.32ZM116.231 34.56C117.164 34.24 118.098 33.5333 119.031 32.44C119.964 31.3467 120.804 30.0667 121.551 28.6C122.298 27.1067 122.898 25.52 123.351 23.84C123.831 22.1333 124.071 20.4933 124.071 18.92C124.071 18.4667 124.071 18.1867 124.071 18.08C124.071 17.9733 124.058 17.8667 124.031 17.76C123.391 18.0267 122.711 18.48 121.991 19.12C121.271 19.76 120.551 20.5067 119.831 21.36C119.111 22.1867 118.431 23.0933 117.791 24.08C117.151 25.0667 116.578 26.0533 116.071 27.04C115.564 28.0267 115.164 28.9733 114.871 29.88C114.578 30.7867 114.431 31.5867 114.431 32.28C114.431 33.6133 115.031 34.3733 116.231 34.56ZM133.616 35.4C132.096 35.24 130.882 34.5733 129.976 33.4C129.069 32.2267 128.616 30.7333 128.616 28.92C128.616 27.8533 128.776 26.7467 129.096 25.6C129.416 24.4533 129.869 23.3467 130.456 22.28C131.042 21.1867 131.736 20.16 132.536 19.2C133.336 18.24 134.202 17.4133 135.136 16.72C136.602 15.6267 137.976 15.08 139.256 15.08C140.109 15.5333 140.949 16.48 141.776 17.92C141.909 17.92 142.029 17.92 142.136 17.92C142.242 17.8933 142.362 17.88 142.496 17.88C143.909 17.88 144.616 19.1333 144.616 21.64C144.616 23.32 144.336 24.92 143.776 26.44C143.242 27.9333 142.482 29.2933 141.496 30.52C140.536 31.7467 139.376 32.7867 138.016 33.64C136.682 34.4667 135.216 35.0533 133.616 35.4ZM135.656 22.8C135.202 23.4133 134.776 24.08 134.376 24.8C133.976 25.52 133.629 26.2533 133.336 27C133.042 27.72 132.816 28.4267 132.656 29.12C132.496 29.7867 132.416 30.3867 132.416 30.92C132.416 31.56 132.522 32.1733 132.736 32.76C132.949 33.3467 133.189 33.68 133.456 33.76C134.656 33.4933 135.749 33 136.736 32.28C137.749 31.5333 138.616 30.6133 139.336 29.52C140.082 28.4267 140.656 27.1867 141.056 25.8C141.482 24.4133 141.696 22.9333 141.696 21.36C141.696 20.6667 141.656 20.12 141.576 19.72C141.496 19.32 141.362 18.9733 141.176 18.68C140.002 19.0267 138.949 19.5867 138.016 20.36C137.109 21.1333 136.322 21.9467 135.656 22.8ZM160.352 18.08C160.325 18.5867 160.232 19.12 160.072 19.68C159.939 20.2133 159.765 20.7067 159.552 21.16C159.339 21.5867 159.112 21.9467 158.872 22.24C158.632 22.5333 158.405 22.68 158.192 22.68C157.899 22.6533 157.725 22.4533 157.672 22.08C157.672 22 157.699 21.88 157.752 21.72C157.832 21.5333 157.912 21.3333 157.992 21.12C158.072 20.9067 158.139 20.6933 158.192 20.48C158.272 20.2667 158.312 20.08 158.312 19.92C158.312 19.5467 158.219 19.24 158.032 19C157.872 18.7333 157.645 18.6 157.352 18.6C156.285 18.6 155.472 19.2667 154.912 20.6C154.352 21.9333 154.072 23.8933 154.072 26.48C154.072 26.7467 154.085 26.9067 154.112 26.96C154.672 26.9333 155.165 26.92 155.592 26.92C156.045 26.8933 156.485 26.88 156.912 26.88C156.939 26.9333 156.952 27.04 156.952 27.2C156.952 27.44 156.899 27.6133 156.792 27.72C156.179 27.8533 155.685 27.9733 155.312 28.08C154.965 28.16 154.699 28.24 154.512 28.32C154.325 28.4 154.205 28.4933 154.152 28.6C154.125 28.68 154.112 28.8 154.112 28.96C154.112 29.1733 154.112 29.3867 154.112 29.6C154.139 29.8133 154.152 30.08 154.152 30.4C154.152 32.64 153.539 34.44 152.312 35.8C151.112 37.16 149.432 37.9467 147.272 38.16C146.899 38.1333 146.512 38.0267 146.112 37.84C145.712 37.6533 145.325 37.4133 144.952 37.12C144.605 36.8267 144.299 36.4933 144.032 36.12C143.765 35.7733 143.579 35.4133 143.472 35.04C143.472 34.0267 143.685 33.0667 144.112 32.16C144.539 31.2267 145.112 30.4133 145.832 29.72C146.579 29 147.445 28.4267 148.432 28C149.445 27.5467 150.539 27.28 151.712 27.2C151.712 26.5333 151.645 25.88 151.512 25.24C151.379 24.6 151.232 23.9867 151.072 23.4C150.939 22.7867 150.805 22.2 150.672 21.64C150.539 21.0533 150.472 20.48 150.472 19.92C150.472 19.2 150.619 18.4933 150.912 17.8C151.205 17.08 151.592 16.4267 152.072 15.84C152.552 15.2267 153.112 14.7067 153.752 14.28C154.392 13.8533 155.059 13.56 155.752 13.4C156.045 13.48 156.432 13.72 156.912 14.12C157.419 14.4933 157.912 14.92 158.392 15.4C158.872 15.88 159.299 16.3733 159.672 16.88C160.045 17.36 160.272 17.76 160.352 18.08ZM147.152 36.32C147.792 36.0533 148.392 35.6667 148.952 35.16C149.539 34.6533 150.045 34.08 150.472 33.44C150.899 32.8 151.232 32.12 151.472 31.4C151.739 30.68 151.872 29.9733 151.872 29.28C151.339 29.36 150.752 29.6133 150.112 30.04C149.472 30.44 148.872 30.9333 148.312 31.52C147.752 32.08 147.285 32.6667 146.912 33.28C146.539 33.8933 146.352 34.4267 146.352 34.88C146.352 35.4667 146.619 35.9467 147.152 36.32ZM162.74 18.68C162.607 18.52 162.487 18.1867 162.38 17.68C162.273 17.1467 162.22 16.6933 162.22 16.32C162.913 16.3733 163.58 16.4267 164.22 16.48C164.86 16.5067 165.447 16.5333 165.98 16.56C166.38 15.76 166.807 14.9733 167.26 14.2C167.74 13.4 168.193 12.68 168.62 12.04C169.073 11.3733 169.487 10.8133 169.86 10.36C170.26 9.90667 170.567 9.61333 170.78 9.48C171.047 9.48 171.38 9.53333 171.78 9.64C172.207 9.72 172.633 9.84 173.06 10C173.487 10.1333 173.873 10.28 174.22 10.44C174.567 10.6 174.807 10.76 174.94 10.92C174.14 11.9333 173.447 12.88 172.86 13.76C172.3 14.6133 171.687 15.6 171.02 16.72C171.553 16.72 172.087 16.7067 172.62 16.68C173.18 16.6533 173.74 16.6133 174.3 16.56C174.433 16.6933 174.54 16.8667 174.62 17.08C174.7 17.2667 174.74 17.4667 174.74 17.68C173.433 18.16 171.847 18.4267 169.98 18.48C169.313 19.76 168.713 21.04 168.18 22.32C167.673 23.5733 167.233 24.7867 166.86 25.96C166.513 27.1333 166.233 28.24 166.02 29.28C165.833 30.32 165.74 31.2533 165.74 32.08C165.74 33.2533 166.18 33.9067 167.06 34.04C167.86 33.9333 168.62 33.7333 169.34 33.44C170.06 33.1467 170.7 32.7733 171.26 32.32C171.42 32.56 171.513 32.76 171.54 32.92C171.38 33.16 171.1 33.44 170.7 33.76C170.327 34.08 169.913 34.3867 169.46 34.68C169.007 35 168.567 35.2667 168.14 35.48C167.713 35.6933 167.393 35.8133 167.18 35.84C166.513 35.8133 165.847 35.6667 165.18 35.4C164.513 35.1333 163.9 34.8 163.34 34.4C162.807 34 162.367 33.56 162.02 33.08C161.673 32.5733 161.5 32.08 161.5 31.6C161.5 30.96 161.58 30.16 161.74 29.2C161.927 28.2133 162.18 27.1467 162.5 26C162.82 24.8533 163.193 23.6533 163.62 22.4C164.047 21.1467 164.513 19.9067 165.02 18.68H162.74ZM188.243 17.84C188.509 17.84 188.816 17.8933 189.163 18C189.536 18.08 189.869 18.2 190.163 18.36C190.456 18.4933 190.696 18.64 190.883 18.8C191.096 18.96 191.203 19.1067 191.203 19.24C190.669 20.36 190.176 21.4933 189.723 22.64C189.269 23.76 188.883 24.84 188.563 25.88C188.243 26.92 187.989 27.8933 187.803 28.8C187.643 29.7067 187.563 30.4933 187.563 31.16C187.563 31.9067 187.643 32.5333 187.803 33.04C187.963 33.52 188.229 33.8667 188.603 34.08C188.283 34.2933 187.869 34.4667 187.363 34.6C186.856 34.7333 186.403 34.8 186.003 34.8C184.563 34.8 183.843 33.8133 183.843 31.84C183.843 30.32 184.349 28.24 185.363 25.6C184.829 26.8267 184.216 27.9867 183.523 29.08C182.829 30.1467 182.123 31.0933 181.403 31.92C180.683 32.7467 179.949 33.4267 179.203 33.96C178.483 34.4667 177.816 34.7733 177.203 34.88C176.216 34.8267 175.416 34.36 174.803 33.48C174.189 32.5733 173.883 31.4267 173.883 30.04C173.883 28.5467 174.203 26.9733 174.843 25.32C175.483 23.6667 176.296 22.1333 177.283 20.72C178.296 19.3067 179.389 18.1333 180.562 17.2C181.736 16.24 182.869 15.7333 183.963 15.68C184.229 15.76 184.523 15.92 184.843 16.16C185.189 16.4 185.509 16.68 185.803 17C186.123 17.32 186.389 17.6533 186.603 18C186.816 18.32 186.936 18.6 186.963 18.84C185.896 19 184.789 19.52 183.643 20.4C182.523 21.28 181.496 22.3467 180.562 23.6C179.656 24.8267 178.909 26.1467 178.323 27.56C177.736 28.9733 177.443 30.2933 177.443 31.52C177.443 32.0267 177.629 32.3467 178.003 32.48C178.776 32.32 179.669 31.6667 180.683 30.52C181.696 29.3467 182.923 27.5467 184.363 25.12C184.629 24.64 184.923 24.1067 185.243 23.52C185.589 22.9333 185.936 22.32 186.283 21.68C186.629 21.04 186.963 20.4 187.283 19.76C187.629 19.0933 187.949 18.4533 188.243 17.84ZM194.963 19.84C194.963 19.36 194.989 18.9067 195.043 18.48C195.123 18.0533 195.269 17.6933 195.483 17.4C195.696 17.08 195.989 16.84 196.363 16.68C196.736 16.4933 197.229 16.4 197.843 16.4C198.216 16.4 198.629 16.44 199.083 16.52C199.563 16.6 199.909 16.7467 200.123 16.96C200.016 17.4133 199.923 17.8133 199.843 18.16C199.789 18.5067 199.736 18.8933 199.683 19.32C199.656 19.72 199.629 20.2133 199.603 20.8C199.576 21.36 199.549 22.0933 199.523 23C199.469 24.8133 199.376 26.44 199.243 27.88C199.136 29.2933 198.869 30.7067 198.443 32.12C198.443 32.2267 198.483 32.28 198.563 32.28C198.963 31.9867 199.416 31.56 199.923 31C200.429 30.44 200.963 29.8133 201.523 29.12C202.083 28.4 202.643 27.64 203.203 26.84C203.763 26.04 204.283 25.2533 204.763 24.48C205.403 23.36 206.109 21.96 206.883 20.28C207.656 18.6 208.296 16.8 208.803 14.88C208.963 14.88 209.163 14.92 209.403 15C209.669 15.0533 209.923 15.1333 210.163 15.24C210.429 15.32 210.656 15.4133 210.843 15.52C211.056 15.6267 211.203 15.72 211.283 15.8C211.229 16.9467 210.949 18.12 210.443 19.32C209.963 20.52 209.376 21.68 208.683 22.8C207.989 23.92 207.256 24.9733 206.483 25.96C205.709 26.9467 205.003 27.8 204.363 28.52C203.083 30.0133 201.789 31.3467 200.483 32.52C199.203 33.6933 197.669 34.8267 195.883 35.92C195.189 35.6533 194.643 35.2933 194.243 34.84C193.843 34.4133 193.643 33.96 193.643 33.48C193.643 33.16 193.709 32.8 193.843 32.4C194.003 31.9733 194.176 31.44 194.363 30.8C194.549 30.1333 194.709 29.3067 194.843 28.32C195.003 27.3333 195.083 26.08 195.083 24.56C195.083 23.68 195.056 22.8 195.003 21.92C194.976 21.0133 194.963 20.32 194.963 19.84ZM225.013 17.44C224.906 19.0933 224.613 20.52 224.133 21.72C223.653 22.8933 222.959 23.9333 222.053 24.84C221.173 25.72 220.093 26.52 218.813 27.24C217.533 27.96 216.039 28.6533 214.333 29.32C214.333 29.48 214.319 29.6533 214.293 29.84C214.293 30 214.293 30.1733 214.293 30.36C214.293 30.7067 214.319 31.0667 214.373 31.44C214.426 31.8133 214.519 32.16 214.653 32.48C214.786 32.8 214.973 33.0667 215.213 33.28C215.453 33.4667 215.759 33.56 216.133 33.56C216.853 33.56 217.559 33.4 218.253 33.08C218.946 32.76 219.599 32.3733 220.213 31.92C220.853 31.44 221.439 30.9333 221.973 30.4C222.533 29.84 223.026 29.3333 223.453 28.88C223.719 29.12 223.946 29.3467 224.133 29.56C222.933 31.16 221.613 32.4933 220.173 33.56C218.759 34.6 217.413 35.2667 216.133 35.56C214.293 35.3467 212.853 34.68 211.812 33.56C210.799 32.4133 210.293 31.04 210.293 29.44C210.293 28.3467 210.439 27.24 210.733 26.12C211.053 24.9733 211.479 23.88 212.013 22.84C212.573 21.7733 213.213 20.7733 213.933 19.84C214.679 18.9067 215.466 18.0933 216.293 17.4C217.146 16.7067 218.013 16.16 218.893 15.76C219.799 15.36 220.693 15.16 221.573 15.16C222.799 15.32 223.946 16.08 225.013 17.44ZM222.253 18.76C221.533 18.8667 220.786 19.16 220.013 19.64C219.239 20.12 218.506 20.76 217.813 21.56C217.146 22.36 216.533 23.2933 215.973 24.36C215.413 25.4267 214.973 26.5733 214.653 27.8C216.786 26.7333 218.559 25.4267 219.973 23.88C221.386 22.3067 222.146 20.6 222.253 18.76Z" fill="#6FDCF6" data-v-1afa2a7a=""></path></svg>